<?xml version="1.0" encoding="utf-8" ?>
<svg baseProfile="full" height="700" version="1.1" width="700" xmlns="http://www.w3.org/2000/svg" xmlns:ev="http://www.w3.org/2001/xml-events" xmlns:xlink="http://www.w3.org/1999/xlink"><defs /><line stroke="rgb(10%,10%,16%)" x1="320" x2="387" y1="316" y2="372" /><line stroke="rgb(10%,10%,16%)" x1="387" x2="431" y1="372" y2="352" /><line stroke="rgb(10%,10%,16%)" x1="320" x2="260" y1="316" y2="229" /><line stroke="rgb(10%,10%,16%)" x1="431" x2="320" y1="352" y2="316" /><line stroke="rgb(10%,10%,16%)" x1="387" x2="312" y1="372" y2="481" /><line stroke="rgb(10%,10%,16%)" x1="260" x2="274" y1="229" y2="143" /><line stroke="rgb(10%,10%,16%)" x1="320" x2="441" y1="316" y2="213" /><line stroke="rgb(10%,10%,16%)" x1="320" x2="312" y1="316" y2="481" /><line stroke="rgb(10%,10%,16%)" x1="431" x2="441" y1="352" y2="213" /><line stroke="rgb(10%,10%,16%)" x1="312" x2="252" y1="481" y2="480" /><line stroke="rgb(10%,10%,16%)" x1="387" x2="458" y1="372" y2="537" /><line stroke="rgb(10%,10%,16%)" x1="274" x2="416" y1="143" y2="112" /><line stroke="rgb(10%,10%,16%)" x1="260" x2="441" y1="229" y2="213" /><line stroke="rgb(10%,10%,16%)" x1="441" x2="521" y1="213" y2="231" /><line stroke="rgb(10%,10%,16%)" x1="320" x2="252" y1="316" y2="480" /><line stroke="rgb(10%,10%,16%)" x1="312" x2="263" y1="481" y2="552" /><line stroke="rgb(10%,10%,16%)" x1="320" x2="184" y1="316" y2="501" /><line stroke="rgb(10%,10%,16%)" x1="441" x2="416" y1="213" y2="112" /><line stroke="rgb(10%,10%,16%)" x1="431" x2="521" y1="352" y2="231" /><line stroke="rgb(10%,10%,16%)" x1="252" x2="184" y1="480" y2="501" /><line stroke="rgb(10%,10%,16%)" x1="312" x2="184" y1="481" y2="501" /><line stroke="rgb(10%,10%,16%)" x1="458" x2="312" y1="537" y2="481" /><line stroke="rgb(10%,10%,16%)" x1="416" x2="521" y1="112" y2="231" /><line stroke="rgb(10%,10%,16%)" x1="274" x2="441" y1="143" y2="213" /><line stroke="rgb(10%,10%,16%)" x1="260" x2="104" y1="229" y2="445" /><line stroke="rgb(10%,10%,16%)" x1="521" x2="458" y1="231" y2="537" /><line stroke="rgb(10%,10%,16%)" x1="320" x2="104" y1="316" y2="445" /><line stroke="rgb(10%,10%,16%)" x1="263" x2="184" y1="552" y2="501" /><line stroke="rgb(10%,10%,16%)" x1="184" x2="127" y1="501" y2="579" /><line stroke="rgb(10%,10%,16%)" x1="431" x2="458" y1="352" y2="537" /><line stroke="rgb(10%,10%,16%)" x1="184" x2="104" y1="501" y2="445" /><line stroke="rgb(10%,10%,16%)" x1="458" x2="263" y1="537" y2="552" /><line stroke="rgb(10%,10%,16%)" x1="274" x2="104" y1="143" y2="445" /><line stroke="rgb(10%,10%,16%)" x1="104" x2="127" y1="445" y2="579" /><line stroke="rgb(10%,10%,16%)" x1="458" x2="127" y1="537" y2="579" /><line stroke="rgb(10%,10%,16%)" x1="263" x2="127" y1="552" y2="579" /><circle cx="263" cy="552" fill="white" r="10" stroke="black" /><g font-size="12"><text x="259" y="557">0</text></g><circle cx="274" cy="143" fill="white" r="10" stroke="black" /><g font-size="12"><text x="270" y="148">1</text></g><circle cx="387" cy="372" fill="white" r="10" stroke="black" /><g font-size="12"><text x="383" y="377">2</text></g><circle cx="441" cy="213" fill="white" r="10" stroke="black" /><g font-size="12"><text x="437" y="218">3</text></g><circle cx="127" cy="579" fill="white" r="10" stroke="black" /><g font-size="12"><text x="123" y="584">4</text></g><circle cx="320" cy="316" fill="white" r="10" stroke="black" /><g font-size="12"><text x="316" y="321">5</text></g><circle cx="104" cy="445" fill="white" r="10" stroke="black" /><g font-size="12"><text x="100" y="450">6</text></g><circle cx="431" cy="352" fill="white" r="10" stroke="black" /><g font-size="12"><text x="427" y="357">7</text></g><circle cx="252" cy="480" fill="white" r="10" stroke="black" /><g font-size="12"><text x="248" y="485">8</text></g><circle cx="260" cy="229" fill="white" r="10" stroke="black" /><g font-size="12"><text x="256" y="234">9</text></g><circle cx="521" cy="231" fill="white" r="10" stroke="black" /><g font-size="12"><text x="517" y="236">10</text></g><circle cx="184" cy="501" fill="white" r="10" stroke="black" /><g font-size="12"><text x="180" y="506">11</text></g><circle cx="416" cy="112" fill="white" r="10" stroke="black" /><g font-size="12"><text x="412" y="117">12</text></g><circle cx="312" cy="481" fill="white" r="10" stroke="black" /><g font-size="12"><text x="308" y="486">13</text></g><circle cx="458" cy="537" fill="white" r="10" stroke="black" /><g font-size="12"><text x="454" y="542">14</text></g></svg>