<?xml version="1.0" encoding="utf-8" ?>
<svg baseProfile="full" height="700" version="1.1" width="700" xmlns="http://www.w3.org/2000/svg" xmlns:ev="http://www.w3.org/2001/xml-events" xmlns:xlink="http://www.w3.org/1999/xlink"><defs /><line stroke="rgb(10%,10%,16%)" x1="189" x2="211" y1="349" y2="389" /><line stroke="rgb(10%,10%,16%)" x1="211" x2="118" y1="389" y2="352" /><line stroke="rgb(10%,10%,16%)" x1="189" x2="118" y1="349" y2="352" /><line stroke="rgb(10%,10%,16%)" x1="118" x2="126" y1="352" y2="304" /><line stroke="rgb(10%,10%,16%)" x1="211" x2="263" y1="389" y2="270" /><line stroke="rgb(10%,10%,16%)" x1="118" x2="159" y1="352" y2="196" /><line stroke="rgb(10%,10%,16%)" x1="189" x2="263" y1="349" y2="270" /><line stroke="rgb(10%,10%,16%)" x1="126" x2="159" y1="304" y2="196" /><line stroke="rgb(10%,10%,16%)" x1="118" x2="263" y1="352" y2="270" /><line stroke="rgb(10%,10%,16%)" x1="263" x2="159" y1="270" y2="196" /><line stroke="rgb(10%,10%,16%)" x1="211" x2="402" y1="389" y2="404" /><line stroke="rgb(10%,10%,16%)" x1="159" x2="148" y1="196" y2="145" /><line stroke="rgb(10%,10%,16%)" x1="118" x2="148" y1="352" y2="145" /><line stroke="rgb(10%,10%,16%)" x1="263" x2="283" y1="270" y2="132" /><line stroke="rgb(10%,10%,16%)" x1="159" x2="283" y1="196" y2="132" /><line stroke="rgb(10%,10%,16%)" x1="126" x2="148" y1="304" y2="145" /><line stroke="rgb(10%,10%,16%)" x1="263" x2="350" y1="270" y2="160" /><line stroke="rgb(10%,10%,16%)" x1="118" x2="321" y1="352" y2="589" /><line stroke="rgb(10%,10%,16%)" x1="263" x2="333" y1="270" y2="143" /><line stroke="rgb(10%,10%,16%)" x1="402" x2="408" y1="404" y2="528" /><line stroke="rgb(10%,10%,16%)" x1="211" x2="321" y1="389" y2="589" /><line stroke="rgb(10%,10%,16%)" x1="148" x2="283" y1="145" y2="132" /><line stroke="rgb(10%,10%,16%)" x1="283" x2="333" y1="132" y2="143" /><line stroke="rgb(10%,10%,16%)" x1="263" x2="355" y1="270" y2="132" /><line stroke="rgb(10%,10%,16%)" x1="283" x2="355" y1="132" y2="132" /><line stroke="rgb(10%,10%,16%)" x1="350" x2="355" y1="160" y2="132" /><line stroke="rgb(10%,10%,16%)" x1="263" x2="402" y1="270" y2="404" /><line stroke="rgb(10%,10%,16%)" x1="321" x2="355" y1="589" y2="589" /><line stroke="rgb(10%,10%,16%)" x1="333" x2="355" y1="143" y2="132" /><line stroke="rgb(10%,10%,16%)" x1="263" x2="439" y1="270" y2="119" /><line stroke="rgb(10%,10%,16%)" x1="408" x2="355" y1="528" y2="589" /><line stroke="rgb(10%,10%,16%)" x1="402" x2="502" y1="404" y2="303" /><line stroke="rgb(10%,10%,16%)" x1="321" x2="408" y1="589" y2="528" /><line stroke="rgb(10%,10%,16%)" x1="211" x2="408" y1="389" y2="528" /><line stroke="rgb(10%,10%,16%)" x1="283" x2="439" y1="132" y2="119" /><line stroke="rgb(10%,10%,16%)" x1="355" x2="439" y1="132" y2="119" /><line stroke="rgb(10%,10%,16%)" x1="263" x2="502" y1="270" y2="303" /><line stroke="rgb(10%,10%,16%)" x1="350" x2="439" y1="160" y2="119" /><line stroke="rgb(10%,10%,16%)" x1="402" x2="543" y1="404" y2="426" /><line stroke="rgb(10%,10%,16%)" x1="263" x2="472" y1="270" y2="138" /><line stroke="rgb(10%,10%,16%)" x1="355" x2="490" y1="589" y2="573" /><line stroke="rgb(10%,10%,16%)" x1="439" x2="472" y1="119" y2="138" /><line stroke="rgb(10%,10%,16%)" x1="355" x2="543" y1="589" y2="426" /><line stroke="rgb(10%,10%,16%)" x1="408" x2="543" y1="528" y2="426" /><line stroke="rgb(10%,10%,16%)" x1="502" x2="543" y1="303" y2="426" /><line stroke="rgb(10%,10%,16%)" x1="502" x2="472" y1="303" y2="138" /><line stroke="rgb(10%,10%,16%)" x1="543" x2="490" y1="426" y2="573" /><line stroke="rgb(10%,10%,16%)" x1="472" x2="543" y1="138" y2="426" /><circle cx="490" cy="573" fill="white" r="10" stroke="black" /><g font-size="12"><text x="486" y="578">0</text></g><circle cx="118" cy="352" fill="white" r="10" stroke="black" /><g font-size="12"><text x="114" y="357">1</text></g><circle cx="126" cy="304" fill="red" r="10" stroke="black" /><g font-size="12"><text x="122" y="309">2</text></g><circle cx="333" cy="143" fill="white" r="10" stroke="black" /><g font-size="12"><text x="329" y="148">3</text></g><circle cx="148" cy="145" fill="green" r="10" stroke="black" /><g font-size="12"><text x="144" y="150">4</text></g><circle cx="321" cy="589" fill="red" r="10" stroke="black" /><g font-size="12"><text x="317" y="594">5</text></g><circle cx="543" cy="426" fill="green" r="10" stroke="black" /><g font-size="12"><text x="539" y="431">6</text></g><circle cx="408" cy="528" fill="white" r="10" stroke="black" /><g font-size="12"><text x="404" y="533">7</text></g><circle cx="355" cy="589" fill="blue" r="10" stroke="black" /><g font-size="12"><text x="351" y="594">8</text></g><circle cx="472" cy="138" fill="blue" r="10" stroke="black" /><g font-size="12"><text x="468" y="143">9</text></g><circle cx="439" cy="119" fill="white" r="10" stroke="black" /><g font-size="12"><text x="435" y="124">10</text></g><circle cx="159" cy="196" fill="blue" r="10" stroke="black" /><g font-size="12"><text x="155" y="201">11</text></g><circle cx="189" cy="349" fill="red" r="10" stroke="black" /><g font-size="12"><text x="185" y="354">12</text></g><circle cx="350" cy="160" fill="red" r="10" stroke="black" /><g font-size="12"><text x="346" y="165">13</text></g><circle cx="211" cy="389" fill="blue" r="10" stroke="black" /><g font-size="12"><text x="207" y="394">14</text></g><circle cx="283" cy="132" fill="red" r="10" stroke="black" /><g font-size="12"><text x="279" y="137">15</text></g><circle cx="502" cy="303" fill="white" r="10" stroke="black" /><g font-size="12"><text x="498" y="308">16</text></g><circle cx="263" cy="270" fill="green" r="10" stroke="black" /><g font-size="12"><text x="259" y="275">17</text></g><circle cx="402" cy="404" fill="red" r="10" stroke="black" /><g font-size="12"><text x="398" y="409">18</text></g><circle cx="355" cy="132" fill="blue" r="10" stroke="black" /><g font-size="12"><text x="351" y="137">19</text></g></svg>