<?xml version="1.0" encoding="utf-8" ?>
<svg baseProfile="full" height="700" version="1.1" width="700" xmlns="http://www.w3.org/2000/svg" xmlns:ev="http://www.w3.org/2001/xml-events" xmlns:xlink="http://www.w3.org/1999/xlink"><defs /><line stroke="rgb(10%,10%,16%)" x1="144" x2="125" y1="385" y2="323" /><line stroke="rgb(10%,10%,16%)" x1="125" x2="210" y1="323" y2="408" /><line stroke="rgb(10%,10%,16%)" x1="144" x2="210" y1="385" y2="408" /><line stroke="rgb(10%,10%,16%)" x1="210" x2="282" y1="408" y2="351" /><line stroke="rgb(10%,10%,16%)" x1="125" x2="282" y1="323" y2="351" /><line stroke="rgb(10%,10%,16%)" x1="210" x2="466" y1="408" y2="268" /><line stroke="rgb(10%,10%,16%)" x1="144" x2="538" y1="385" y2="585" /><line stroke="rgb(10%,10%,16%)" x1="282" x2="343" y1="351" y2="279" /><line stroke="rgb(10%,10%,16%)" x1="210" x2="507" y1="408" y2="370" /><line stroke="rgb(10%,10%,16%)" x1="282" x2="290" y1="351" y2="241" /><line stroke="rgb(10%,10%,16%)" x1="125" x2="290" y1="323" y2="241" /><line stroke="rgb(10%,10%,16%)" x1="466" x2="429" y1="268" y2="171" /><line stroke="rgb(10%,10%,16%)" x1="210" x2="539" y1="408" y2="416" /><line stroke="rgb(10%,10%,16%)" x1="538" x2="586" y1="585" y2="476" /><line stroke="rgb(10%,10%,16%)" x1="343" x2="290" y1="279" y2="241" /><line stroke="rgb(10%,10%,16%)" x1="282" x2="466" y1="351" y2="268" /><line stroke="rgb(10%,10%,16%)" x1="507" x2="539" y1="370" y2="416" /><line stroke="rgb(10%,10%,16%)" x1="210" x2="537" y1="408" y2="465" /><line stroke="rgb(10%,10%,16%)" x1="290" x2="359" y1="241" y2="165" /><line stroke="rgb(10%,10%,16%)" x1="290" x2="429" y1="241" y2="171" /><line stroke="rgb(10%,10%,16%)" x1="125" x2="217" y1="323" y2="102" /><line stroke="rgb(10%,10%,16%)" x1="429" x2="359" y1="171" y2="165" /><line stroke="rgb(10%,10%,16%)" x1="466" x2="507" y1="268" y2="370" /><line stroke="rgb(10%,10%,16%)" x1="539" x2="537" y1="416" y2="465" /><line stroke="rgb(10%,10%,16%)" x1="210" x2="538" y1="408" y2="585" /><line stroke="rgb(10%,10%,16%)" x1="586" x2="537" y1="476" y2="465" /><line stroke="rgb(10%,10%,16%)" x1="538" x2="537" y1="585" y2="465" /><line stroke="rgb(10%,10%,16%)" x1="290" x2="217" y1="241" y2="102" /><line stroke="rgb(10%,10%,16%)" x1="343" x2="466" y1="279" y2="268" /><line stroke="rgb(10%,10%,16%)" x1="466" x2="539" y1="268" y2="416" /><line stroke="rgb(10%,10%,16%)" x1="539" x2="586" y1="416" y2="476" /><line stroke="rgb(10%,10%,16%)" x1="359" x2="217" y1="165" y2="102" /><line stroke="rgb(10%,10%,16%)" x1="290" x2="466" y1="241" y2="268" /><line stroke="rgb(10%,10%,16%)" x1="429" x2="217" y1="171" y2="102" /><line stroke="rgb(10%,10%,16%)" x1="429" x2="539" y1="171" y2="416" /><line stroke="rgb(10%,10%,16%)" x1="586" x2="429" y1="476" y2="171" /><circle cx="290" cy="241" fill="green" r="10" stroke="black" /><g font-size="12"><text x="286" y="246">0</text></g><circle cx="507" cy="370" fill="red" r="10" stroke="black" /><g font-size="12"><text x="503" y="375">1</text></g><circle cx="539" cy="416" fill="blue" r="10" stroke="black" /><g font-size="12"><text x="535" y="421">2</text></g><circle cx="586" cy="476" fill="green" r="10" stroke="black" /><g font-size="12"><text x="582" y="481">3</text></g><circle cx="125" cy="323" fill="red" r="10" stroke="black" /><g font-size="12"><text x="121" y="328">4</text></g><circle cx="466" cy="268" fill="white" r="10" stroke="black" /><g font-size="12"><text x="462" y="273">5</text></g><circle cx="429" cy="171" fill="red" r="10" stroke="black" /><g font-size="12"><text x="425" y="176">6</text></g><circle cx="538" cy="585" fill="blue" r="10" stroke="black" /><g font-size="12"><text x="534" y="590">7</text></g><circle cx="210" cy="408" fill="green" r="10" stroke="black" /><g font-size="12"><text x="206" y="413">8</text></g><circle cx="359" cy="165" fill="blue" r="10" stroke="black" /><g font-size="12"><text x="355" y="170">9</text></g><circle cx="282" cy="351" fill="blue" r="10" stroke="black" /><g font-size="12"><text x="278" y="356">10</text></g><circle cx="343" cy="279" fill="red" r="10" stroke="black" /><g font-size="12"><text x="339" y="284">11</text></g><circle cx="217" cy="102" fill="white" r="10" stroke="black" /><g font-size="12"><text x="213" y="107">12</text></g><circle cx="537" cy="465" fill="white" r="10" stroke="black" /><g font-size="12"><text x="533" y="470">13</text></g><circle cx="144" cy="385" fill="white" r="10" stroke="black" /><g font-size="12"><text x="140" y="390">14</text></g></svg>