<?xml version="1.0" encoding="utf-8" ?>
<svg baseProfile="full" height="700" version="1.1" width="700" xmlns="http://www.w3.org/2000/svg" xmlns:ev="http://www.w3.org/2001/xml-events" xmlns:xlink="http://www.w3.org/1999/xlink"><defs /><line stroke="rgb(10%,10%,16%)" x1="533" x2="474" y1="184" y2="156" /><line stroke="rgb(10%,10%,16%)" x1="474" x2="391" y1="156" y2="154" /><line stroke="rgb(10%,10%,16%)" x1="533" x2="468" y1="184" y2="239" /><line stroke="rgb(10%,10%,16%)" x1="391" x2="368" y1="154" y2="143" /><line stroke="rgb(10%,10%,16%)" x1="474" x2="468" y1="156" y2="239" /><line stroke="rgb(10%,10%,16%)" x1="468" x2="431" y1="239" y2="243" /><line stroke="rgb(10%,10%,16%)" x1="533" x2="593" y1="184" y2="276" /><line stroke="rgb(10%,10%,16%)" x1="368" x2="474" y1="143" y2="156" /><line stroke="rgb(10%,10%,16%)" x1="391" x2="431" y1="154" y2="243" /><line stroke="rgb(10%,10%,16%)" x1="468" x2="391" y1="239" y2="154" /><line stroke="rgb(10%,10%,16%)" x1="431" x2="368" y1="243" y2="143" /><line stroke="rgb(10%,10%,16%)" x1="468" x2="562" y1="239" y2="321" /><line stroke="rgb(10%,10%,16%)" x1="593" x2="562" y1="276" y2="321" /><line stroke="rgb(10%,10%,16%)" x1="533" x2="562" y1="184" y2="321" /><line stroke="rgb(10%,10%,16%)" x1="368" x2="274" y1="143" y2="318" /><line stroke="rgb(10%,10%,16%)" x1="431" x2="562" y1="243" y2="321" /><line stroke="rgb(10%,10%,16%)" x1="368" x2="143" y1="143" y2="297" /><line stroke="rgb(10%,10%,16%)" x1="431" x2="274" y1="243" y2="318" /><line stroke="rgb(10%,10%,16%)" x1="562" x2="485" y1="321" y2="411" /><line stroke="rgb(10%,10%,16%)" x1="562" x2="492" y1="321" y2="473" /><line stroke="rgb(10%,10%,16%)" x1="593" x2="492" y1="276" y2="473" /><line stroke="rgb(10%,10%,16%)" x1="562" x2="365" y1="321" y2="476" /><line stroke="rgb(10%,10%,16%)" x1="274" x2="234" y1="318" y2="419" /><line stroke="rgb(10%,10%,16%)" x1="368" x2="122" y1="143" y2="393" /><line stroke="rgb(10%,10%,16%)" x1="562" x2="274" y1="321" y2="318" /><line stroke="rgb(10%,10%,16%)" x1="143" x2="122" y1="297" y2="393" /><line stroke="rgb(10%,10%,16%)" x1="368" x2="155" y1="143" y2="500" /><line stroke="rgb(10%,10%,16%)" x1="274" x2="278" y1="318" y2="437" /><line stroke="rgb(10%,10%,16%)" x1="485" x2="492" y1="411" y2="473" /><line stroke="rgb(10%,10%,16%)" x1="562" x2="278" y1="321" y2="437" /><line stroke="rgb(10%,10%,16%)" x1="492" x2="365" y1="473" y2="476" /><line stroke="rgb(10%,10%,16%)" x1="562" x2="225" y1="321" y2="512" /><line stroke="rgb(10%,10%,16%)" x1="492" x2="280" y1="473" y2="556" /><line stroke="rgb(10%,10%,16%)" x1="365" x2="280" y1="476" y2="556" /><line stroke="rgb(10%,10%,16%)" x1="562" x2="155" y1="321" y2="500" /><line stroke="rgb(10%,10%,16%)" x1="234" x2="278" y1="419" y2="437" /><line stroke="rgb(10%,10%,16%)" x1="274" x2="155" y1="318" y2="500" /><line stroke="rgb(10%,10%,16%)" x1="122" x2="155" y1="393" y2="500" /><line stroke="rgb(10%,10%,16%)" x1="562" x2="162" y1="321" y2="593" /><line stroke="rgb(10%,10%,16%)" x1="122" x2="162" y1="393" y2="593" /><line stroke="rgb(10%,10%,16%)" x1="155" x2="225" y1="500" y2="512" /><line stroke="rgb(10%,10%,16%)" x1="278" x2="155" y1="437" y2="500" /><line stroke="rgb(10%,10%,16%)" x1="485" x2="365" y1="411" y2="476" /><line stroke="rgb(10%,10%,16%)" x1="365" x2="162" y1="476" y2="593" /><line stroke="rgb(10%,10%,16%)" x1="225" x2="162" y1="512" y2="593" /><line stroke="rgb(10%,10%,16%)" x1="280" x2="162" y1="556" y2="593" /><line stroke="rgb(10%,10%,16%)" x1="155" x2="162" y1="500" y2="593" /><line stroke="rgb(10%,10%,16%)" x1="234" x2="155" y1="419" y2="500" /><circle cx="162" cy="593" fill="white" r="10" stroke="black" /><g font-size="12"><text x="158" y="598">0</text></g><circle cx="368" cy="143" fill="white" r="10" stroke="black" /><g font-size="12"><text x="364" y="148">1</text></g><circle cx="593" cy="276" fill="white" r="10" stroke="black" /><g font-size="12"><text x="589" y="281">2</text></g><circle cx="122" cy="393" fill="blue" r="10" stroke="black" /><g font-size="12"><text x="118" y="398">3</text></g><circle cx="143" cy="297" fill="green" r="10" stroke="black" /><g font-size="12"><text x="139" y="302">4</text></g><circle cx="468" cy="239" fill="white" r="10" stroke="black" /><g font-size="12"><text x="464" y="244">5</text></g><circle cx="225" cy="512" fill="blue" r="10" stroke="black" /><g font-size="12"><text x="221" y="517">6</text></g><circle cx="365" cy="476" fill="blue" r="10" stroke="black" /><g font-size="12"><text x="361" y="481">7</text></g><circle cx="391" cy="154" fill="blue" r="10" stroke="black" /><g font-size="12"><text x="387" y="159">8</text></g><circle cx="474" cy="156" fill="red" r="10" stroke="black" /><g font-size="12"><text x="470" y="161">9</text></g><circle cx="278" cy="437" fill="white" r="10" stroke="black" /><g font-size="12"><text x="274" y="442">10</text></g><circle cx="234" cy="419" fill="green" r="10" stroke="black" /><g font-size="12"><text x="230" y="424">11</text></g><circle cx="274" cy="318" fill="blue" r="10" stroke="black" /><g font-size="12"><text x="270" y="323">12</text></g><circle cx="155" cy="500" fill="red" r="10" stroke="black" /><g font-size="12"><text x="151" y="505">13</text></g><circle cx="492" cy="473" fill="red" r="10" stroke="black" /><g font-size="12"><text x="488" y="478">14</text></g><circle cx="533" cy="184" fill="blue" r="10" stroke="black" /><g font-size="12"><text x="529" y="189">15</text></g><circle cx="431" cy="243" fill="red" r="10" stroke="black" /><g font-size="12"><text x="427" y="248">16</text></g><circle cx="280" cy="556" fill="green" r="10" stroke="black" /><g font-size="12"><text x="276" y="561">17</text></g><circle cx="562" cy="321" fill="green" r="10" stroke="black" /><g font-size="12"><text x="558" y="326">18</text></g><circle cx="485" cy="411" fill="white" r="10" stroke="black" /><g font-size="12"><text x="481" y="416">19</text></g></svg>