<?xml version="1.0" encoding="utf-8" ?>
<svg baseProfile="full" height="700" version="1.1" width="700" xmlns="http://www.w3.org/2000/svg" xmlns:ev="http://www.w3.org/2001/xml-events" xmlns:xlink="http://www.w3.org/1999/xlink"><defs /><line stroke="rgb(10%,10%,16%)" x1="227" x2="234" y1="264" y2="246" /><line stroke="rgb(10%,10%,16%)" x1="234" x2="262" y1="246" y2="251" /><line stroke="rgb(10%,10%,16%)" x1="227" x2="262" y1="264" y2="251" /><line stroke="rgb(10%,10%,16%)" x1="262" x2="283" y1="251" y2="257" /><line stroke="rgb(10%,10%,16%)" x1="234" x2="198" y1="246" y2="213" /><line stroke="rgb(10%,10%,16%)" x1="262" x2="327" y1="251" y2="218" /><line stroke="rgb(10%,10%,16%)" x1="227" x2="283" y1="264" y2="257" /><line stroke="rgb(10%,10%,16%)" x1="283" x2="327" y1="257" y2="218" /><line stroke="rgb(10%,10%,16%)" x1="262" x2="198" y1="251" y2="213" /><line stroke="rgb(10%,10%,16%)" x1="198" x2="193" y1="213" y2="199" /><line stroke="rgb(10%,10%,16%)" x1="234" x2="190" y1="246" y2="334" /><line stroke="rgb(10%,10%,16%)" x1="327" x2="338" y1="218" y2="175" /><line stroke="rgb(10%,10%,16%)" x1="262" x2="193" y1="251" y2="199" /><line stroke="rgb(10%,10%,16%)" x1="283" x2="390" y1="257" y2="292" /><line stroke="rgb(10%,10%,16%)" x1="227" x2="190" y1="264" y2="334" /><line stroke="rgb(10%,10%,16%)" x1="327" x2="390" y1="218" y2="292" /><line stroke="rgb(10%,10%,16%)" x1="283" x2="190" y1="257" y2="334" /><line stroke="rgb(10%,10%,16%)" x1="198" x2="166" y1="213" y2="155" /><line stroke="rgb(10%,10%,16%)" x1="262" x2="198" y1="251" y2="178" /><line stroke="rgb(10%,10%,16%)" x1="193" x2="198" y1="199" y2="178" /><line stroke="rgb(10%,10%,16%)" x1="198" x2="104" y1="213" y2="182" /><line stroke="rgb(10%,10%,16%)" x1="190" x2="195" y1="334" y2="345" /><line stroke="rgb(10%,10%,16%)" x1="234" x2="104" y1="246" y2="182" /><line stroke="rgb(10%,10%,16%)" x1="338" x2="415" y1="175" y2="111" /><line stroke="rgb(10%,10%,16%)" x1="327" x2="441" y1="218" y2="230" /><line stroke="rgb(10%,10%,16%)" x1="193" x2="166" y1="199" y2="155" /><line stroke="rgb(10%,10%,16%)" x1="262" x2="338" y1="251" y2="175" /><line stroke="rgb(10%,10%,16%)" x1="390" x2="409" y1="292" y2="341" /><line stroke="rgb(10%,10%,16%)" x1="283" x2="195" y1="257" y2="345" /><line stroke="rgb(10%,10%,16%)" x1="190" x2="198" y1="334" y2="402" /><line stroke="rgb(10%,10%,16%)" x1="390" x2="441" y1="292" y2="230" /><line stroke="rgb(10%,10%,16%)" x1="327" x2="443" y1="218" y2="178" /><line stroke="rgb(10%,10%,16%)" x1="190" x2="104" y1="334" y2="182" /><line stroke="rgb(10%,10%,16%)" x1="283" x2="308" y1="257" y2="406" /><line stroke="rgb(10%,10%,16%)" x1="166" x2="198" y1="155" y2="178" /><line stroke="rgb(10%,10%,16%)" x1="198" x2="128" y1="213" y2="122" /><line stroke="rgb(10%,10%,16%)" x1="198" x2="183" y1="178" y2="111" /><line stroke="rgb(10%,10%,16%)" x1="262" x2="183" y1="251" y2="111" /><line stroke="rgb(10%,10%,16%)" x1="198" x2="128" y1="178" y2="122" /><line stroke="rgb(10%,10%,16%)" x1="104" x2="104" y1="182" y2="141" /><line stroke="rgb(10%,10%,16%)" x1="198" x2="104" y1="213" y2="141" /><line stroke="rgb(10%,10%,16%)" x1="195" x2="198" y1="345" y2="402" /><line stroke="rgb(10%,10%,16%)" x1="190" x2="110" y1="334" y2="599" /><line stroke="rgb(10%,10%,16%)" x1="104" x2="110" y1="182" y2="599" /><line stroke="rgb(10%,10%,16%)" x1="415" x2="443" y1="111" y2="178" /><line stroke="rgb(10%,10%,16%)" x1="338" x2="443" y1="175" y2="178" /><line stroke="rgb(10%,10%,16%)" x1="441" x2="475" y1="230" y2="261" /><line stroke="rgb(10%,10%,16%)" x1="327" x2="585" y1="218" y2="209" /><line stroke="rgb(10%,10%,16%)" x1="166" x2="128" y1="155" y2="122" /><line stroke="rgb(10%,10%,16%)" x1="338" x2="183" y1="175" y2="111" /><line stroke="rgb(10%,10%,16%)" x1="409" x2="373" y1="341" y2="384" /><line stroke="rgb(10%,10%,16%)" x1="390" x2="475" y1="292" y2="261" /><line stroke="rgb(10%,10%,16%)" x1="195" x2="259" y1="345" y2="450" /><line stroke="rgb(10%,10%,16%)" x1="283" x2="409" y1="257" y2="341" /><line stroke="rgb(10%,10%,16%)" x1="198" x2="259" y1="402" y2="450" /><line stroke="rgb(10%,10%,16%)" x1="441" x2="572" y1="230" y2="279" /><line stroke="rgb(10%,10%,16%)" x1="390" x2="491" y1="292" y2="377" /><line stroke="rgb(10%,10%,16%)" x1="443" x2="584" y1="178" y2="182" /><line stroke="rgb(10%,10%,16%)" x1="327" x2="584" y1="218" y2="182" /><line stroke="rgb(10%,10%,16%)" x1="308" x2="315" y1="406" y2="458" /><line stroke="rgb(10%,10%,16%)" x1="283" x2="373" y1="257" y2="384" /><line stroke="rgb(10%,10%,16%)" x1="128" x2="104" y1="122" y2="141" /><line stroke="rgb(10%,10%,16%)" x1="183" x2="128" y1="111" y2="122" /><line stroke="rgb(10%,10%,16%)" x1="183" x2="415" y1="111" y2="111" /><line stroke="rgb(10%,10%,16%)" x1="198" x2="270" y1="402" y2="596" /><line stroke="rgb(10%,10%,16%)" x1="195" x2="308" y1="345" y2="406" /><line stroke="rgb(10%,10%,16%)" x1="110" x2="270" y1="599" y2="596" /><line stroke="rgb(10%,10%,16%)" x1="110" x2="198" y1="599" y2="402" /><line stroke="rgb(10%,10%,16%)" x1="415" x2="584" y1="111" y2="182" /><line stroke="rgb(10%,10%,16%)" x1="475" x2="514" y1="261" y2="345" /><line stroke="rgb(10%,10%,16%)" x1="441" x2="585" y1="230" y2="209" /><line stroke="rgb(10%,10%,16%)" x1="585" x2="584" y1="209" y2="182" /><line stroke="rgb(10%,10%,16%)" x1="373" x2="361" y1="384" y2="429" /><line stroke="rgb(10%,10%,16%)" x1="409" x2="491" y1="341" y2="377" /><line stroke="rgb(10%,10%,16%)" x1="475" x2="572" y1="261" y2="279" /><line stroke="rgb(10%,10%,16%)" x1="390" x2="514" y1="292" y2="345" /><line stroke="rgb(10%,10%,16%)" x1="259" x2="315" y1="450" y2="458" /><line stroke="rgb(10%,10%,16%)" x1="195" x2="315" y1="345" y2="458" /><line stroke="rgb(10%,10%,16%)" x1="409" x2="361" y1="341" y2="429" /><line stroke="rgb(10%,10%,16%)" x1="283" x2="361" y1="257" y2="429" /><line stroke="rgb(10%,10%,16%)" x1="259" x2="382" y1="450" y2="497" /><line stroke="rgb(10%,10%,16%)" x1="572" x2="585" y1="279" y2="209" /><line stroke="rgb(10%,10%,16%)" x1="491" x2="514" y1="377" y2="345" /><line stroke="rgb(10%,10%,16%)" x1="315" x2="361" y1="458" y2="429" /><line stroke="rgb(10%,10%,16%)" x1="308" x2="361" y1="406" y2="429" /><line stroke="rgb(10%,10%,16%)" x1="270" x2="259" y1="596" y2="450" /><line stroke="rgb(10%,10%,16%)" x1="270" x2="382" y1="596" y2="497" /><line stroke="rgb(10%,10%,16%)" x1="514" x2="567" y1="345" y2="410" /><line stroke="rgb(10%,10%,16%)" x1="475" x2="567" y1="261" y2="410" /><line stroke="rgb(10%,10%,16%)" x1="585" x2="567" y1="209" y2="410" /><line stroke="rgb(10%,10%,16%)" x1="585" x2="598" y1="209" y2="571" /><line stroke="rgb(10%,10%,16%)" x1="361" x2="407" y1="429" y2="459" /><line stroke="rgb(10%,10%,16%)" x1="491" x2="567" y1="377" y2="410" /><line stroke="rgb(10%,10%,16%)" x1="409" x2="407" y1="341" y2="459" /><line stroke="rgb(10%,10%,16%)" x1="572" x2="567" y1="279" y2="410" /><line stroke="rgb(10%,10%,16%)" x1="315" x2="382" y1="458" y2="497" /><line stroke="rgb(10%,10%,16%)" x1="315" x2="407" y1="458" y2="459" /><line stroke="rgb(10%,10%,16%)" x1="409" x2="483" y1="341" y2="460" /><line stroke="rgb(10%,10%,16%)" x1="382" x2="407" y1="497" y2="459" /><line stroke="rgb(10%,10%,16%)" x1="491" x2="483" y1="377" y2="460" /><line stroke="rgb(10%,10%,16%)" x1="270" x2="483" y1="596" y2="460" /><line stroke="rgb(10%,10%,16%)" x1="382" x2="483" y1="497" y2="460" /><line stroke="rgb(10%,10%,16%)" x1="270" x2="598" y1="596" y2="571" /><line stroke="rgb(10%,10%,16%)" x1="567" x2="483" y1="410" y2="460" /><line stroke="rgb(10%,10%,16%)" x1="567" x2="598" y1="410" y2="571" /><line stroke="rgb(10%,10%,16%)" x1="567" x2="270" y1="410" y2="596" /><line stroke="rgb(10%,10%,16%)" x1="407" x2="483" y1="459" y2="460" /><circle cx="270" cy="596" fill="white" r="10" stroke="black" /><g font-size="12"><text x="266" y="601">0</text></g><circle cx="198" cy="402" fill="blue" r="10" stroke="black" /><g font-size="12"><text x="194" y="407">1</text></g><circle cx="483" cy="460" fill="blue" r="10" stroke="black" /><g font-size="12"><text x="479" y="465">2</text></g><circle cx="283" cy="257" fill="blue" r="10" stroke="black" /><g font-size="12"><text x="279" y="262">3</text></g><circle cx="327" cy="218" fill="green" r="10" stroke="black" /><g font-size="12"><text x="323" y="223">4</text></g><circle cx="183" cy="111" fill="blue" r="10" stroke="black" /><g font-size="12"><text x="179" y="116">5</text></g><circle cx="382" cy="497" fill="red" r="10" stroke="black" /><g font-size="12"><text x="378" y="502">6</text></g><circle cx="104" cy="141" fill="white" r="10" stroke="black" /><g font-size="12"><text x="100" y="146">7</text></g><circle cx="409" cy="341" fill="green" r="10" stroke="black" /><g font-size="12"><text x="405" y="346">8</text></g><circle cx="475" cy="261" fill="white" r="10" stroke="black" /><g font-size="12"><text x="471" y="266">9</text></g><circle cx="110" cy="599" fill="green" r="10" stroke="black" /><g font-size="12"><text x="106" y="604">10</text></g><circle cx="441" cy="230" fill="blue" r="10" stroke="black" /><g font-size="12"><text x="437" y="235">11</text></g><circle cx="198" cy="213" fill="green" r="10" stroke="black" /><g font-size="12"><text x="194" y="218">12</text></g><circle cx="128" cy="122" fill="red" r="10" stroke="black" /><g font-size="12"><text x="124" y="127">13</text></g><circle cx="259" cy="450" fill="green" r="10" stroke="black" /><g font-size="12"><text x="255" y="455">14</text></g><circle cx="308" cy="406" fill="white" r="10" stroke="black" /><g font-size="12"><text x="304" y="411">15</text></g><circle cx="227" cy="264" fill="green" r="10" stroke="black" /><g font-size="12"><text x="223" y="269">16</text></g><circle cx="407" cy="459" fill="white" r="10" stroke="black" /><g font-size="12"><text x="403" y="464">17</text></g><circle cx="572" cy="279" fill="green" r="10" stroke="black" /><g font-size="12"><text x="568" y="284">18</text></g><circle cx="598" cy="571" fill="blue" r="10" stroke="black" /><g font-size="12"><text x="594" y="576">19</text></g><circle cx="514" cy="345" fill="blue" r="10" stroke="black" /><g font-size="12"><text x="510" y="350">20</text></g><circle cx="361" cy="429" fill="red" r="10" stroke="black" /><g font-size="12"><text x="357" y="434">21</text></g><circle cx="585" cy="209" fill="white" r="10" stroke="black" /><g font-size="12"><text x="581" y="214">22</text></g><circle cx="195" cy="345" fill="red" r="10" stroke="black" /><g font-size="12"><text x="191" y="350">23</text></g><circle cx="104" cy="182" fill="red" r="10" stroke="black" /><g font-size="12"><text x="100" y="187">24</text></g><circle cx="415" cy="111" fill="green" r="10" stroke="black" /><g font-size="12"><text x="411" y="116">25</text></g><circle cx="262" cy="251" fill="red" r="10" stroke="black" /><g font-size="12"><text x="258" y="256">26</text></g><circle cx="315" cy="458" fill="blue" r="10" stroke="black" /><g font-size="12"><text x="311" y="463">27</text></g><circle cx="193" cy="199" fill="white" r="10" stroke="black" /><g font-size="12"><text x="189" y="204">28</text></g><circle cx="390" cy="292" fill="red" r="10" stroke="black" /><g font-size="12"><text x="386" y="297">29</text></g><circle cx="491" cy="377" fill="white" r="10" stroke="black" /><g font-size="12"><text x="487" y="382">30</text></g><circle cx="567" cy="410" fill="red" r="10" stroke="black" /><g font-size="12"><text x="563" y="415">31</text></g><circle cx="198" cy="178" fill="green" r="10" stroke="black" /><g font-size="12"><text x="194" y="183">32</text></g><circle cx="234" cy="246" fill="blue" r="10" stroke="black" /><g font-size="12"><text x="230" y="251">33</text></g><circle cx="443" cy="178" fill="blue" r="10" stroke="black" /><g font-size="12"><text x="439" y="183">34</text></g><circle cx="166" cy="155" fill="blue" r="10" stroke="black" /><g font-size="12"><text x="162" y="160">35</text></g><circle cx="584" cy="182" fill="red" r="10" stroke="black" /><g font-size="12"><text x="580" y="187">36</text></g><circle cx="190" cy="334" fill="white" r="10" stroke="black" /><g font-size="12"><text x="186" y="339">37</text></g><circle cx="373" cy="384" fill="white" r="10" stroke="black" /><g font-size="12"><text x="369" y="389">38</text></g><circle cx="338" cy="175" fill="white" r="10" stroke="black" /><g font-size="12"><text x="334" y="180">39</text></g></svg>