<?xml version="1.0" encoding="utf-8" ?>
<svg baseProfile="full" height="700" version="1.1" width="700" xmlns="http://www.w3.org/2000/svg" xmlns:ev="http://www.w3.org/2001/xml-events" xmlns:xlink="http://www.w3.org/1999/xlink"><defs /><line stroke="rgb(10%,10%,16%)" x1="374" x2="332" y1="176" y2="213" /><line stroke="rgb(10%,10%,16%)" x1="332" x2="303" y1="213" y2="166" /><line stroke="rgb(10%,10%,16%)" x1="374" x2="425" y1="176" y2="144" /><line stroke="rgb(10%,10%,16%)" x1="303" x2="374" y1="166" y2="176" /><line stroke="rgb(10%,10%,16%)" x1="332" x2="306" y1="213" y2="262" /><line stroke="rgb(10%,10%,16%)" x1="425" x2="411" y1="144" y2="234" /><line stroke="rgb(10%,10%,16%)" x1="374" x2="411" y1="176" y2="234" /><line stroke="rgb(10%,10%,16%)" x1="374" x2="306" y1="176" y2="262" /><line stroke="rgb(10%,10%,16%)" x1="303" x2="306" y1="166" y2="262" /><line stroke="rgb(10%,10%,16%)" x1="306" x2="339" y1="262" y2="292" /><line stroke="rgb(10%,10%,16%)" x1="411" x2="389" y1="234" y2="305" /><line stroke="rgb(10%,10%,16%)" x1="425" x2="303" y1="144" y2="166" /><line stroke="rgb(10%,10%,16%)" x1="411" x2="366" y1="234" y2="297" /><line stroke="rgb(10%,10%,16%)" x1="374" x2="339" y1="176" y2="292" /><line stroke="rgb(10%,10%,16%)" x1="306" x2="322" y1="262" y2="336" /><line stroke="rgb(10%,10%,16%)" x1="374" x2="366" y1="176" y2="297" /><line stroke="rgb(10%,10%,16%)" x1="306" x2="221" y1="262" y2="332" /><line stroke="rgb(10%,10%,16%)" x1="303" x2="221" y1="166" y2="332" /><line stroke="rgb(10%,10%,16%)" x1="339" x2="366" y1="292" y2="297" /><line stroke="rgb(10%,10%,16%)" x1="306" x2="297" y1="262" y2="403" /><line stroke="rgb(10%,10%,16%)" x1="389" x2="366" y1="305" y2="297" /><line stroke="rgb(10%,10%,16%)" x1="411" x2="496" y1="234" y2="246" /><line stroke="rgb(10%,10%,16%)" x1="303" x2="122" y1="166" y2="255" /><line stroke="rgb(10%,10%,16%)" x1="425" x2="496" y1="144" y2="246" /><line stroke="rgb(10%,10%,16%)" x1="366" x2="322" y1="297" y2="336" /><line stroke="rgb(10%,10%,16%)" x1="411" x2="470" y1="234" y2="304" /><line stroke="rgb(10%,10%,16%)" x1="339" x2="322" y1="292" y2="336" /><line stroke="rgb(10%,10%,16%)" x1="322" x2="297" y1="336" y2="403" /><line stroke="rgb(10%,10%,16%)" x1="306" x2="223" y1="262" y2="463" /><line stroke="rgb(10%,10%,16%)" x1="366" x2="399" y1="297" y2="370" /><line stroke="rgb(10%,10%,16%)" x1="221" x2="149" y1="332" y2="342" /><line stroke="rgb(10%,10%,16%)" x1="306" x2="196" y1="262" y2="454" /><line stroke="rgb(10%,10%,16%)" x1="221" x2="148" y1="332" y2="336" /><line stroke="rgb(10%,10%,16%)" x1="303" x2="148" y1="166" y2="336" /><line stroke="rgb(10%,10%,16%)" x1="366" x2="437" y1="297" y2="375" /><line stroke="rgb(10%,10%,16%)" x1="297" x2="223" y1="403" y2="463" /><line stroke="rgb(10%,10%,16%)" x1="366" x2="297" y1="297" y2="403" /><line stroke="rgb(10%,10%,16%)" x1="389" x2="455" y1="305" y2="322" /><line stroke="rgb(10%,10%,16%)" x1="496" x2="481" y1="246" y2="306" /><line stroke="rgb(10%,10%,16%)" x1="411" x2="455" y1="234" y2="322" /><line stroke="rgb(10%,10%,16%)" x1="122" x2="148" y1="255" y2="336" /><line stroke="rgb(10%,10%,16%)" x1="496" x2="470" y1="246" y2="304" /><line stroke="rgb(10%,10%,16%)" x1="366" x2="378" y1="297" y2="456" /><line stroke="rgb(10%,10%,16%)" x1="470" x2="481" y1="304" y2="306" /><line stroke="rgb(10%,10%,16%)" x1="411" x2="545" y1="234" y2="468" /><line stroke="rgb(10%,10%,16%)" x1="297" x2="378" y1="403" y2="456" /><line stroke="rgb(10%,10%,16%)" x1="223" x2="196" y1="463" y2="454" /><line stroke="rgb(10%,10%,16%)" x1="399" x2="437" y1="370" y2="375" /><line stroke="rgb(10%,10%,16%)" x1="366" x2="432" y1="297" y2="528" /><line stroke="rgb(10%,10%,16%)" x1="149" x2="148" y1="342" y2="336" /><line stroke="rgb(10%,10%,16%)" x1="221" x2="196" y1="332" y2="454" /><line stroke="rgb(10%,10%,16%)" x1="196" x2="209" y1="454" y2="508" /><line stroke="rgb(10%,10%,16%)" x1="437" x2="455" y1="375" y2="322" /><line stroke="rgb(10%,10%,16%)" x1="223" x2="209" y1="463" y2="508" /><line stroke="rgb(10%,10%,16%)" x1="297" x2="323" y1="403" y2="505" /><line stroke="rgb(10%,10%,16%)" x1="297" x2="209" y1="403" y2="508" /><line stroke="rgb(10%,10%,16%)" x1="455" x2="545" y1="322" y2="468" /><line stroke="rgb(10%,10%,16%)" x1="389" x2="437" y1="305" y2="375" /><line stroke="rgb(10%,10%,16%)" x1="481" x2="578" y1="306" y2="387" /><line stroke="rgb(10%,10%,16%)" x1="496" x2="578" y1="246" y2="387" /><line stroke="rgb(10%,10%,16%)" x1="455" x2="432" y1="322" y2="528" /><line stroke="rgb(10%,10%,16%)" x1="122" x2="149" y1="255" y2="342" /><line stroke="rgb(10%,10%,16%)" x1="470" x2="578" y1="304" y2="387" /><line stroke="rgb(10%,10%,16%)" x1="378" x2="323" y1="456" y2="505" /><line stroke="rgb(10%,10%,16%)" x1="470" x2="545" y1="304" y2="468" /><line stroke="rgb(10%,10%,16%)" x1="545" x2="578" y1="468" y2="387" /><line stroke="rgb(10%,10%,16%)" x1="378" x2="432" y1="456" y2="528" /><line stroke="rgb(10%,10%,16%)" x1="297" x2="262" y1="403" y2="537" /><line stroke="rgb(10%,10%,16%)" x1="196" x2="149" y1="454" y2="342" /><line stroke="rgb(10%,10%,16%)" x1="437" x2="432" y1="375" y2="528" /><line stroke="rgb(10%,10%,16%)" x1="399" x2="432" y1="370" y2="528" /><line stroke="rgb(10%,10%,16%)" x1="432" x2="323" y1="528" y2="505" /><line stroke="rgb(10%,10%,16%)" x1="149" x2="209" y1="342" y2="508" /><line stroke="rgb(10%,10%,16%)" x1="209" x2="262" y1="508" y2="537" /><line stroke="rgb(10%,10%,16%)" x1="323" x2="262" y1="505" y2="537" /><line stroke="rgb(10%,10%,16%)" x1="545" x2="432" y1="468" y2="528" /><line stroke="rgb(10%,10%,16%)" x1="432" x2="262" y1="528" y2="537" /><circle cx="332" cy="213" fill="white" r="10" stroke="black" /><g font-size="12"><text x="328" y="218">0</text></g><circle cx="339" cy="292" fill="white" r="10" stroke="black" /><g font-size="12"><text x="335" y="297">1</text></g><circle cx="297" cy="403" fill="white" r="10" stroke="black" /><g font-size="12"><text x="293" y="408">2</text></g><circle cx="122" cy="255" fill="white" r="10" stroke="black" /><g font-size="12"><text x="118" y="260">3</text></g><circle cx="209" cy="508" fill="blue" r="10" stroke="black" /><g font-size="12"><text x="205" y="513">4</text></g><circle cx="470" cy="304" fill="white" r="10" stroke="black" /><g font-size="12"><text x="466" y="309">5</text></g><circle cx="455" cy="322" fill="white" r="10" stroke="black" /><g font-size="12"><text x="451" y="327">6</text></g><circle cx="262" cy="537" fill="red" r="10" stroke="black" /><g font-size="12"><text x="258" y="542">7</text></g><circle cx="432" cy="528" fill="blue" r="10" stroke="black" /><g font-size="12"><text x="428" y="533">8</text></g><circle cx="196" cy="454" fill="white" r="10" stroke="black" /><g font-size="12"><text x="192" y="459">9</text></g><circle cx="374" cy="176" fill="blue" r="10" stroke="black" /><g font-size="12"><text x="370" y="181">10</text></g><circle cx="496" cy="246" fill="blue" r="10" stroke="black" /><g font-size="12"><text x="492" y="251">11</text></g><circle cx="481" cy="306" fill="green" r="10" stroke="black" /><g font-size="12"><text x="477" y="311">12</text></g><circle cx="425" cy="144" fill="white" r="10" stroke="black" /><g font-size="12"><text x="421" y="149">13</text></g><circle cx="411" cy="234" fill="red" r="10" stroke="black" /><g font-size="12"><text x="407" y="239">14</text></g><circle cx="389" cy="305" fill="blue" r="10" stroke="black" /><g font-size="12"><text x="385" y="310">15</text></g><circle cx="399" cy="370" fill="white" r="10" stroke="black" /><g font-size="12"><text x="395" y="375">16</text></g><circle cx="221" cy="332" fill="blue" r="10" stroke="black" /><g font-size="12"><text x="217" y="337">17</text></g><circle cx="323" cy="505" fill="green" r="10" stroke="black" /><g font-size="12"><text x="319" y="510">18</text></g><circle cx="437" cy="375" fill="red" r="10" stroke="black" /><g font-size="12"><text x="433" y="380">19</text></g><circle cx="545" cy="468" fill="green" r="10" stroke="black" /><g font-size="12"><text x="541" y="473">20</text></g><circle cx="149" cy="342" fill="red" r="10" stroke="black" /><g font-size="12"><text x="145" y="347">21</text></g><circle cx="223" cy="463" fill="red" r="10" stroke="black" /><g font-size="12"><text x="219" y="468">22</text></g><circle cx="366" cy="297" fill="green" r="10" stroke="black" /><g font-size="12"><text x="362" y="302">23</text></g><circle cx="148" cy="336" fill="green" r="10" stroke="black" /><g font-size="12"><text x="144" y="341">24</text></g><circle cx="578" cy="387" fill="red" r="10" stroke="black" /><g font-size="12"><text x="574" y="392">25</text></g><circle cx="378" cy="456" fill="red" r="10" stroke="black" /><g font-size="12"><text x="374" y="461">26</text></g><circle cx="322" cy="336" fill="blue" r="10" stroke="black" /><g font-size="12"><text x="318" y="341">27</text></g><circle cx="303" cy="166" fill="red" r="10" stroke="black" /><g font-size="12"><text x="299" y="171">28</text></g><circle cx="306" cy="262" fill="green" r="10" stroke="black" /><g font-size="12"><text x="302" y="267">29</text></g></svg>