<?xml version="1.0" encoding="utf-8" ?>
<svg baseProfile="full" height="700" version="1.1" width="700" xmlns="http://www.w3.org/2000/svg" xmlns:ev="http://www.w3.org/2001/xml-events" xmlns:xlink="http://www.w3.org/1999/xlink"><defs /><line stroke="rgb(10%,10%,16%)" x1="249" x2="250" y1="322" y2="304" /><line stroke="rgb(10%,10%,16%)" x1="250" x2="359" y1="304" y2="272" /><line stroke="rgb(10%,10%,16%)" x1="249" x2="162" y1="322" y2="385" /><line stroke="rgb(10%,10%,16%)" x1="359" x2="419" y1="272" y2="273" /><line stroke="rgb(10%,10%,16%)" x1="250" x2="162" y1="304" y2="385" /><line stroke="rgb(10%,10%,16%)" x1="162" x2="370" y1="385" y2="417" /><line stroke="rgb(10%,10%,16%)" x1="249" x2="359" y1="322" y2="272" /><line stroke="rgb(10%,10%,16%)" x1="419" x2="452" y1="273" y2="233" /><line stroke="rgb(10%,10%,16%)" x1="359" x2="452" y1="272" y2="233" /><line stroke="rgb(10%,10%,16%)" x1="162" x2="253" y1="385" y2="581" /><line stroke="rgb(10%,10%,16%)" x1="250" x2="452" y1="304" y2="233" /><line stroke="rgb(10%,10%,16%)" x1="370" x2="409" y1="417" y2="411" /><line stroke="rgb(10%,10%,16%)" x1="162" x2="359" y1="385" y2="272" /><line stroke="rgb(10%,10%,16%)" x1="359" x2="370" y1="272" y2="417" /><line stroke="rgb(10%,10%,16%)" x1="452" x2="409" y1="233" y2="411" /><line stroke="rgb(10%,10%,16%)" x1="419" x2="409" y1="273" y2="411" /><line stroke="rgb(10%,10%,16%)" x1="452" x2="428" y1="233" y2="552" /><line stroke="rgb(10%,10%,16%)" x1="359" x2="409" y1="272" y2="411" /><line stroke="rgb(10%,10%,16%)" x1="253" x2="428" y1="581" y2="552" /><line stroke="rgb(10%,10%,16%)" x1="162" x2="428" y1="385" y2="552" /><line stroke="rgb(10%,10%,16%)" x1="409" x2="428" y1="411" y2="552" /><line stroke="rgb(10%,10%,16%)" x1="370" x2="428" y1="417" y2="552" /><circle cx="409" cy="411" fill="blue" r="10" stroke="black" /><g font-size="12"><text x="405" y="416">0</text></g><circle cx="249" cy="322" fill="green" r="10" stroke="black" /><g font-size="12"><text x="245" y="327">1</text></g><circle cx="370" cy="417" fill="green" r="10" stroke="black" /><g font-size="12"><text x="366" y="422">2</text></g><circle cx="419" cy="273" fill="white" r="10" stroke="black" /><g font-size="12"><text x="415" y="278">3</text></g><circle cx="359" cy="272" fill="red" r="10" stroke="black" /><g font-size="12"><text x="355" y="277">4</text></g><circle cx="452" cy="233" fill="green" r="10" stroke="black" /><g font-size="12"><text x="448" y="238">5</text></g><circle cx="162" cy="385" fill="blue" r="10" stroke="black" /><g font-size="12"><text x="158" y="390">6</text></g><circle cx="428" cy="552" fill="white" r="10" stroke="black" /><g font-size="12"><text x="424" y="557">7</text></g><circle cx="250" cy="304" fill="white" r="10" stroke="black" /><g font-size="12"><text x="246" y="309">8</text></g><circle cx="253" cy="581" fill="green" r="10" stroke="black" /><g font-size="12"><text x="249" y="586">9</text></g></svg>