<?xml version="1.0" encoding="utf-8" ?>
<svg baseProfile="full" height="700" version="1.1" width="700" xmlns="http://www.w3.org/2000/svg" xmlns:ev="http://www.w3.org/2001/xml-events" xmlns:xlink="http://www.w3.org/1999/xlink"><defs /><line stroke="rgb(10%,10%,16%)" x1="414" x2="396" y1="321" y2="301" /><line stroke="rgb(10%,10%,16%)" x1="396" x2="390" y1="301" y2="154" /><line stroke="rgb(10%,10%,16%)" x1="414" x2="390" y1="321" y2="154" /><line stroke="rgb(10%,10%,16%)" x1="390" x2="558" y1="154" y2="224" /><line stroke="rgb(10%,10%,16%)" x1="396" x2="534" y1="301" y2="528" /><line stroke="rgb(10%,10%,16%)" x1="390" x2="593" y1="154" y2="262" /><line stroke="rgb(10%,10%,16%)" x1="414" x2="593" y1="321" y2="262" /><line stroke="rgb(10%,10%,16%)" x1="558" x2="593" y1="224" y2="262" /><line stroke="rgb(10%,10%,16%)" x1="390" x2="133" y1="154" y2="104" /><line stroke="rgb(10%,10%,16%)" x1="534" x2="460" y1="528" y2="569" /><line stroke="rgb(10%,10%,16%)" x1="396" x2="460" y1="301" y2="569" /><line stroke="rgb(10%,10%,16%)" x1="593" x2="534" y1="262" y2="528" /><line stroke="rgb(10%,10%,16%)" x1="390" x2="200" y1="154" y2="502" /><line stroke="rgb(10%,10%,16%)" x1="414" x2="534" y1="321" y2="528" /><line stroke="rgb(10%,10%,16%)" x1="133" x2="200" y1="104" y2="502" /><line stroke="rgb(10%,10%,16%)" x1="390" x2="208" y1="154" y2="591" /><line stroke="rgb(10%,10%,16%)" x1="460" x2="208" y1="569" y2="591" /><line stroke="rgb(10%,10%,16%)" x1="396" x2="208" y1="301" y2="591" /><line stroke="rgb(10%,10%,16%)" x1="200" x2="208" y1="502" y2="591" /><line stroke="rgb(10%,10%,16%)" x1="133" x2="208" y1="104" y2="591" /><circle cx="593" cy="262" fill="white" r="10" stroke="black" /><g font-size="12"><text x="589" y="267">0</text></g><circle cx="460" cy="569" fill="white" r="10" stroke="black" /><g font-size="12"><text x="456" y="574">1</text></g><circle cx="133" cy="104" fill="white" r="10" stroke="black" /><g font-size="12"><text x="129" y="109">2</text></g><circle cx="390" cy="154" fill="blue" r="10" stroke="black" /><g font-size="12"><text x="386" y="159">3</text></g><circle cx="414" cy="321" fill="red" r="10" stroke="black" /><g font-size="12"><text x="410" y="326">4</text></g><circle cx="558" cy="224" fill="red" r="10" stroke="black" /><g font-size="12"><text x="554" y="229">5</text></g><circle cx="200" cy="502" fill="green" r="10" stroke="black" /><g font-size="12"><text x="196" y="507">6</text></g><circle cx="396" cy="301" fill="green" r="10" stroke="black" /><g font-size="12"><text x="392" y="306">7</text></g><circle cx="208" cy="591" fill="red" r="10" stroke="black" /><g font-size="12"><text x="204" y="596">8</text></g><circle cx="534" cy="528" fill="blue" r="10" stroke="black" /><g font-size="12"><text x="530" y="533">9</text></g></svg>