<?xml version="1.0" encoding="utf-8" ?>
<svg baseProfile="full" height="700" version="1.1" width="700" xmlns="http://www.w3.org/2000/svg" xmlns:ev="http://www.w3.org/2001/xml-events" xmlns:xlink="http://www.w3.org/1999/xlink"><defs /><line stroke="rgb(10%,10%,16%)" x1="151" x2="170" y1="518" y2="486" /><line stroke="rgb(10%,10%,16%)" x1="170" x2="279" y1="486" y2="473" /><line stroke="rgb(10%,10%,16%)" x1="151" x2="279" y1="518" y2="473" /><line stroke="rgb(10%,10%,16%)" x1="279" x2="377" y1="473" y2="402" /><line stroke="rgb(10%,10%,16%)" x1="170" x2="196" y1="486" y2="294" /><line stroke="rgb(10%,10%,16%)" x1="279" x2="401" y1="473" y2="478" /><line stroke="rgb(10%,10%,16%)" x1="151" x2="196" y1="518" y2="294" /><line stroke="rgb(10%,10%,16%)" x1="377" x2="353" y1="402" y2="331" /><line stroke="rgb(10%,10%,16%)" x1="279" x2="353" y1="473" y2="331" /><line stroke="rgb(10%,10%,16%)" x1="196" x2="187" y1="294" y2="204" /><line stroke="rgb(10%,10%,16%)" x1="170" x2="302" y1="486" y2="289" /><line stroke="rgb(10%,10%,16%)" x1="401" x2="377" y1="478" y2="402" /><line stroke="rgb(10%,10%,16%)" x1="279" x2="302" y1="473" y2="289" /><line stroke="rgb(10%,10%,16%)" x1="196" x2="302" y1="294" y2="289" /><line stroke="rgb(10%,10%,16%)" x1="151" x2="401" y1="518" y2="478" /><line stroke="rgb(10%,10%,16%)" x1="353" x2="333" y1="331" y2="286" /><line stroke="rgb(10%,10%,16%)" x1="377" x2="437" y1="402" y2="312" /><line stroke="rgb(10%,10%,16%)" x1="353" x2="302" y1="331" y2="289" /><line stroke="rgb(10%,10%,16%)" x1="187" x2="165" y1="204" y2="157" /><line stroke="rgb(10%,10%,16%)" x1="196" x2="265" y1="294" y2="198" /><line stroke="rgb(10%,10%,16%)" x1="302" x2="333" y1="289" y2="286" /><line stroke="rgb(10%,10%,16%)" x1="377" x2="356" y1="402" y2="248" /><line stroke="rgb(10%,10%,16%)" x1="401" x2="531" y1="478" y2="525" /><line stroke="rgb(10%,10%,16%)" x1="302" x2="356" y1="289" y2="248" /><line stroke="rgb(10%,10%,16%)" x1="302" x2="283" y1="289" y2="208" /><line stroke="rgb(10%,10%,16%)" x1="196" x2="283" y1="294" y2="208" /><line stroke="rgb(10%,10%,16%)" x1="401" x2="437" y1="478" y2="312" /><line stroke="rgb(10%,10%,16%)" x1="151" x2="187" y1="518" y2="204" /><line stroke="rgb(10%,10%,16%)" x1="333" x2="356" y1="286" y2="248" /><line stroke="rgb(10%,10%,16%)" x1="353" x2="356" y1="331" y2="248" /><line stroke="rgb(10%,10%,16%)" x1="437" x2="497" y1="312" y2="241" /><line stroke="rgb(10%,10%,16%)" x1="377" x2="505" y1="402" y2="159" /><line stroke="rgb(10%,10%,16%)" x1="165" x2="126" y1="157" y2="164" /><line stroke="rgb(10%,10%,16%)" x1="187" x2="126" y1="204" y2="164" /><line stroke="rgb(10%,10%,16%)" x1="265" x2="283" y1="198" y2="208" /><line stroke="rgb(10%,10%,16%)" x1="356" x2="283" y1="248" y2="208" /><line stroke="rgb(10%,10%,16%)" x1="377" x2="537" y1="402" y2="138" /><line stroke="rgb(10%,10%,16%)" x1="531" x2="437" y1="525" y2="312" /><line stroke="rgb(10%,10%,16%)" x1="356" x2="265" y1="248" y2="198" /><line stroke="rgb(10%,10%,16%)" x1="437" x2="537" y1="312" y2="138" /><line stroke="rgb(10%,10%,16%)" x1="187" x2="265" y1="204" y2="198" /><line stroke="rgb(10%,10%,16%)" x1="151" x2="126" y1="518" y2="164" /><line stroke="rgb(10%,10%,16%)" x1="356" x2="505" y1="248" y2="159" /><line stroke="rgb(10%,10%,16%)" x1="356" x2="537" y1="248" y2="138" /><line stroke="rgb(10%,10%,16%)" x1="497" x2="537" y1="241" y2="138" /><line stroke="rgb(10%,10%,16%)" x1="505" x2="537" y1="159" y2="138" /><line stroke="rgb(10%,10%,16%)" x1="165" x2="265" y1="157" y2="198" /><line stroke="rgb(10%,10%,16%)" x1="265" x2="537" y1="198" y2="138" /><line stroke="rgb(10%,10%,16%)" x1="537" x2="165" y1="138" y2="157" /><line stroke="rgb(10%,10%,16%)" x1="531" x2="497" y1="525" y2="241" /><line stroke="rgb(10%,10%,16%)" x1="537" x2="531" y1="138" y2="525" /><line stroke="rgb(10%,10%,16%)" x1="151" x2="531" y1="518" y2="525" /><circle cx="333" cy="286" fill="blue" r="10" stroke="black" /><g font-size="12"><text x="329" y="291">0</text></g><circle cx="265" cy="198" fill="red" r="10" stroke="black" /><g font-size="12"><text x="261" y="203">1</text></g><circle cx="151" cy="518" fill="red" r="10" stroke="black" /><g font-size="12"><text x="147" y="523">2</text></g><circle cx="353" cy="331" fill="white" r="10" stroke="black" /><g font-size="12"><text x="349" y="336">3</text></g><circle cx="126" cy="164" fill="white" r="10" stroke="black" /><g font-size="12"><text x="122" y="169">4</text></g><circle cx="302" cy="289" fill="red" r="10" stroke="black" /><g font-size="12"><text x="298" y="294">5</text></g><circle cx="401" cy="478" fill="white" r="10" stroke="black" /><g font-size="12"><text x="397" y="483">6</text></g><circle cx="279" cy="473" fill="green" r="10" stroke="black" /><g font-size="12"><text x="275" y="478">7</text></g><circle cx="356" cy="248" fill="green" r="10" stroke="black" /><g font-size="12"><text x="352" y="253">8</text></g><circle cx="377" cy="402" fill="blue" r="10" stroke="black" /><g font-size="12"><text x="373" y="407">9</text></g><circle cx="187" cy="204" fill="blue" r="10" stroke="black" /><g font-size="12"><text x="183" y="209">10</text></g><circle cx="170" cy="486" fill="white" r="10" stroke="black" /><g font-size="12"><text x="166" y="491">11</text></g><circle cx="497" cy="241" fill="red" r="10" stroke="black" /><g font-size="12"><text x="493" y="246">12</text></g><circle cx="437" cy="312" fill="green" r="10" stroke="black" /><g font-size="12"><text x="433" y="317">13</text></g><circle cx="531" cy="525" fill="blue" r="10" stroke="black" /><g font-size="12"><text x="527" y="530">14</text></g><circle cx="505" cy="159" fill="red" r="10" stroke="black" /><g font-size="12"><text x="501" y="164">15</text></g><circle cx="165" cy="157" fill="green" r="10" stroke="black" /><g font-size="12"><text x="161" y="162">16</text></g><circle cx="537" cy="138" fill="white" r="10" stroke="black" /><g font-size="12"><text x="533" y="143">17</text></g><circle cx="196" cy="294" fill="green" r="10" stroke="black" /><g font-size="12"><text x="192" y="299">18</text></g><circle cx="283" cy="208" fill="white" r="10" stroke="black" /><g font-size="12"><text x="279" y="213">19</text></g></svg>