<?xml version="1.0" encoding="utf-8" ?>
<svg baseProfile="full" height="700" version="1.1" width="700" xmlns="http://www.w3.org/2000/svg" xmlns:ev="http://www.w3.org/2001/xml-events" xmlns:xlink="http://www.w3.org/1999/xlink"><defs /><line stroke="rgb(10%,10%,16%)" x1="582" x2="589" y1="416" y2="422" /><line stroke="rgb(10%,10%,16%)" x1="589" x2="577" y1="422" y2="374" /><line stroke="rgb(10%,10%,16%)" x1="582" x2="577" y1="416" y2="374" /><line stroke="rgb(10%,10%,16%)" x1="577" x2="591" y1="374" y2="343" /><line stroke="rgb(10%,10%,16%)" x1="589" x2="591" y1="422" y2="343" /><line stroke="rgb(10%,10%,16%)" x1="577" x2="513" y1="374" y2="333" /><line stroke="rgb(10%,10%,16%)" x1="582" x2="483" y1="416" y2="402" /><line stroke="rgb(10%,10%,16%)" x1="591" x2="513" y1="343" y2="333" /><line stroke="rgb(10%,10%,16%)" x1="577" x2="488" y1="374" y2="347" /><line stroke="rgb(10%,10%,16%)" x1="591" x2="584" y1="343" y2="200" /><line stroke="rgb(10%,10%,16%)" x1="589" x2="498" y1="422" y2="478" /><line stroke="rgb(10%,10%,16%)" x1="513" x2="488" y1="333" y2="347" /><line stroke="rgb(10%,10%,16%)" x1="577" x2="483" y1="374" y2="402" /><line stroke="rgb(10%,10%,16%)" x1="483" x2="488" y1="402" y2="347" /><line stroke="rgb(10%,10%,16%)" x1="582" x2="498" y1="416" y2="478" /><line stroke="rgb(10%,10%,16%)" x1="513" x2="423" y1="333" y2="346" /><line stroke="rgb(10%,10%,16%)" x1="591" x2="491" y1="343" y2="175" /><line stroke="rgb(10%,10%,16%)" x1="488" x2="423" y1="347" y2="346" /><line stroke="rgb(10%,10%,16%)" x1="584" x2="521" y1="200" y2="139" /><line stroke="rgb(10%,10%,16%)" x1="591" x2="425" y1="343" y2="231" /><line stroke="rgb(10%,10%,16%)" x1="498" x2="437" y1="478" y2="524" /><line stroke="rgb(10%,10%,16%)" x1="589" x2="548" y1="422" y2="580" /><line stroke="rgb(10%,10%,16%)" x1="488" x2="437" y1="347" y2="524" /><line stroke="rgb(10%,10%,16%)" x1="513" x2="425" y1="333" y2="231" /><line stroke="rgb(10%,10%,16%)" x1="483" x2="498" y1="402" y2="478" /><line stroke="rgb(10%,10%,16%)" x1="488" x2="359" y1="347" y2="488" /><line stroke="rgb(10%,10%,16%)" x1="483" x2="437" y1="402" y2="524" /><line stroke="rgb(10%,10%,16%)" x1="498" x2="548" y1="478" y2="580" /><line stroke="rgb(10%,10%,16%)" x1="423" x2="425" y1="346" y2="231" /><line stroke="rgb(10%,10%,16%)" x1="491" x2="521" y1="175" y2="139" /><line stroke="rgb(10%,10%,16%)" x1="591" x2="414" y1="343" y2="221" /><line stroke="rgb(10%,10%,16%)" x1="423" x2="414" y1="346" y2="221" /><line stroke="rgb(10%,10%,16%)" x1="488" x2="418" y1="347" y2="564" /><line stroke="rgb(10%,10%,16%)" x1="521" x2="429" y1="139" y2="113" /><line stroke="rgb(10%,10%,16%)" x1="584" x2="491" y1="200" y2="175" /><line stroke="rgb(10%,10%,16%)" x1="425" x2="414" y1="231" y2="221" /><line stroke="rgb(10%,10%,16%)" x1="591" x2="429" y1="343" y2="113" /><line stroke="rgb(10%,10%,16%)" x1="437" x2="418" y1="524" y2="564" /><line stroke="rgb(10%,10%,16%)" x1="498" x2="418" y1="478" y2="564" /><line stroke="rgb(10%,10%,16%)" x1="548" x2="418" y1="580" y2="564" /><line stroke="rgb(10%,10%,16%)" x1="488" x2="225" y1="347" y2="371" /><line stroke="rgb(10%,10%,16%)" x1="359" x2="418" y1="488" y2="564" /><line stroke="rgb(10%,10%,16%)" x1="488" x2="224" y1="347" y2="540" /><line stroke="rgb(10%,10%,16%)" x1="548" x2="190" y1="580" y2="550" /><line stroke="rgb(10%,10%,16%)" x1="423" x2="225" y1="346" y2="371" /><line stroke="rgb(10%,10%,16%)" x1="491" x2="429" y1="175" y2="113" /><line stroke="rgb(10%,10%,16%)" x1="414" x2="429" y1="221" y2="113" /><line stroke="rgb(10%,10%,16%)" x1="414" x2="260" y1="221" y2="109" /><line stroke="rgb(10%,10%,16%)" x1="423" x2="215" y1="346" y2="259" /><line stroke="rgb(10%,10%,16%)" x1="418" x2="224" y1="564" y2="540" /><line stroke="rgb(10%,10%,16%)" x1="488" x2="175" y1="347" y2="452" /><line stroke="rgb(10%,10%,16%)" x1="429" x2="260" y1="113" y2="109" /><line stroke="rgb(10%,10%,16%)" x1="414" x2="215" y1="221" y2="259" /><line stroke="rgb(10%,10%,16%)" x1="418" x2="190" y1="564" y2="550" /><line stroke="rgb(10%,10%,16%)" x1="548" x2="126" y1="580" y2="575" /><line stroke="rgb(10%,10%,16%)" x1="225" x2="159" y1="371" y2="387" /><line stroke="rgb(10%,10%,16%)" x1="488" x2="159" y1="347" y2="387" /><line stroke="rgb(10%,10%,16%)" x1="359" x2="224" y1="488" y2="540" /><line stroke="rgb(10%,10%,16%)" x1="224" x2="197" y1="540" y2="534" /><line stroke="rgb(10%,10%,16%)" x1="488" x2="197" y1="347" y2="534" /><line stroke="rgb(10%,10%,16%)" x1="190" x2="197" y1="550" y2="534" /><line stroke="rgb(10%,10%,16%)" x1="548" x2="121" y1="580" y2="563" /><line stroke="rgb(10%,10%,16%)" x1="225" x2="215" y1="371" y2="259" /><line stroke="rgb(10%,10%,16%)" x1="414" x2="102" y1="221" y2="233" /><line stroke="rgb(10%,10%,16%)" x1="260" x2="102" y1="109" y2="233" /><line stroke="rgb(10%,10%,16%)" x1="215" x2="102" y1="259" y2="233" /><line stroke="rgb(10%,10%,16%)" x1="224" x2="190" y1="540" y2="550" /><line stroke="rgb(10%,10%,16%)" x1="175" x2="159" y1="452" y2="387" /><line stroke="rgb(10%,10%,16%)" x1="488" x2="121" y1="347" y2="563" /><line stroke="rgb(10%,10%,16%)" x1="215" x2="159" y1="259" y2="387" /><line stroke="rgb(10%,10%,16%)" x1="190" x2="121" y1="550" y2="563" /><line stroke="rgb(10%,10%,16%)" x1="126" x2="121" y1="575" y2="563" /><line stroke="rgb(10%,10%,16%)" x1="159" x2="102" y1="387" y2="233" /><line stroke="rgb(10%,10%,16%)" x1="159" x2="121" y1="387" y2="563" /><line stroke="rgb(10%,10%,16%)" x1="197" x2="121" y1="534" y2="563" /><line stroke="rgb(10%,10%,16%)" x1="121" x2="175" y1="563" y2="452" /><line stroke="rgb(10%,10%,16%)" x1="102" x2="121" y1="233" y2="563" /><circle cx="491" cy="175" fill="green" r="10" stroke="black" /><g font-size="12"><text x="487" y="180">0</text></g><circle cx="159" cy="387" fill="green" r="10" stroke="black" /><g font-size="12"><text x="155" y="392">1</text></g><circle cx="225" cy="371" fill="red" r="10" stroke="black" /><g font-size="12"><text x="221" y="376">2</text></g><circle cx="437" cy="524" fill="blue" r="10" stroke="black" /><g font-size="12"><text x="433" y="529">3</text></g><circle cx="414" cy="221" fill="red" r="10" stroke="black" /><g font-size="12"><text x="410" y="226">4</text></g><circle cx="197" cy="534" fill="green" r="10" stroke="black" /><g font-size="12"><text x="193" y="539">5</text></g><circle cx="423" cy="346" fill="green" r="10" stroke="black" /><g font-size="12"><text x="419" y="351">6</text></g><circle cx="584" cy="200" fill="blue" r="10" stroke="black" /><g font-size="12"><text x="580" y="205">7</text></g><circle cx="175" cy="452" fill="blue" r="10" stroke="black" /><g font-size="12"><text x="171" y="457">8</text></g><circle cx="224" cy="540" fill="red" r="10" stroke="black" /><g font-size="12"><text x="220" y="545">9</text></g><circle cx="190" cy="550" fill="white" r="10" stroke="black" /><g font-size="12"><text x="186" y="555">10</text></g><circle cx="429" cy="113" fill="blue" r="10" stroke="black" /><g font-size="12"><text x="425" y="118">11</text></g><circle cx="359" cy="488" fill="blue" r="10" stroke="black" /><g font-size="12"><text x="355" y="493">12</text></g><circle cx="102" cy="233" fill="white" r="10" stroke="black" /><g font-size="12"><text x="98" y="238">13</text></g><circle cx="260" cy="109" fill="green" r="10" stroke="black" /><g font-size="12"><text x="256" y="114">14</text></g><circle cx="513" cy="333" fill="red" r="10" stroke="black" /><g font-size="12"><text x="509" y="338">15</text></g><circle cx="521" cy="139" fill="white" r="10" stroke="black" /><g font-size="12"><text x="517" y="144">16</text></g><circle cx="215" cy="259" fill="blue" r="10" stroke="black" /><g font-size="12"><text x="211" y="264">17</text></g><circle cx="121" cy="563" fill="red" r="10" stroke="black" /><g font-size="12"><text x="117" y="568">18</text></g><circle cx="591" cy="343" fill="white" r="10" stroke="black" /><g font-size="12"><text x="587" y="348">19</text></g><circle cx="582" cy="416" fill="green" r="10" stroke="black" /><g font-size="12"><text x="578" y="421">20</text></g><circle cx="483" cy="402" fill="red" r="10" stroke="black" /><g font-size="12"><text x="479" y="407">21</text></g><circle cx="425" cy="231" fill="blue" r="10" stroke="black" /><g font-size="12"><text x="421" y="236">22</text></g><circle cx="418" cy="564" fill="green" r="10" stroke="black" /><g font-size="12"><text x="414" y="569">23</text></g><circle cx="498" cy="478" fill="white" r="10" stroke="black" /><g font-size="12"><text x="494" y="483">24</text></g><circle cx="577" cy="374" fill="blue" r="10" stroke="black" /><g font-size="12"><text x="573" y="379">25</text></g><circle cx="126" cy="575" fill="white" r="10" stroke="black" /><g font-size="12"><text x="122" y="580">26</text></g><circle cx="548" cy="580" fill="blue" r="10" stroke="black" /><g font-size="12"><text x="544" y="585">27</text></g><circle cx="589" cy="422" fill="red" r="10" stroke="black" /><g font-size="12"><text x="585" y="427">28</text></g><circle cx="488" cy="347" fill="white" r="10" stroke="black" /><g font-size="12"><text x="484" y="352">29</text></g></svg>