<?xml version="1.0" encoding="utf-8" ?>
<svg baseProfile="full" height="700" version="1.1" width="700" xmlns="http://www.w3.org/2000/svg" xmlns:ev="http://www.w3.org/2001/xml-events" xmlns:xlink="http://www.w3.org/1999/xlink"><defs /><line stroke="rgb(10%,10%,16%)" x1="180" x2="138" y1="432" y2="504" /><line stroke="rgb(10%,10%,16%)" x1="138" x2="251" y1="504" y2="521" /><line stroke="rgb(10%,10%,16%)" x1="180" x2="155" y1="432" y2="340" /><line stroke="rgb(10%,10%,16%)" x1="251" x2="180" y1="521" y2="432" /><line stroke="rgb(10%,10%,16%)" x1="138" x2="123" y1="504" y2="354" /><line stroke="rgb(10%,10%,16%)" x1="155" x2="123" y1="340" y2="354" /><line stroke="rgb(10%,10%,16%)" x1="180" x2="123" y1="432" y2="354" /><line stroke="rgb(10%,10%,16%)" x1="180" x2="206" y1="432" y2="244" /><line stroke="rgb(10%,10%,16%)" x1="251" x2="497" y1="521" y2="536" /><line stroke="rgb(10%,10%,16%)" x1="123" x2="206" y1="354" y2="244" /><line stroke="rgb(10%,10%,16%)" x1="138" x2="554" y1="504" y2="588" /><line stroke="rgb(10%,10%,16%)" x1="123" x2="145" y1="354" y2="197" /><line stroke="rgb(10%,10%,16%)" x1="155" x2="206" y1="340" y2="244" /><line stroke="rgb(10%,10%,16%)" x1="123" x2="117" y1="354" y2="181" /><line stroke="rgb(10%,10%,16%)" x1="180" x2="497" y1="432" y2="536" /><line stroke="rgb(10%,10%,16%)" x1="206" x2="145" y1="244" y2="197" /><line stroke="rgb(10%,10%,16%)" x1="180" x2="394" y1="432" y2="153" /><line stroke="rgb(10%,10%,16%)" x1="497" x2="554" y1="536" y2="588" /><line stroke="rgb(10%,10%,16%)" x1="251" x2="554" y1="521" y2="588" /><line stroke="rgb(10%,10%,16%)" x1="206" x2="394" y1="244" y2="153" /><line stroke="rgb(10%,10%,16%)" x1="554" x2="581" y1="588" y2="367" /><line stroke="rgb(10%,10%,16%)" x1="145" x2="117" y1="197" y2="181" /><line stroke="rgb(10%,10%,16%)" x1="117" x2="394" y1="181" y2="153" /><line stroke="rgb(10%,10%,16%)" x1="497" x2="581" y1="536" y2="367" /><line stroke="rgb(10%,10%,16%)" x1="180" x2="540" y1="432" y2="345" /><line stroke="rgb(10%,10%,16%)" x1="145" x2="394" y1="197" y2="153" /><line stroke="rgb(10%,10%,16%)" x1="394" x2="509" y1="153" y2="123" /><line stroke="rgb(10%,10%,16%)" x1="180" x2="512" y1="432" y2="219" /><line stroke="rgb(10%,10%,16%)" x1="497" x2="540" y1="536" y2="345" /><line stroke="rgb(10%,10%,16%)" x1="394" x2="512" y1="153" y2="219" /><line stroke="rgb(10%,10%,16%)" x1="581" x2="540" y1="367" y2="345" /><line stroke="rgb(10%,10%,16%)" x1="117" x2="509" y1="181" y2="123" /><line stroke="rgb(10%,10%,16%)" x1="581" x2="512" y1="367" y2="219" /><line stroke="rgb(10%,10%,16%)" x1="540" x2="512" y1="345" y2="219" /><line stroke="rgb(10%,10%,16%)" x1="509" x2="512" y1="123" y2="219" /><line stroke="rgb(10%,10%,16%)" x1="581" x2="509" y1="367" y2="123" /><circle cx="497" cy="536" fill="red" r="10" stroke="black" /><g font-size="12"><text x="493" y="541">0</text></g><circle cx="509" cy="123" fill="white" r="10" stroke="black" /><g font-size="12"><text x="505" y="128">1</text></g><circle cx="512" cy="219" fill="red" r="10" stroke="black" /><g font-size="12"><text x="508" y="224">2</text></g><circle cx="117" cy="181" fill="green" r="10" stroke="black" /><g font-size="12"><text x="113" y="186">3</text></g><circle cx="206" cy="244" fill="white" r="10" stroke="black" /><g font-size="12"><text x="202" y="249">4</text></g><circle cx="180" cy="432" fill="green" r="10" stroke="black" /><g font-size="12"><text x="176" y="437">5</text></g><circle cx="251" cy="521" fill="white" r="10" stroke="black" /><g font-size="12"><text x="247" y="526">6</text></g><circle cx="123" cy="354" fill="blue" r="10" stroke="black" /><g font-size="12"><text x="119" y="359">7</text></g><circle cx="540" cy="345" fill="white" r="10" stroke="black" /><g font-size="12"><text x="536" y="350">8</text></g><circle cx="155" cy="340" fill="red" r="10" stroke="black" /><g font-size="12"><text x="151" y="345">9</text></g><circle cx="394" cy="153" fill="blue" r="10" stroke="black" /><g font-size="12"><text x="390" y="158">10</text></g><circle cx="138" cy="504" fill="red" r="10" stroke="black" /><g font-size="12"><text x="134" y="509">11</text></g><circle cx="145" cy="197" fill="red" r="10" stroke="black" /><g font-size="12"><text x="141" y="202">12</text></g><circle cx="554" cy="588" fill="blue" r="10" stroke="black" /><g font-size="12"><text x="550" y="593">13</text></g><circle cx="581" cy="367" fill="green" r="10" stroke="black" /><g font-size="12"><text x="577" y="372">14</text></g></svg>