<?xml version="1.0" encoding="utf-8" ?>
<svg baseProfile="full" height="700" version="1.1" width="700" xmlns="http://www.w3.org/2000/svg" xmlns:ev="http://www.w3.org/2001/xml-events" xmlns:xlink="http://www.w3.org/1999/xlink"><defs /><line stroke="rgb(10%,10%,16%)" x1="144" x2="184" y1="211" y2="183" /><line stroke="rgb(10%,10%,16%)" x1="184" x2="281" y1="183" y2="119" /><line stroke="rgb(10%,10%,16%)" x1="144" x2="164" y1="211" y2="307" /><line stroke="rgb(10%,10%,16%)" x1="281" x2="320" y1="119" y2="168" /><line stroke="rgb(10%,10%,16%)" x1="184" x2="300" y1="183" y2="218" /><line stroke="rgb(10%,10%,16%)" x1="164" x2="184" y1="307" y2="183" /><line stroke="rgb(10%,10%,16%)" x1="320" x2="300" y1="168" y2="218" /><line stroke="rgb(10%,10%,16%)" x1="281" x2="300" y1="119" y2="218" /><line stroke="rgb(10%,10%,16%)" x1="300" x2="297" y1="218" y2="292" /><line stroke="rgb(10%,10%,16%)" x1="184" x2="297" y1="183" y2="292" /><line stroke="rgb(10%,10%,16%)" x1="184" x2="306" y1="183" y2="499" /><line stroke="rgb(10%,10%,16%)" x1="164" x2="306" y1="307" y2="499" /><line stroke="rgb(10%,10%,16%)" x1="300" x2="462" y1="218" y2="161" /><line stroke="rgb(10%,10%,16%)" x1="320" x2="462" y1="168" y2="161" /><line stroke="rgb(10%,10%,16%)" x1="300" x2="463" y1="218" y2="315" /><line stroke="rgb(10%,10%,16%)" x1="281" x2="462" y1="119" y2="161" /><line stroke="rgb(10%,10%,16%)" x1="297" x2="434" y1="292" y2="358" /><line stroke="rgb(10%,10%,16%)" x1="300" x2="434" y1="218" y2="358" /><line stroke="rgb(10%,10%,16%)" x1="297" x2="306" y1="292" y2="499" /><line stroke="rgb(10%,10%,16%)" x1="306" x2="356" y1="499" y2="590" /><line stroke="rgb(10%,10%,16%)" x1="306" x2="434" y1="499" y2="358" /><line stroke="rgb(10%,10%,16%)" x1="164" x2="356" y1="307" y2="590" /><line stroke="rgb(10%,10%,16%)" x1="462" x2="463" y1="161" y2="315" /><line stroke="rgb(10%,10%,16%)" x1="300" x2="600" y1="218" y2="493" /><line stroke="rgb(10%,10%,16%)" x1="462" x2="567" y1="161" y2="353" /><line stroke="rgb(10%,10%,16%)" x1="463" x2="567" y1="315" y2="353" /><line stroke="rgb(10%,10%,16%)" x1="434" x2="600" y1="358" y2="493" /><line stroke="rgb(10%,10%,16%)" x1="434" x2="475" y1="358" y2="598" /><line stroke="rgb(10%,10%,16%)" x1="306" x2="475" y1="499" y2="598" /><line stroke="rgb(10%,10%,16%)" x1="356" x2="475" y1="590" y2="598" /><line stroke="rgb(10%,10%,16%)" x1="463" x2="600" y1="315" y2="493" /><line stroke="rgb(10%,10%,16%)" x1="600" x2="567" y1="493" y2="353" /><line stroke="rgb(10%,10%,16%)" x1="600" x2="475" y1="493" y2="598" /><circle cx="600" cy="493" fill="green" r="10" stroke="black" /><g font-size="12"><text x="596" y="498">0</text></g><circle cx="462" cy="161" fill="green" r="10" stroke="black" /><g font-size="12"><text x="458" y="166">1</text></g><circle cx="356" cy="590" fill="green" r="10" stroke="black" /><g font-size="12"><text x="352" y="595">2</text></g><circle cx="300" cy="218" fill="red" r="10" stroke="black" /><g font-size="12"><text x="296" y="223">3</text></g><circle cx="463" cy="315" fill="blue" r="10" stroke="black" /><g font-size="12"><text x="459" y="320">4</text></g><circle cx="320" cy="168" fill="white" r="10" stroke="black" /><g font-size="12"><text x="316" y="173">5</text></g><circle cx="434" cy="358" fill="white" r="10" stroke="black" /><g font-size="12"><text x="430" y="363">6</text></g><circle cx="475" cy="598" fill="blue" r="10" stroke="black" /><g font-size="12"><text x="471" y="603">7</text></g><circle cx="144" cy="211" fill="blue" r="10" stroke="black" /><g font-size="12"><text x="140" y="216">8</text></g><circle cx="184" cy="183" fill="green" r="10" stroke="black" /><g font-size="12"><text x="180" y="188">9</text></g><circle cx="306" cy="499" fill="red" r="10" stroke="black" /><g font-size="12"><text x="302" y="504">10</text></g><circle cx="297" cy="292" fill="blue" r="10" stroke="black" /><g font-size="12"><text x="293" y="297">11</text></g><circle cx="281" cy="119" fill="blue" r="10" stroke="black" /><g font-size="12"><text x="277" y="124">12</text></g><circle cx="567" cy="353" fill="white" r="10" stroke="black" /><g font-size="12"><text x="563" y="358">13</text></g><circle cx="164" cy="307" fill="white" r="10" stroke="black" /><g font-size="12"><text x="160" y="312">14</text></g></svg>