<?xml version="1.0" encoding="utf-8" ?>
<svg baseProfile="full" height="700" version="1.1" width="700" xmlns="http://www.w3.org/2000/svg" xmlns:ev="http://www.w3.org/2001/xml-events" xmlns:xlink="http://www.w3.org/1999/xlink"><defs /><line stroke="rgb(10%,10%,16%)" x1="232" x2="164" y1="459" y2="504" /><line stroke="rgb(10%,10%,16%)" x1="164" x2="171" y1="504" y2="582" /><line stroke="rgb(10%,10%,16%)" x1="232" x2="171" y1="459" y2="582" /><line stroke="rgb(10%,10%,16%)" x1="171" x2="409" y1="582" y2="536" /><line stroke="rgb(10%,10%,16%)" x1="164" x2="104" y1="504" y2="340" /><line stroke="rgb(10%,10%,16%)" x1="171" x2="104" y1="582" y2="340" /><line stroke="rgb(10%,10%,16%)" x1="232" x2="338" y1="459" y2="367" /><line stroke="rgb(10%,10%,16%)" x1="409" x2="373" y1="536" y2="423" /><line stroke="rgb(10%,10%,16%)" x1="171" x2="373" y1="582" y2="423" /><line stroke="rgb(10%,10%,16%)" x1="104" x2="193" y1="340" y2="271" /><line stroke="rgb(10%,10%,16%)" x1="164" x2="338" y1="504" y2="367" /><line stroke="rgb(10%,10%,16%)" x1="104" x2="309" y1="340" y2="278" /><line stroke="rgb(10%,10%,16%)" x1="171" x2="338" y1="582" y2="367" /><line stroke="rgb(10%,10%,16%)" x1="338" x2="334" y1="367" y2="342" /><line stroke="rgb(10%,10%,16%)" x1="373" x2="338" y1="423" y2="367" /><line stroke="rgb(10%,10%,16%)" x1="409" x2="574" y1="536" y2="474" /><line stroke="rgb(10%,10%,16%)" x1="373" x2="356" y1="423" y2="347" /><line stroke="rgb(10%,10%,16%)" x1="193" x2="309" y1="271" y2="278" /><line stroke="rgb(10%,10%,16%)" x1="104" x2="334" y1="340" y2="342" /><line stroke="rgb(10%,10%,16%)" x1="338" x2="356" y1="367" y2="347" /><line stroke="rgb(10%,10%,16%)" x1="164" x2="334" y1="504" y2="342" /><line stroke="rgb(10%,10%,16%)" x1="309" x2="334" y1="278" y2="342" /><line stroke="rgb(10%,10%,16%)" x1="338" x2="405" y1="367" y2="156" /><line stroke="rgb(10%,10%,16%)" x1="334" x2="405" y1="342" y2="156" /><line stroke="rgb(10%,10%,16%)" x1="338" x2="539" y1="367" y2="124" /><line stroke="rgb(10%,10%,16%)" x1="373" x2="520" y1="423" y2="279" /><line stroke="rgb(10%,10%,16%)" x1="574" x2="520" y1="474" y2="279" /><line stroke="rgb(10%,10%,16%)" x1="409" x2="520" y1="536" y2="279" /><line stroke="rgb(10%,10%,16%)" x1="356" x2="520" y1="347" y2="279" /><line stroke="rgb(10%,10%,16%)" x1="309" x2="405" y1="278" y2="156" /><line stroke="rgb(10%,10%,16%)" x1="193" x2="405" y1="271" y2="156" /><line stroke="rgb(10%,10%,16%)" x1="356" x2="539" y1="347" y2="124" /><line stroke="rgb(10%,10%,16%)" x1="405" x2="539" y1="156" y2="124" /><line stroke="rgb(10%,10%,16%)" x1="539" x2="520" y1="124" y2="279" /><line stroke="rgb(10%,10%,16%)" x1="574" x2="539" y1="474" y2="124" /><circle cx="232" cy="459" fill="white" r="10" stroke="black" /><g font-size="12"><text x="228" y="464">0</text></g><circle cx="520" cy="279" fill="white" r="10" stroke="black" /><g font-size="12"><text x="516" y="284">1</text></g><circle cx="334" cy="342" fill="white" r="10" stroke="black" /><g font-size="12"><text x="330" y="347">2</text></g><circle cx="171" cy="582" fill="blue" r="10" stroke="black" /><g font-size="12"><text x="167" y="587">3</text></g><circle cx="193" cy="271" fill="white" r="10" stroke="black" /><g font-size="12"><text x="189" y="276">4</text></g><circle cx="574" cy="474" fill="blue" r="10" stroke="black" /><g font-size="12"><text x="570" y="479">5</text></g><circle cx="309" cy="278" fill="red" r="10" stroke="black" /><g font-size="12"><text x="305" y="283">6</text></g><circle cx="405" cy="156" fill="blue" r="10" stroke="black" /><g font-size="12"><text x="401" y="161">7</text></g><circle cx="338" cy="367" fill="green" r="10" stroke="black" /><g font-size="12"><text x="334" y="372">8</text></g><circle cx="373" cy="423" fill="red" r="10" stroke="black" /><g font-size="12"><text x="369" y="428">9</text></g><circle cx="356" cy="347" fill="blue" r="10" stroke="black" /><g font-size="12"><text x="352" y="352">10</text></g><circle cx="164" cy="504" fill="red" r="10" stroke="black" /><g font-size="12"><text x="160" y="509">11</text></g><circle cx="104" cy="340" fill="green" r="10" stroke="black" /><g font-size="12"><text x="100" y="345">12</text></g><circle cx="539" cy="124" fill="red" r="10" stroke="black" /><g font-size="12"><text x="535" y="129">13</text></g><circle cx="409" cy="536" fill="green" r="10" stroke="black" /><g font-size="12"><text x="405" y="541">14</text></g></svg>