<?xml version="1.0" encoding="utf-8" ?>
<svg baseProfile="full" height="700" version="1.1" width="700" xmlns="http://www.w3.org/2000/svg" xmlns:ev="http://www.w3.org/2001/xml-events" xmlns:xlink="http://www.w3.org/1999/xlink"><defs /><line stroke="rgb(10%,10%,16%)" x1="437" x2="529" y1="398" y2="385" /><line stroke="rgb(10%,10%,16%)" x1="529" x2="425" y1="385" y2="518" /><line stroke="rgb(10%,10%,16%)" x1="437" x2="425" y1="398" y2="518" /><line stroke="rgb(10%,10%,16%)" x1="425" x2="327" y1="518" y2="519" /><line stroke="rgb(10%,10%,16%)" x1="529" x2="416" y1="385" y2="127" /><line stroke="rgb(10%,10%,16%)" x1="425" x2="246" y1="518" y2="538" /><line stroke="rgb(10%,10%,16%)" x1="437" x2="327" y1="398" y2="519" /><line stroke="rgb(10%,10%,16%)" x1="327" x2="246" y1="519" y2="538" /><line stroke="rgb(10%,10%,16%)" x1="425" x2="206" y1="518" y2="558" /><line stroke="rgb(10%,10%,16%)" x1="416" x2="256" y1="127" y2="258" /><line stroke="rgb(10%,10%,16%)" x1="529" x2="256" y1="385" y2="258" /><line stroke="rgb(10%,10%,16%)" x1="246" x2="206" y1="538" y2="558" /><line stroke="rgb(10%,10%,16%)" x1="327" x2="227" y1="519" y2="411" /><line stroke="rgb(10%,10%,16%)" x1="437" x2="227" y1="398" y2="411" /><line stroke="rgb(10%,10%,16%)" x1="246" x2="227" y1="538" y2="411" /><line stroke="rgb(10%,10%,16%)" x1="206" x2="227" y1="558" y2="411" /><line stroke="rgb(10%,10%,16%)" x1="256" x2="118" y1="258" y2="296" /><line stroke="rgb(10%,10%,16%)" x1="416" x2="118" y1="127" y2="296" /><line stroke="rgb(10%,10%,16%)" x1="256" x2="227" y1="258" y2="411" /><line stroke="rgb(10%,10%,16%)" x1="529" x2="227" y1="385" y2="411" /><line stroke="rgb(10%,10%,16%)" x1="206" x2="118" y1="558" y2="296" /><line stroke="rgb(10%,10%,16%)" x1="227" x2="118" y1="411" y2="296" /><circle cx="227" cy="411" fill="white" r="10" stroke="black" /><g font-size="12"><text x="223" y="416">0</text></g><circle cx="256" cy="258" fill="blue" r="10" stroke="black" /><g font-size="12"><text x="252" y="263">1</text></g><circle cx="425" cy="518" fill="white" r="10" stroke="black" /><g font-size="12"><text x="421" y="523">2</text></g><circle cx="416" cy="127" fill="white" r="10" stroke="black" /><g font-size="12"><text x="412" y="132">3</text></g><circle cx="118" cy="296" fill="red" r="10" stroke="black" /><g font-size="12"><text x="114" y="301">4</text></g><circle cx="437" cy="398" fill="blue" r="10" stroke="black" /><g font-size="12"><text x="433" y="403">5</text></g><circle cx="206" cy="558" fill="blue" r="10" stroke="black" /><g font-size="12"><text x="202" y="563">6</text></g><circle cx="246" cy="538" fill="red" r="10" stroke="black" /><g font-size="12"><text x="242" y="543">7</text></g><circle cx="529" cy="385" fill="red" r="10" stroke="black" /><g font-size="12"><text x="525" y="390">8</text></g><circle cx="327" cy="519" fill="green" r="10" stroke="black" /><g font-size="12"><text x="323" y="524">9</text></g></svg>