<?xml version="1.0" encoding="utf-8" ?>
<svg baseProfile="full" height="700" version="1.1" width="700" xmlns="http://www.w3.org/2000/svg" xmlns:ev="http://www.w3.org/2001/xml-events" xmlns:xlink="http://www.w3.org/1999/xlink"><defs /><line stroke="rgb(10%,10%,16%)" x1="401" x2="409" y1="471" y2="455" /><line stroke="rgb(10%,10%,16%)" x1="409" x2="389" y1="455" y2="428" /><line stroke="rgb(10%,10%,16%)" x1="401" x2="401" y1="471" y2="498" /><line stroke="rgb(10%,10%,16%)" x1="389" x2="378" y1="428" y2="403" /><line stroke="rgb(10%,10%,16%)" x1="409" x2="401" y1="455" y2="498" /><line stroke="rgb(10%,10%,16%)" x1="401" x2="442" y1="498" y2="508" /><line stroke="rgb(10%,10%,16%)" x1="401" x2="389" y1="471" y2="428" /><line stroke="rgb(10%,10%,16%)" x1="378" x2="339" y1="403" y2="426" /><line stroke="rgb(10%,10%,16%)" x1="389" x2="339" y1="428" y2="426" /><line stroke="rgb(10%,10%,16%)" x1="401" x2="348" y1="498" y2="517" /><line stroke="rgb(10%,10%,16%)" x1="409" x2="378" y1="455" y2="403" /><line stroke="rgb(10%,10%,16%)" x1="442" x2="474" y1="508" y2="508" /><line stroke="rgb(10%,10%,16%)" x1="401" x2="389" y1="498" y2="428" /><line stroke="rgb(10%,10%,16%)" x1="389" x2="319" y1="428" y2="484" /><line stroke="rgb(10%,10%,16%)" x1="339" x2="306" y1="426" y2="402" /><line stroke="rgb(10%,10%,16%)" x1="378" x2="306" y1="403" y2="402" /><line stroke="rgb(10%,10%,16%)" x1="339" x2="303" y1="426" y2="461" /><line stroke="rgb(10%,10%,16%)" x1="389" x2="303" y1="428" y2="461" /><line stroke="rgb(10%,10%,16%)" x1="348" x2="319" y1="517" y2="484" /><line stroke="rgb(10%,10%,16%)" x1="401" x2="474" y1="498" y2="508" /><line stroke="rgb(10%,10%,16%)" x1="378" x2="450" y1="403" y2="390" /><line stroke="rgb(10%,10%,16%)" x1="409" x2="480" y1="455" y2="456" /><line stroke="rgb(10%,10%,16%)" x1="474" x2="480" y1="508" y2="456" /><line stroke="rgb(10%,10%,16%)" x1="442" x2="348" y1="508" y2="517" /><line stroke="rgb(10%,10%,16%)" x1="389" x2="348" y1="428" y2="517" /><line stroke="rgb(10%,10%,16%)" x1="401" x2="480" y1="498" y2="456" /><line stroke="rgb(10%,10%,16%)" x1="319" x2="303" y1="484" y2="461" /><line stroke="rgb(10%,10%,16%)" x1="306" x2="271" y1="402" y2="440" /><line stroke="rgb(10%,10%,16%)" x1="339" x2="271" y1="426" y2="440" /><line stroke="rgb(10%,10%,16%)" x1="306" x2="216" y1="402" y2="465" /><line stroke="rgb(10%,10%,16%)" x1="378" x2="453" y1="403" y2="357" /><line stroke="rgb(10%,10%,16%)" x1="303" x2="271" y1="461" y2="440" /><line stroke="rgb(10%,10%,16%)" x1="303" x2="216" y1="461" y2="465" /><line stroke="rgb(10%,10%,16%)" x1="319" x2="216" y1="484" y2="465" /><line stroke="rgb(10%,10%,16%)" x1="348" x2="474" y1="517" y2="508" /><line stroke="rgb(10%,10%,16%)" x1="474" x2="500" y1="508" y2="413" /><line stroke="rgb(10%,10%,16%)" x1="450" x2="453" y1="390" y2="357" /><line stroke="rgb(10%,10%,16%)" x1="378" x2="480" y1="403" y2="456" /><line stroke="rgb(10%,10%,16%)" x1="480" x2="500" y1="456" y2="413" /><line stroke="rgb(10%,10%,16%)" x1="480" x2="450" y1="456" y2="390" /><line stroke="rgb(10%,10%,16%)" x1="474" x2="566" y1="508" y2="553" /><line stroke="rgb(10%,10%,16%)" x1="348" x2="216" y1="517" y2="465" /><line stroke="rgb(10%,10%,16%)" x1="348" x2="145" y1="517" y2="543" /><line stroke="rgb(10%,10%,16%)" x1="480" x2="453" y1="456" y2="357" /><line stroke="rgb(10%,10%,16%)" x1="271" x2="216" y1="440" y2="465" /><line stroke="rgb(10%,10%,16%)" x1="306" x2="185" y1="402" y2="376" /><line stroke="rgb(10%,10%,16%)" x1="216" x2="185" y1="465" y2="376" /><line stroke="rgb(10%,10%,16%)" x1="306" x2="295" y1="402" y2="262" /><line stroke="rgb(10%,10%,16%)" x1="453" x2="500" y1="357" y2="413" /><line stroke="rgb(10%,10%,16%)" x1="378" x2="333" y1="403" y2="259" /><line stroke="rgb(10%,10%,16%)" x1="216" x2="148" y1="465" y2="395" /><line stroke="rgb(10%,10%,16%)" x1="216" x2="145" y1="465" y2="543" /><line stroke="rgb(10%,10%,16%)" x1="474" x2="550" y1="508" y2="436" /><line stroke="rgb(10%,10%,16%)" x1="348" x2="566" y1="517" y2="553" /><line stroke="rgb(10%,10%,16%)" x1="500" x2="550" y1="413" y2="436" /><line stroke="rgb(10%,10%,16%)" x1="474" x2="591" y1="508" y2="410" /><line stroke="rgb(10%,10%,16%)" x1="453" x2="457" y1="357" y2="253" /><line stroke="rgb(10%,10%,16%)" x1="378" x2="295" y1="403" y2="262" /><line stroke="rgb(10%,10%,16%)" x1="500" x2="591" y1="413" y2="410" /><line stroke="rgb(10%,10%,16%)" x1="566" x2="591" y1="553" y2="410" /><line stroke="rgb(10%,10%,16%)" x1="216" x2="113" y1="465" y2="341" /><line stroke="rgb(10%,10%,16%)" x1="145" x2="148" y1="543" y2="395" /><line stroke="rgb(10%,10%,16%)" x1="453" x2="566" y1="357" y2="263" /><line stroke="rgb(10%,10%,16%)" x1="185" x2="201" y1="376" y2="307" /><line stroke="rgb(10%,10%,16%)" x1="306" x2="201" y1="402" y2="307" /><line stroke="rgb(10%,10%,16%)" x1="185" x2="113" y1="376" y2="341" /><line stroke="rgb(10%,10%,16%)" x1="295" x2="333" y1="262" y2="259" /><line stroke="rgb(10%,10%,16%)" x1="306" x2="147" y1="402" y2="238" /><line stroke="rgb(10%,10%,16%)" x1="500" x2="566" y1="413" y2="263" /><line stroke="rgb(10%,10%,16%)" x1="453" x2="533" y1="357" y2="229" /><line stroke="rgb(10%,10%,16%)" x1="333" x2="362" y1="259" y2="212" /><line stroke="rgb(10%,10%,16%)" x1="378" x2="457" y1="403" y2="253" /><line stroke="rgb(10%,10%,16%)" x1="148" x2="113" y1="395" y2="341" /><line stroke="rgb(10%,10%,16%)" x1="145" x2="113" y1="543" y2="341" /><line stroke="rgb(10%,10%,16%)" x1="550" x2="591" y1="436" y2="410" /><line stroke="rgb(10%,10%,16%)" x1="566" x2="145" y1="553" y2="543" /><line stroke="rgb(10%,10%,16%)" x1="591" x2="566" y1="410" y2="263" /><line stroke="rgb(10%,10%,16%)" x1="457" x2="533" y1="253" y2="229" /><line stroke="rgb(10%,10%,16%)" x1="295" x2="362" y1="262" y2="212" /><line stroke="rgb(10%,10%,16%)" x1="378" x2="362" y1="403" y2="212" /><line stroke="rgb(10%,10%,16%)" x1="591" x2="576" y1="410" y2="103" /><line stroke="rgb(10%,10%,16%)" x1="113" x2="201" y1="341" y2="307" /><line stroke="rgb(10%,10%,16%)" x1="566" x2="533" y1="263" y2="229" /><line stroke="rgb(10%,10%,16%)" x1="201" x2="147" y1="307" y2="238" /><line stroke="rgb(10%,10%,16%)" x1="306" x2="241" y1="402" y2="101" /><line stroke="rgb(10%,10%,16%)" x1="113" x2="147" y1="341" y2="238" /><line stroke="rgb(10%,10%,16%)" x1="295" x2="241" y1="262" y2="101" /><line stroke="rgb(10%,10%,16%)" x1="147" x2="129" y1="238" y2="108" /><line stroke="rgb(10%,10%,16%)" x1="306" x2="194" y1="402" y2="100" /><line stroke="rgb(10%,10%,16%)" x1="566" x2="496" y1="263" y2="151" /><line stroke="rgb(10%,10%,16%)" x1="533" x2="496" y1="229" y2="151" /><line stroke="rgb(10%,10%,16%)" x1="362" x2="457" y1="212" y2="253" /><line stroke="rgb(10%,10%,16%)" x1="457" x2="468" y1="253" y2="150" /><line stroke="rgb(10%,10%,16%)" x1="113" x2="129" y1="341" y2="108" /><line stroke="rgb(10%,10%,16%)" x1="566" x2="576" y1="263" y2="103" /><line stroke="rgb(10%,10%,16%)" x1="533" x2="468" y1="229" y2="150" /><line stroke="rgb(10%,10%,16%)" x1="457" x2="468" y1="253" y2="146" /><line stroke="rgb(10%,10%,16%)" x1="362" x2="468" y1="212" y2="146" /><line stroke="rgb(10%,10%,16%)" x1="362" x2="241" y1="212" y2="101" /><line stroke="rgb(10%,10%,16%)" x1="576" x2="496" y1="103" y2="151" /><line stroke="rgb(10%,10%,16%)" x1="533" x2="468" y1="229" y2="146" /><line stroke="rgb(10%,10%,16%)" x1="147" x2="194" y1="238" y2="100" /><line stroke="rgb(10%,10%,16%)" x1="241" x2="194" y1="101" y2="100" /><line stroke="rgb(10%,10%,16%)" x1="241" x2="468" y1="101" y2="146" /><line stroke="rgb(10%,10%,16%)" x1="129" x2="194" y1="108" y2="100" /><line stroke="rgb(10%,10%,16%)" x1="194" x2="576" y1="100" y2="103" /><line stroke="rgb(10%,10%,16%)" x1="496" x2="468" y1="151" y2="146" /><line stroke="rgb(10%,10%,16%)" x1="496" x2="241" y1="151" y2="101" /><line stroke="rgb(10%,10%,16%)" x1="468" x2="468" y1="150" y2="146" /><line stroke="rgb(10%,10%,16%)" x1="576" x2="241" y1="103" y2="101" /><circle cx="348" cy="517" fill="white" r="10" stroke="black" /><g font-size="12"><text x="344" y="522">0</text></g><circle cx="333" cy="259" fill="white" r="10" stroke="black" /><g font-size="12"><text x="329" y="264">1</text></g><circle cx="339" cy="426" fill="white" r="10" stroke="black" /><g font-size="12"><text x="335" y="431">2</text></g><circle cx="533" cy="229" fill="white" r="10" stroke="black" /><g font-size="12"><text x="529" y="234">3</text></g><circle cx="241" cy="101" fill="white" r="10" stroke="black" /><g font-size="12"><text x="237" y="106">4</text></g><circle cx="450" cy="390" fill="white" r="10" stroke="black" /><g font-size="12"><text x="446" y="395">5</text></g><circle cx="453" cy="357" fill="blue" r="10" stroke="black" /><g font-size="12"><text x="449" y="362">6</text></g><circle cx="271" cy="440" fill="red" r="10" stroke="black" /><g font-size="12"><text x="267" y="445">7</text></g><circle cx="319" cy="484" fill="red" r="10" stroke="black" /><g font-size="12"><text x="315" y="489">8</text></g><circle cx="216" cy="465" fill="green" r="10" stroke="black" /><g font-size="12"><text x="212" y="470">9</text></g><circle cx="409" cy="455" fill="white" r="10" stroke="black" /><g font-size="12"><text x="405" y="460">10</text></g><circle cx="480" cy="456" fill="green" r="10" stroke="black" /><g font-size="12"><text x="476" y="461">11</text></g><circle cx="468" cy="146" fill="red" r="10" stroke="black" /><g font-size="12"><text x="464" y="151">12</text></g><circle cx="185" cy="376" fill="white" r="10" stroke="black" /><g font-size="12"><text x="181" y="381">13</text></g><circle cx="389" cy="428" fill="green" r="10" stroke="black" /><g font-size="12"><text x="385" y="433">14</text></g><circle cx="148" cy="395" fill="white" r="10" stroke="black" /><g font-size="12"><text x="144" y="400">15</text></g><circle cx="194" cy="100" fill="red" r="10" stroke="black" /><g font-size="12"><text x="190" y="105">16</text></g><circle cx="474" cy="508" fill="red" r="10" stroke="black" /><g font-size="12"><text x="470" y="513">17</text></g><circle cx="496" cy="151" fill="green" r="10" stroke="black" /><g font-size="12"><text x="492" y="156">18</text></g><circle cx="378" cy="403" fill="red" r="10" stroke="black" /><g font-size="12"><text x="374" y="408">19</text></g><circle cx="401" cy="498" fill="blue" r="10" stroke="black" /><g font-size="12"><text x="397" y="503">20</text></g><circle cx="306" cy="402" fill="blue" r="10" stroke="black" /><g font-size="12"><text x="302" y="407">21</text></g><circle cx="500" cy="413" fill="white" r="10" stroke="black" /><g font-size="12"><text x="496" y="418">22</text></g><circle cx="457" cy="253" fill="green" r="10" stroke="black" /><g font-size="12"><text x="453" y="258">23</text></g><circle cx="295" cy="262" fill="green" r="10" stroke="black" /><g font-size="12"><text x="291" y="267">24</text></g><circle cx="303" cy="461" fill="blue" r="10" stroke="black" /><g font-size="12"><text x="299" y="466">25</text></g><circle cx="362" cy="212" fill="blue" r="10" stroke="black" /><g font-size="12"><text x="358" y="217">26</text></g><circle cx="550" cy="436" fill="blue" r="10" stroke="black" /><g font-size="12"><text x="546" y="441">27</text></g><circle cx="201" cy="307" fill="green" r="10" stroke="black" /><g font-size="12"><text x="197" y="312">28</text></g><circle cx="401" cy="471" fill="red" r="10" stroke="black" /><g font-size="12"><text x="397" y="476">29</text></g><circle cx="468" cy="150" fill="blue" r="10" stroke="black" /><g font-size="12"><text x="464" y="155">30</text></g><circle cx="566" cy="553" fill="blue" r="10" stroke="black" /><g font-size="12"><text x="562" y="558">31</text></g><circle cx="591" cy="410" fill="green" r="10" stroke="black" /><g font-size="12"><text x="587" y="415">32</text></g><circle cx="442" cy="508" fill="green" r="10" stroke="black" /><g font-size="12"><text x="438" y="513">33</text></g><circle cx="147" cy="238" fill="white" r="10" stroke="black" /><g font-size="12"><text x="143" y="243">34</text></g><circle cx="566" cy="263" fill="red" r="10" stroke="black" /><g font-size="12"><text x="562" y="268">35</text></g><circle cx="113" cy="341" fill="blue" r="10" stroke="black" /><g font-size="12"><text x="109" y="346">36</text></g><circle cx="129" cy="108" fill="green" r="10" stroke="black" /><g font-size="12"><text x="125" y="113">37</text></g><circle cx="576" cy="103" fill="blue" r="10" stroke="black" /><g font-size="12"><text x="572" y="108">38</text></g><circle cx="145" cy="543" fill="red" r="10" stroke="black" /><g font-size="12"><text x="141" y="548">39</text></g></svg>