<?xml version="1.0" encoding="utf-8" ?>
<svg baseProfile="full" height="700" version="1.1" width="700" xmlns="http://www.w3.org/2000/svg" xmlns:ev="http://www.w3.org/2001/xml-events" xmlns:xlink="http://www.w3.org/1999/xlink"><defs /><line stroke="rgb(10%,10%,16%)" x1="293" x2="268" y1="319" y2="340" /><line stroke="rgb(10%,10%,16%)" x1="268" x2="227" y1="340" y2="348" /><line stroke="rgb(10%,10%,16%)" x1="293" x2="258" y1="319" y2="295" /><line stroke="rgb(10%,10%,16%)" x1="227" x2="258" y1="348" y2="295" /><line stroke="rgb(10%,10%,16%)" x1="268" x2="258" y1="340" y2="295" /><line stroke="rgb(10%,10%,16%)" x1="258" x2="223" y1="295" y2="266" /><line stroke="rgb(10%,10%,16%)" x1="293" x2="291" y1="319" y2="261" /><line stroke="rgb(10%,10%,16%)" x1="258" x2="291" y1="295" y2="261" /><line stroke="rgb(10%,10%,16%)" x1="227" x2="223" y1="348" y2="266" /><line stroke="rgb(10%,10%,16%)" x1="258" x2="249" y1="295" y2="233" /><line stroke="rgb(10%,10%,16%)" x1="268" x2="356" y1="340" y2="358" /><line stroke="rgb(10%,10%,16%)" x1="223" x2="249" y1="266" y2="233" /><line stroke="rgb(10%,10%,16%)" x1="258" x2="373" y1="295" y2="107" /><line stroke="rgb(10%,10%,16%)" x1="291" x2="356" y1="261" y2="358" /><line stroke="rgb(10%,10%,16%)" x1="293" x2="356" y1="319" y2="358" /><line stroke="rgb(10%,10%,16%)" x1="291" x2="373" y1="261" y2="107" /><line stroke="rgb(10%,10%,16%)" x1="223" x2="240" y1="266" y2="177" /><line stroke="rgb(10%,10%,16%)" x1="227" x2="173" y1="348" y2="424" /><line stroke="rgb(10%,10%,16%)" x1="249" x2="240" y1="233" y2="177" /><line stroke="rgb(10%,10%,16%)" x1="356" x2="375" y1="358" y2="412" /><line stroke="rgb(10%,10%,16%)" x1="268" x2="324" y1="340" y2="431" /><line stroke="rgb(10%,10%,16%)" x1="249" x2="373" y1="233" y2="107" /><line stroke="rgb(10%,10%,16%)" x1="223" x2="100" y1="266" y2="216" /><line stroke="rgb(10%,10%,16%)" x1="373" x2="240" y1="107" y2="177" /><line stroke="rgb(10%,10%,16%)" x1="356" x2="427" y1="358" y2="391" /><line stroke="rgb(10%,10%,16%)" x1="291" x2="473" y1="261" y2="297" /><line stroke="rgb(10%,10%,16%)" x1="356" x2="324" y1="358" y2="431" /><line stroke="rgb(10%,10%,16%)" x1="373" x2="530" y1="107" y2="163" /><line stroke="rgb(10%,10%,16%)" x1="291" x2="427" y1="261" y2="391" /><line stroke="rgb(10%,10%,16%)" x1="240" x2="100" y1="177" y2="216" /><line stroke="rgb(10%,10%,16%)" x1="223" x2="105" y1="266" y2="329" /><line stroke="rgb(10%,10%,16%)" x1="173" x2="179" y1="424" y2="471" /><line stroke="rgb(10%,10%,16%)" x1="227" x2="105" y1="348" y2="329" /><line stroke="rgb(10%,10%,16%)" x1="375" x2="324" y1="412" y2="431" /><line stroke="rgb(10%,10%,16%)" x1="356" x2="469" y1="358" y2="513" /><line stroke="rgb(10%,10%,16%)" x1="324" x2="322" y1="431" y2="510" /><line stroke="rgb(10%,10%,16%)" x1="268" x2="173" y1="340" y2="424" /><line stroke="rgb(10%,10%,16%)" x1="373" x2="532" y1="107" y2="162" /><line stroke="rgb(10%,10%,16%)" x1="100" x2="105" y1="216" y2="329" /><line stroke="rgb(10%,10%,16%)" x1="373" x2="531" y1="107" y2="171" /><line stroke="rgb(10%,10%,16%)" x1="427" x2="506" y1="391" y2="355" /><line stroke="rgb(10%,10%,16%)" x1="356" x2="455" y1="358" y2="560" /><line stroke="rgb(10%,10%,16%)" x1="473" x2="506" y1="297" y2="355" /><line stroke="rgb(10%,10%,16%)" x1="291" x2="502" y1="261" y2="220" /><line stroke="rgb(10%,10%,16%)" x1="324" x2="393" y1="431" y2="498" /><line stroke="rgb(10%,10%,16%)" x1="356" x2="562" y1="358" y2="518" /><line stroke="rgb(10%,10%,16%)" x1="530" x2="532" y1="163" y2="162" /><line stroke="rgb(10%,10%,16%)" x1="373" x2="502" y1="107" y2="220" /><line stroke="rgb(10%,10%,16%)" x1="427" x2="523" y1="391" y2="408" /><line stroke="rgb(10%,10%,16%)" x1="291" x2="506" y1="261" y2="355" /><line stroke="rgb(10%,10%,16%)" x1="100" x2="373" y1="216" y2="107" /><line stroke="rgb(10%,10%,16%)" x1="105" x2="173" y1="329" y2="424" /><line stroke="rgb(10%,10%,16%)" x1="179" x2="228" y1="471" y2="482" /><line stroke="rgb(10%,10%,16%)" x1="173" x2="228" y1="424" y2="482" /><line stroke="rgb(10%,10%,16%)" x1="105" x2="179" y1="329" y2="471" /><line stroke="rgb(10%,10%,16%)" x1="324" x2="402" y1="431" y2="504" /><line stroke="rgb(10%,10%,16%)" x1="375" x2="402" y1="412" y2="504" /><line stroke="rgb(10%,10%,16%)" x1="469" x2="455" y1="513" y2="560" /><line stroke="rgb(10%,10%,16%)" x1="356" x2="523" y1="358" y2="570" /><line stroke="rgb(10%,10%,16%)" x1="322" x2="336" y1="510" y2="539" /><line stroke="rgb(10%,10%,16%)" x1="324" x2="336" y1="431" y2="539" /><line stroke="rgb(10%,10%,16%)" x1="173" x2="324" y1="424" y2="431" /><line stroke="rgb(10%,10%,16%)" x1="532" x2="538" y1="162" y2="166" /><line stroke="rgb(10%,10%,16%)" x1="373" x2="538" y1="107" y2="166" /><line stroke="rgb(10%,10%,16%)" x1="105" x2="125" y1="329" y2="539" /><line stroke="rgb(10%,10%,16%)" x1="531" x2="538" y1="171" y2="166" /><line stroke="rgb(10%,10%,16%)" x1="373" x2="580" y1="107" y2="260" /><line stroke="rgb(10%,10%,16%)" x1="506" x2="523" y1="355" y2="408" /><line stroke="rgb(10%,10%,16%)" x1="427" x2="553" y1="391" y2="423" /><line stroke="rgb(10%,10%,16%)" x1="455" x2="500" y1="560" y2="593" /><line stroke="rgb(10%,10%,16%)" x1="506" x2="553" y1="355" y2="423" /><line stroke="rgb(10%,10%,16%)" x1="473" x2="541" y1="297" y2="262" /><line stroke="rgb(10%,10%,16%)" x1="502" x2="541" y1="220" y2="262" /><line stroke="rgb(10%,10%,16%)" x1="291" x2="541" y1="261" y2="262" /><line stroke="rgb(10%,10%,16%)" x1="393" x2="402" y1="498" y2="504" /><line stroke="rgb(10%,10%,16%)" x1="324" x2="228" y1="431" y2="482" /><line stroke="rgb(10%,10%,16%)" x1="562" x2="523" y1="518" y2="570" /><line stroke="rgb(10%,10%,16%)" x1="530" x2="538" y1="163" y2="166" /><line stroke="rgb(10%,10%,16%)" x1="502" x2="580" y1="220" y2="260" /><line stroke="rgb(10%,10%,16%)" x1="523" x2="553" y1="408" y2="423" /><line stroke="rgb(10%,10%,16%)" x1="427" x2="562" y1="391" y2="518" /><line stroke="rgb(10%,10%,16%)" x1="506" x2="541" y1="355" y2="262" /><line stroke="rgb(10%,10%,16%)" x1="228" x2="322" y1="482" y2="510" /><line stroke="rgb(10%,10%,16%)" x1="179" x2="125" y1="471" y2="539" /><line stroke="rgb(10%,10%,16%)" x1="228" x2="125" y1="482" y2="539" /><line stroke="rgb(10%,10%,16%)" x1="402" x2="410" y1="504" y2="512" /><line stroke="rgb(10%,10%,16%)" x1="324" x2="455" y1="431" y2="560" /><line stroke="rgb(10%,10%,16%)" x1="402" x2="455" y1="504" y2="560" /><line stroke="rgb(10%,10%,16%)" x1="375" x2="410" y1="412" y2="512" /><line stroke="rgb(10%,10%,16%)" x1="455" x2="410" y1="560" y2="512" /><line stroke="rgb(10%,10%,16%)" x1="469" x2="523" y1="513" y2="570" /><line stroke="rgb(10%,10%,16%)" x1="523" x2="500" y1="570" y2="593" /><line stroke="rgb(10%,10%,16%)" x1="336" x2="455" y1="539" y2="560" /><line stroke="rgb(10%,10%,16%)" x1="322" x2="125" y1="510" y2="539" /><line stroke="rgb(10%,10%,16%)" x1="336" x2="500" y1="539" y2="593" /><line stroke="rgb(10%,10%,16%)" x1="538" x2="580" y1="166" y2="260" /><line stroke="rgb(10%,10%,16%)" x1="125" x2="336" y1="539" y2="539" /><line stroke="rgb(10%,10%,16%)" x1="531" x2="580" y1="171" y2="260" /><line stroke="rgb(10%,10%,16%)" x1="580" x2="541" y1="260" y2="262" /><line stroke="rgb(10%,10%,16%)" x1="506" x2="580" y1="355" y2="260" /><line stroke="rgb(10%,10%,16%)" x1="553" x2="562" y1="423" y2="518" /><line stroke="rgb(10%,10%,16%)" x1="500" x2="469" y1="593" y2="513" /><line stroke="rgb(10%,10%,16%)" x1="455" x2="393" y1="560" y2="498" /><line stroke="rgb(10%,10%,16%)" x1="553" x2="580" y1="423" y2="260" /><line stroke="rgb(10%,10%,16%)" x1="562" x2="580" y1="518" y2="260" /><line stroke="rgb(10%,10%,16%)" x1="125" x2="500" y1="539" y2="593" /><line stroke="rgb(10%,10%,16%)" x1="455" x2="375" y1="560" y2="412" /><circle cx="293" cy="319" fill="blue" r="10" stroke="black" /><g font-size="12"><text x="289" y="324">0</text></g><circle cx="227" cy="348" fill="blue" r="10" stroke="black" /><g font-size="12"><text x="223" y="353">1</text></g><circle cx="393" cy="498" fill="blue" r="10" stroke="black" /><g font-size="12"><text x="389" y="503">2</text></g><circle cx="105" cy="329" fill="red" r="10" stroke="black" /><g font-size="12"><text x="101" y="334">3</text></g><circle cx="125" cy="539" fill="green" r="10" stroke="black" /><g font-size="12"><text x="121" y="544">4</text></g><circle cx="410" cy="512" fill="green" r="10" stroke="black" /><g font-size="12"><text x="406" y="517">5</text></g><circle cx="523" cy="570" fill="green" r="10" stroke="black" /><g font-size="12"><text x="519" y="575">6</text></g><circle cx="356" cy="358" fill="white" r="10" stroke="black" /><g font-size="12"><text x="352" y="363">7</text></g><circle cx="373" cy="107" fill="red" r="10" stroke="black" /><g font-size="12"><text x="369" y="112">8</text></g><circle cx="223" cy="266" fill="green" r="10" stroke="black" /><g font-size="12"><text x="219" y="271">9</text></g><circle cx="179" cy="471" fill="blue" r="10" stroke="black" /><g font-size="12"><text x="175" y="476">10</text></g><circle cx="291" cy="261" fill="green" r="10" stroke="black" /><g font-size="12"><text x="287" y="266">11</text></g><circle cx="336" cy="539" fill="blue" r="10" stroke="black" /><g font-size="12"><text x="332" y="544">12</text></g><circle cx="502" cy="220" fill="white" r="10" stroke="black" /><g font-size="12"><text x="498" y="225">13</text></g><circle cx="249" cy="233" fill="blue" r="10" stroke="black" /><g font-size="12"><text x="245" y="238">14</text></g><circle cx="427" cy="391" fill="red" r="10" stroke="black" /><g font-size="12"><text x="423" y="396">15</text></g><circle cx="538" cy="166" fill="blue" r="10" stroke="black" /><g font-size="12"><text x="534" y="171">16</text></g><circle cx="530" cy="163" fill="white" r="10" stroke="black" /><g font-size="12"><text x="526" y="168">17</text></g><circle cx="228" cy="482" fill="red" r="10" stroke="black" /><g font-size="12"><text x="224" y="487">18</text></g><circle cx="580" cy="260" fill="green" r="10" stroke="black" /><g font-size="12"><text x="576" y="265">19</text></g><circle cx="532" cy="162" fill="green" r="10" stroke="black" /><g font-size="12"><text x="528" y="167">20</text></g><circle cx="541" cy="262" fill="red" r="10" stroke="black" /><g font-size="12"><text x="537" y="267">21</text></g><circle cx="469" cy="513" fill="blue" r="10" stroke="black" /><g font-size="12"><text x="465" y="518">22</text></g><circle cx="268" cy="340" fill="red" r="10" stroke="black" /><g font-size="12"><text x="264" y="345">23</text></g><circle cx="322" cy="510" fill="white" r="10" stroke="black" /><g font-size="12"><text x="318" y="515">24</text></g><circle cx="455" cy="560" fill="red" r="10" stroke="black" /><g font-size="12"><text x="451" y="565">25</text></g><circle cx="531" cy="171" fill="white" r="10" stroke="black" /><g font-size="12"><text x="527" y="176">26</text></g><circle cx="562" cy="518" fill="blue" r="10" stroke="black" /><g font-size="12"><text x="558" y="523">27</text></g><circle cx="100" cy="216" fill="blue" r="10" stroke="black" /><g font-size="12"><text x="96" y="221">28</text></g><circle cx="173" cy="424" fill="white" r="10" stroke="black" /><g font-size="12"><text x="169" y="429">29</text></g><circle cx="473" cy="297" fill="white" r="10" stroke="black" /><g font-size="12"><text x="469" y="302">30</text></g><circle cx="523" cy="408" fill="green" r="10" stroke="black" /><g font-size="12"><text x="519" y="413">31</text></g><circle cx="324" cy="431" fill="green" r="10" stroke="black" /><g font-size="12"><text x="320" y="436">32</text></g><circle cx="240" cy="177" fill="white" r="10" stroke="black" /><g font-size="12"><text x="236" y="182">33</text></g><circle cx="258" cy="295" fill="white" r="10" stroke="black" /><g font-size="12"><text x="254" y="300">34</text></g><circle cx="500" cy="593" fill="white" r="10" stroke="black" /><g font-size="12"><text x="496" y="598">35</text></g><circle cx="553" cy="423" fill="white" r="10" stroke="black" /><g font-size="12"><text x="549" y="428">36</text></g><circle cx="506" cy="355" fill="blue" r="10" stroke="black" /><g font-size="12"><text x="502" y="360">37</text></g><circle cx="402" cy="504" fill="white" r="10" stroke="black" /><g font-size="12"><text x="398" y="509">38</text></g><circle cx="375" cy="412" fill="blue" r="10" stroke="black" /><g font-size="12"><text x="371" y="417">39</text></g></svg>