<?xml version="1.0" encoding="utf-8" ?>
<svg baseProfile="full" height="700" version="1.1" width="700" xmlns="http://www.w3.org/2000/svg" xmlns:ev="http://www.w3.org/2001/xml-events" xmlns:xlink="http://www.w3.org/1999/xlink"><defs /><line stroke="rgb(10%,10%,16%)" x1="334" x2="313" y1="543" y2="498" /><line stroke="rgb(10%,10%,16%)" x1="313" x2="350" y1="498" y2="483" /><line stroke="rgb(10%,10%,16%)" x1="334" x2="350" y1="543" y2="483" /><line stroke="rgb(10%,10%,16%)" x1="350" x2="341" y1="483" y2="462" /><line stroke="rgb(10%,10%,16%)" x1="313" x2="341" y1="498" y2="462" /><line stroke="rgb(10%,10%,16%)" x1="350" x2="333" y1="483" y2="429" /><line stroke="rgb(10%,10%,16%)" x1="334" x2="419" y1="543" y2="524" /><line stroke="rgb(10%,10%,16%)" x1="341" x2="333" y1="462" y2="429" /><line stroke="rgb(10%,10%,16%)" x1="350" x2="419" y1="483" y2="524" /><line stroke="rgb(10%,10%,16%)" x1="341" x2="304" y1="462" y2="433" /><line stroke="rgb(10%,10%,16%)" x1="313" x2="304" y1="498" y2="433" /><line stroke="rgb(10%,10%,16%)" x1="333" x2="304" y1="429" y2="433" /><line stroke="rgb(10%,10%,16%)" x1="350" x2="326" y1="483" y2="310" /><line stroke="rgb(10%,10%,16%)" x1="419" x2="526" y1="524" y2="450" /><line stroke="rgb(10%,10%,16%)" x1="334" x2="174" y1="543" y2="598" /><line stroke="rgb(10%,10%,16%)" x1="333" x2="301" y1="429" y2="380" /><line stroke="rgb(10%,10%,16%)" x1="419" x2="530" y1="524" y2="438" /><line stroke="rgb(10%,10%,16%)" x1="350" x2="516" y1="483" y2="417" /><line stroke="rgb(10%,10%,16%)" x1="304" x2="301" y1="433" y2="380" /><line stroke="rgb(10%,10%,16%)" x1="304" x2="284" y1="433" y2="316" /><line stroke="rgb(10%,10%,16%)" x1="313" x2="145" y1="498" y2="514" /><line stroke="rgb(10%,10%,16%)" x1="304" x2="231" y1="433" y2="318" /><line stroke="rgb(10%,10%,16%)" x1="333" x2="326" y1="429" y2="310" /><line stroke="rgb(10%,10%,16%)" x1="326" x2="284" y1="310" y2="316" /><line stroke="rgb(10%,10%,16%)" x1="350" x2="530" y1="483" y2="438" /><line stroke="rgb(10%,10%,16%)" x1="526" x2="530" y1="450" y2="438" /><line stroke="rgb(10%,10%,16%)" x1="419" x2="591" y1="524" y2="596" /><line stroke="rgb(10%,10%,16%)" x1="174" x2="145" y1="598" y2="514" /><line stroke="rgb(10%,10%,16%)" x1="334" x2="145" y1="543" y2="514" /><line stroke="rgb(10%,10%,16%)" x1="301" x2="284" y1="380" y2="316" /><line stroke="rgb(10%,10%,16%)" x1="333" x2="284" y1="429" y2="316" /><line stroke="rgb(10%,10%,16%)" x1="530" x2="516" y1="438" y2="417" /><line stroke="rgb(10%,10%,16%)" x1="419" x2="174" y1="524" y2="598" /><line stroke="rgb(10%,10%,16%)" x1="516" x2="560" y1="417" y2="384" /><line stroke="rgb(10%,10%,16%)" x1="350" x2="383" y1="483" y2="269" /><line stroke="rgb(10%,10%,16%)" x1="304" x2="135" y1="433" y2="438" /><line stroke="rgb(10%,10%,16%)" x1="284" x2="231" y1="316" y2="318" /><line stroke="rgb(10%,10%,16%)" x1="304" x2="185" y1="433" y2="305" /><line stroke="rgb(10%,10%,16%)" x1="145" x2="135" y1="514" y2="438" /><line stroke="rgb(10%,10%,16%)" x1="313" x2="135" y1="498" y2="438" /><line stroke="rgb(10%,10%,16%)" x1="231" x2="185" y1="318" y2="305" /><line stroke="rgb(10%,10%,16%)" x1="304" x2="114" y1="433" y2="308" /><line stroke="rgb(10%,10%,16%)" x1="326" x2="362" y1="310" y2="259" /><line stroke="rgb(10%,10%,16%)" x1="284" x2="362" y1="316" y2="259" /><line stroke="rgb(10%,10%,16%)" x1="326" x2="383" y1="310" y2="269" /><line stroke="rgb(10%,10%,16%)" x1="530" x2="560" y1="438" y2="384" /><line stroke="rgb(10%,10%,16%)" x1="350" x2="560" y1="483" y2="384" /><line stroke="rgb(10%,10%,16%)" x1="530" x2="572" y1="438" y2="381" /><line stroke="rgb(10%,10%,16%)" x1="526" x2="572" y1="450" y2="381" /><line stroke="rgb(10%,10%,16%)" x1="591" x2="526" y1="596" y2="450" /><line stroke="rgb(10%,10%,16%)" x1="145" x2="114" y1="514" y2="308" /><line stroke="rgb(10%,10%,16%)" x1="174" x2="591" y1="598" y2="596" /><line stroke="rgb(10%,10%,16%)" x1="284" x2="185" y1="316" y2="305" /><line stroke="rgb(10%,10%,16%)" x1="284" x2="235" y1="316" y2="140" /><line stroke="rgb(10%,10%,16%)" x1="560" x2="572" y1="384" y2="381" /><line stroke="rgb(10%,10%,16%)" x1="383" x2="362" y1="269" y2="259" /><line stroke="rgb(10%,10%,16%)" x1="350" x2="438" y1="483" y2="246" /><line stroke="rgb(10%,10%,16%)" x1="135" x2="114" y1="438" y2="308" /><line stroke="rgb(10%,10%,16%)" x1="284" x2="163" y1="316" y2="150" /><line stroke="rgb(10%,10%,16%)" x1="185" x2="114" y1="305" y2="308" /><line stroke="rgb(10%,10%,16%)" x1="185" x2="119" y1="305" y2="193" /><line stroke="rgb(10%,10%,16%)" x1="114" x2="119" y1="308" y2="193" /><line stroke="rgb(10%,10%,16%)" x1="362" x2="438" y1="259" y2="246" /><line stroke="rgb(10%,10%,16%)" x1="362" x2="235" y1="259" y2="140" /><line stroke="rgb(10%,10%,16%)" x1="284" x2="119" y1="316" y2="193" /><line stroke="rgb(10%,10%,16%)" x1="383" x2="438" y1="269" y2="246" /><line stroke="rgb(10%,10%,16%)" x1="560" x2="490" y1="384" y2="269" /><line stroke="rgb(10%,10%,16%)" x1="560" x2="438" y1="384" y2="246" /><line stroke="rgb(10%,10%,16%)" x1="572" x2="490" y1="381" y2="269" /><line stroke="rgb(10%,10%,16%)" x1="572" x2="591" y1="381" y2="596" /><line stroke="rgb(10%,10%,16%)" x1="591" x2="577" y1="596" y2="104" /><line stroke="rgb(10%,10%,16%)" x1="235" x2="163" y1="140" y2="150" /><line stroke="rgb(10%,10%,16%)" x1="572" x2="577" y1="381" y2="104" /><line stroke="rgb(10%,10%,16%)" x1="362" x2="577" y1="259" y2="104" /><line stroke="rgb(10%,10%,16%)" x1="438" x2="490" y1="246" y2="269" /><line stroke="rgb(10%,10%,16%)" x1="163" x2="119" y1="150" y2="193" /><line stroke="rgb(10%,10%,16%)" x1="438" x2="577" y1="246" y2="104" /><line stroke="rgb(10%,10%,16%)" x1="235" x2="577" y1="140" y2="104" /><line stroke="rgb(10%,10%,16%)" x1="490" x2="577" y1="269" y2="104" /><circle cx="231" cy="318" fill="green" r="10" stroke="black" /><g font-size="12"><text x="227" y="323">0</text></g><circle cx="362" cy="259" fill="blue" r="10" stroke="black" /><g font-size="12"><text x="358" y="264">1</text></g><circle cx="185" cy="305" fill="white" r="10" stroke="black" /><g font-size="12"><text x="181" y="310">2</text></g><circle cx="419" cy="524" fill="white" r="10" stroke="black" /><g font-size="12"><text x="415" y="529">3</text></g><circle cx="516" cy="417" fill="white" r="10" stroke="black" /><g font-size="12"><text x="512" y="422">4</text></g><circle cx="163" cy="150" fill="white" r="10" stroke="black" /><g font-size="12"><text x="159" y="155">5</text></g><circle cx="350" cy="483" fill="blue" r="10" stroke="black" /><g font-size="12"><text x="346" y="488">6</text></g><circle cx="333" cy="429" fill="white" r="10" stroke="black" /><g font-size="12"><text x="329" y="434">7</text></g><circle cx="591" cy="596" fill="blue" r="10" stroke="black" /><g font-size="12"><text x="587" y="601">8</text></g><circle cx="572" cy="381" fill="white" r="10" stroke="black" /><g font-size="12"><text x="568" y="386">9</text></g><circle cx="560" cy="384" fill="red" r="10" stroke="black" /><g font-size="12"><text x="556" y="389">10</text></g><circle cx="383" cy="269" fill="white" r="10" stroke="black" /><g font-size="12"><text x="379" y="274">11</text></g><circle cx="526" cy="450" fill="red" r="10" stroke="black" /><g font-size="12"><text x="522" y="455">12</text></g><circle cx="145" cy="514" fill="white" r="10" stroke="black" /><g font-size="12"><text x="141" y="519">13</text></g><circle cx="284" cy="316" fill="red" r="10" stroke="black" /><g font-size="12"><text x="280" y="321">14</text></g><circle cx="341" cy="462" fill="green" r="10" stroke="black" /><g font-size="12"><text x="337" y="467">15</text></g><circle cx="577" cy="104" fill="red" r="10" stroke="black" /><g font-size="12"><text x="573" y="109">16</text></g><circle cx="135" cy="438" fill="green" r="10" stroke="black" /><g font-size="12"><text x="131" y="443">17</text></g><circle cx="313" cy="498" fill="red" r="10" stroke="black" /><g font-size="12"><text x="309" y="503">18</text></g><circle cx="334" cy="543" fill="green" r="10" stroke="black" /><g font-size="12"><text x="330" y="548">19</text></g><circle cx="174" cy="598" fill="red" r="10" stroke="black" /><g font-size="12"><text x="170" y="603">20</text></g><circle cx="235" cy="140" fill="green" r="10" stroke="black" /><g font-size="12"><text x="231" y="145">21</text></g><circle cx="438" cy="246" fill="green" r="10" stroke="black" /><g font-size="12"><text x="434" y="251">22</text></g><circle cx="326" cy="310" fill="green" r="10" stroke="black" /><g font-size="12"><text x="322" y="315">23</text></g><circle cx="114" cy="308" fill="red" r="10" stroke="black" /><g font-size="12"><text x="110" y="313">24</text></g><circle cx="530" cy="438" fill="green" r="10" stroke="black" /><g font-size="12"><text x="526" y="443">25</text></g><circle cx="304" cy="433" fill="blue" r="10" stroke="black" /><g font-size="12"><text x="300" y="438">26</text></g><circle cx="119" cy="193" fill="green" r="10" stroke="black" /><g font-size="12"><text x="115" y="198">27</text></g><circle cx="490" cy="269" fill="blue" r="10" stroke="black" /><g font-size="12"><text x="486" y="274">28</text></g><circle cx="301" cy="380" fill="green" r="10" stroke="black" /><g font-size="12"><text x="297" y="385">29</text></g></svg>