<?xml version="1.0" encoding="utf-8" ?>
<svg baseProfile="full" height="700" version="1.1" width="700" xmlns="http://www.w3.org/2000/svg" xmlns:ev="http://www.w3.org/2001/xml-events" xmlns:xlink="http://www.w3.org/1999/xlink"><defs /><line stroke="rgb(10%,10%,16%)" x1="311" x2="398" y1="552" y2="456" /><line stroke="rgb(10%,10%,16%)" x1="398" x2="392" y1="456" y2="389" /><line stroke="rgb(10%,10%,16%)" x1="311" x2="170" y1="552" y2="470" /><line stroke="rgb(10%,10%,16%)" x1="392" x2="392" y1="389" y2="349" /><line stroke="rgb(10%,10%,16%)" x1="398" x2="480" y1="456" y2="520" /><line stroke="rgb(10%,10%,16%)" x1="170" x2="112" y1="470" y2="374" /><line stroke="rgb(10%,10%,16%)" x1="311" x2="480" y1="552" y2="520" /><line stroke="rgb(10%,10%,16%)" x1="392" x2="463" y1="349" y2="370" /><line stroke="rgb(10%,10%,16%)" x1="392" x2="463" y1="389" y2="370" /><line stroke="rgb(10%,10%,16%)" x1="480" x2="492" y1="520" y2="559" /><line stroke="rgb(10%,10%,16%)" x1="398" x2="463" y1="456" y2="370" /><line stroke="rgb(10%,10%,16%)" x1="112" x2="174" y1="374" y2="356" /><line stroke="rgb(10%,10%,16%)" x1="170" x2="174" y1="470" y2="356" /><line stroke="rgb(10%,10%,16%)" x1="480" x2="515" y1="520" y2="558" /><line stroke="rgb(10%,10%,16%)" x1="311" x2="492" y1="552" y2="559" /><line stroke="rgb(10%,10%,16%)" x1="463" x2="494" y1="370" y2="365" /><line stroke="rgb(10%,10%,16%)" x1="392" x2="348" y1="349" y2="275" /><line stroke="rgb(10%,10%,16%)" x1="463" x2="510" y1="370" y2="373" /><line stroke="rgb(10%,10%,16%)" x1="392" x2="348" y1="389" y2="275" /><line stroke="rgb(10%,10%,16%)" x1="492" x2="515" y1="559" y2="558" /><line stroke="rgb(10%,10%,16%)" x1="480" x2="510" y1="520" y2="373" /><line stroke="rgb(10%,10%,16%)" x1="463" x2="426" y1="370" y2="257" /><line stroke="rgb(10%,10%,16%)" x1="398" x2="510" y1="456" y2="373" /><line stroke="rgb(10%,10%,16%)" x1="174" x2="244" y1="356" y2="272" /><line stroke="rgb(10%,10%,16%)" x1="112" x2="244" y1="374" y2="272" /><line stroke="rgb(10%,10%,16%)" x1="174" x2="348" y1="356" y2="275" /><line stroke="rgb(10%,10%,16%)" x1="170" x2="398" y1="470" y2="456" /><line stroke="rgb(10%,10%,16%)" x1="515" x2="510" y1="558" y2="373" /><line stroke="rgb(10%,10%,16%)" x1="494" x2="510" y1="365" y2="373" /><line stroke="rgb(10%,10%,16%)" x1="463" x2="348" y1="370" y2="275" /><line stroke="rgb(10%,10%,16%)" x1="348" x2="426" y1="275" y2="257" /><line stroke="rgb(10%,10%,16%)" x1="510" x2="426" y1="373" y2="257" /><line stroke="rgb(10%,10%,16%)" x1="348" x2="244" y1="275" y2="272" /><line stroke="rgb(10%,10%,16%)" x1="392" x2="174" y1="389" y2="356" /><line stroke="rgb(10%,10%,16%)" x1="515" x2="531" y1="558" y2="146" /><line stroke="rgb(10%,10%,16%)" x1="510" x2="531" y1="373" y2="146" /><line stroke="rgb(10%,10%,16%)" x1="426" x2="407" y1="257" y2="146" /><line stroke="rgb(10%,10%,16%)" x1="510" x2="407" y1="373" y2="146" /><line stroke="rgb(10%,10%,16%)" x1="398" x2="174" y1="456" y2="356" /><line stroke="rgb(10%,10%,16%)" x1="244" x2="280" y1="272" y2="150" /><line stroke="rgb(10%,10%,16%)" x1="244" x2="330" y1="272" y2="134" /><line stroke="rgb(10%,10%,16%)" x1="112" x2="280" y1="374" y2="150" /><line stroke="rgb(10%,10%,16%)" x1="348" x2="407" y1="275" y2="146" /><line stroke="rgb(10%,10%,16%)" x1="494" x2="426" y1="365" y2="257" /><line stroke="rgb(10%,10%,16%)" x1="348" x2="330" y1="275" y2="134" /><line stroke="rgb(10%,10%,16%)" x1="531" x2="407" y1="146" y2="146" /><line stroke="rgb(10%,10%,16%)" x1="531" x2="330" y1="146" y2="134" /><line stroke="rgb(10%,10%,16%)" x1="407" x2="330" y1="146" y2="134" /><line stroke="rgb(10%,10%,16%)" x1="280" x2="330" y1="150" y2="134" /><circle cx="330" cy="134" fill="blue" r="10" stroke="black" /><g font-size="12"><text x="326" y="139">0</text></g><circle cx="510" cy="373" fill="blue" r="10" stroke="black" /><g font-size="12"><text x="506" y="378">1</text></g><circle cx="174" cy="356" fill="blue" r="10" stroke="black" /><g font-size="12"><text x="170" y="361">2</text></g><circle cx="311" cy="552" fill="white" r="10" stroke="black" /><g font-size="12"><text x="307" y="557">3</text></g><circle cx="392" cy="389" fill="white" r="10" stroke="black" /><g font-size="12"><text x="388" y="394">4</text></g><circle cx="480" cy="520" fill="red" r="10" stroke="black" /><g font-size="12"><text x="476" y="525">5</text></g><circle cx="531" cy="146" fill="white" r="10" stroke="black" /><g font-size="12"><text x="527" y="151">6</text></g><circle cx="407" cy="146" fill="red" r="10" stroke="black" /><g font-size="12"><text x="403" y="151">7</text></g><circle cx="426" cy="257" fill="white" r="10" stroke="black" /><g font-size="12"><text x="422" y="262">8</text></g><circle cx="244" cy="272" fill="white" r="10" stroke="black" /><g font-size="12"><text x="240" y="277">9</text></g><circle cx="170" cy="470" fill="red" r="10" stroke="black" /><g font-size="12"><text x="166" y="475">10</text></g><circle cx="392" cy="349" fill="blue" r="10" stroke="black" /><g font-size="12"><text x="388" y="354">11</text></g><circle cx="494" cy="365" fill="green" r="10" stroke="black" /><g font-size="12"><text x="490" y="370">12</text></g><circle cx="398" cy="456" fill="green" r="10" stroke="black" /><g font-size="12"><text x="394" y="461">13</text></g><circle cx="280" cy="150" fill="red" r="10" stroke="black" /><g font-size="12"><text x="276" y="155">14</text></g><circle cx="515" cy="558" fill="green" r="10" stroke="black" /><g font-size="12"><text x="511" y="563">15</text></g><circle cx="492" cy="559" fill="blue" r="10" stroke="black" /><g font-size="12"><text x="488" y="564">16</text></g><circle cx="463" cy="370" fill="red" r="10" stroke="black" /><g font-size="12"><text x="459" y="375">17</text></g><circle cx="348" cy="275" fill="green" r="10" stroke="black" /><g font-size="12"><text x="344" y="280">18</text></g><circle cx="112" cy="374" fill="green" r="10" stroke="black" /><g font-size="12"><text x="108" y="379">19</text></g></svg>