<?xml version="1.0" encoding="utf-8" ?>
<svg baseProfile="full" height="700" version="1.1" width="700" xmlns="http://www.w3.org/2000/svg" xmlns:ev="http://www.w3.org/2001/xml-events" xmlns:xlink="http://www.w3.org/1999/xlink"><defs /><line stroke="rgb(10%,10%,16%)" x1="537" x2="508" y1="474" y2="465" /><line stroke="rgb(10%,10%,16%)" x1="508" x2="527" y1="465" y2="413" /><line stroke="rgb(10%,10%,16%)" x1="537" x2="552" y1="474" y2="510" /><line stroke="rgb(10%,10%,16%)" x1="527" x2="551" y1="413" y2="403" /><line stroke="rgb(10%,10%,16%)" x1="508" x2="552" y1="465" y2="510" /><line stroke="rgb(10%,10%,16%)" x1="552" x2="542" y1="510" y2="553" /><line stroke="rgb(10%,10%,16%)" x1="537" x2="575" y1="474" y2="449" /><line stroke="rgb(10%,10%,16%)" x1="551" x2="588" y1="403" y2="408" /><line stroke="rgb(10%,10%,16%)" x1="527" x2="575" y1="413" y2="449" /><line stroke="rgb(10%,10%,16%)" x1="552" x2="575" y1="510" y2="449" /><line stroke="rgb(10%,10%,16%)" x1="508" x2="575" y1="465" y2="449" /><line stroke="rgb(10%,10%,16%)" x1="542" x2="508" y1="553" y2="465" /><line stroke="rgb(10%,10%,16%)" x1="575" x2="588" y1="449" y2="408" /><line stroke="rgb(10%,10%,16%)" x1="588" x2="527" y1="408" y2="413" /><line stroke="rgb(10%,10%,16%)" x1="551" x2="577" y1="403" y2="338" /><line stroke="rgb(10%,10%,16%)" x1="575" x2="542" y1="449" y2="553" /><line stroke="rgb(10%,10%,16%)" x1="527" x2="467" y1="413" y2="406" /><line stroke="rgb(10%,10%,16%)" x1="508" x2="467" y1="465" y2="406" /><line stroke="rgb(10%,10%,16%)" x1="508" x2="282" y1="465" y2="423" /><line stroke="rgb(10%,10%,16%)" x1="542" x2="282" y1="553" y2="423" /><line stroke="rgb(10%,10%,16%)" x1="588" x2="577" y1="408" y2="338" /><line stroke="rgb(10%,10%,16%)" x1="527" x2="577" y1="413" y2="338" /><line stroke="rgb(10%,10%,16%)" x1="588" x2="598" y1="408" y2="219" /><line stroke="rgb(10%,10%,16%)" x1="577" x2="598" y1="338" y2="219" /><line stroke="rgb(10%,10%,16%)" x1="542" x2="217" y1="553" y2="595" /><line stroke="rgb(10%,10%,16%)" x1="467" x2="577" y1="406" y2="338" /><line stroke="rgb(10%,10%,16%)" x1="467" x2="282" y1="406" y2="423" /><line stroke="rgb(10%,10%,16%)" x1="282" x2="262" y1="423" y2="411" /><line stroke="rgb(10%,10%,16%)" x1="282" x2="218" y1="423" y2="374" /><line stroke="rgb(10%,10%,16%)" x1="577" x2="453" y1="338" y2="202" /><line stroke="rgb(10%,10%,16%)" x1="577" x2="465" y1="338" y2="124" /><line stroke="rgb(10%,10%,16%)" x1="598" x2="465" y1="219" y2="124" /><line stroke="rgb(10%,10%,16%)" x1="577" x2="413" y1="338" y2="146" /><line stroke="rgb(10%,10%,16%)" x1="217" x2="282" y1="595" y2="423" /><line stroke="rgb(10%,10%,16%)" x1="577" x2="373" y1="338" y2="185" /><line stroke="rgb(10%,10%,16%)" x1="467" x2="362" y1="406" y2="191" /><line stroke="rgb(10%,10%,16%)" x1="282" x2="167" y1="423" y2="342" /><line stroke="rgb(10%,10%,16%)" x1="467" x2="373" y1="406" y2="185" /><line stroke="rgb(10%,10%,16%)" x1="262" x2="167" y1="411" y2="342" /><line stroke="rgb(10%,10%,16%)" x1="282" x2="165" y1="423" y2="308" /><line stroke="rgb(10%,10%,16%)" x1="218" x2="167" y1="374" y2="342" /><line stroke="rgb(10%,10%,16%)" x1="282" x2="172" y1="423" y2="293" /><line stroke="rgb(10%,10%,16%)" x1="453" x2="413" y1="202" y2="146" /><line stroke="rgb(10%,10%,16%)" x1="577" x2="428" y1="338" y2="124" /><line stroke="rgb(10%,10%,16%)" x1="465" x2="428" y1="124" y2="124" /><line stroke="rgb(10%,10%,16%)" x1="577" x2="269" y1="338" y2="104" /><line stroke="rgb(10%,10%,16%)" x1="465" x2="269" y1="124" y2="104" /><line stroke="rgb(10%,10%,16%)" x1="413" x2="428" y1="146" y2="124" /><line stroke="rgb(10%,10%,16%)" x1="282" x2="154" y1="423" y2="282" /><line stroke="rgb(10%,10%,16%)" x1="217" x2="262" y1="595" y2="411" /><line stroke="rgb(10%,10%,16%)" x1="373" x2="362" y1="185" y2="191" /><line stroke="rgb(10%,10%,16%)" x1="362" x2="293" y1="191" y2="136" /><line stroke="rgb(10%,10%,16%)" x1="467" x2="172" y1="406" y2="293" /><line stroke="rgb(10%,10%,16%)" x1="167" x2="165" y1="342" y2="308" /><line stroke="rgb(10%,10%,16%)" x1="373" x2="293" y1="185" y2="136" /><line stroke="rgb(10%,10%,16%)" x1="467" x2="293" y1="406" y2="136" /><line stroke="rgb(10%,10%,16%)" x1="167" x2="154" y1="342" y2="282" /><line stroke="rgb(10%,10%,16%)" x1="165" x2="154" y1="308" y2="282" /><line stroke="rgb(10%,10%,16%)" x1="167" x2="217" y1="342" y2="595" /><line stroke="rgb(10%,10%,16%)" x1="218" x2="165" y1="374" y2="308" /><line stroke="rgb(10%,10%,16%)" x1="172" x2="154" y1="293" y2="282" /><line stroke="rgb(10%,10%,16%)" x1="413" x2="269" y1="146" y2="104" /><line stroke="rgb(10%,10%,16%)" x1="453" x2="269" y1="202" y2="104" /><line stroke="rgb(10%,10%,16%)" x1="428" x2="269" y1="124" y2="104" /><line stroke="rgb(10%,10%,16%)" x1="269" x2="245" y1="104" y2="117" /><line stroke="rgb(10%,10%,16%)" x1="269" x2="293" y1="104" y2="136" /><line stroke="rgb(10%,10%,16%)" x1="154" x2="185" y1="282" y2="250" /><line stroke="rgb(10%,10%,16%)" x1="217" x2="154" y1="595" y2="282" /><line stroke="rgb(10%,10%,16%)" x1="373" x2="269" y1="185" y2="104" /><line stroke="rgb(10%,10%,16%)" x1="293" x2="245" y1="136" y2="117" /><line stroke="rgb(10%,10%,16%)" x1="172" x2="185" y1="293" y2="250" /><line stroke="rgb(10%,10%,16%)" x1="467" x2="185" y1="406" y2="250" /><line stroke="rgb(10%,10%,16%)" x1="293" x2="184" y1="136" y2="123" /><line stroke="rgb(10%,10%,16%)" x1="293" x2="185" y1="136" y2="250" /><line stroke="rgb(10%,10%,16%)" x1="154" x2="184" y1="282" y2="123" /><line stroke="rgb(10%,10%,16%)" x1="154" x2="293" y1="282" y2="136" /><line stroke="rgb(10%,10%,16%)" x1="269" x2="184" y1="104" y2="123" /><line stroke="rgb(10%,10%,16%)" x1="245" x2="184" y1="117" y2="123" /><circle cx="542" cy="553" fill="green" r="10" stroke="black" /><g font-size="12"><text x="538" y="558">0</text></g><circle cx="373" cy="185" fill="red" r="10" stroke="black" /><g font-size="12"><text x="369" y="190">1</text></g><circle cx="282" cy="423" fill="red" r="10" stroke="black" /><g font-size="12"><text x="278" y="428">2</text></g><circle cx="218" cy="374" fill="green" r="10" stroke="black" /><g font-size="12"><text x="214" y="379">3</text></g><circle cx="293" cy="136" fill="blue" r="10" stroke="black" /><g font-size="12"><text x="289" y="141">4</text></g><circle cx="184" cy="123" fill="red" r="10" stroke="black" /><g font-size="12"><text x="180" y="128">5</text></g><circle cx="245" cy="117" fill="white" r="10" stroke="black" /><g font-size="12"><text x="241" y="122">6</text></g><circle cx="527" cy="413" fill="green" r="10" stroke="black" /><g font-size="12"><text x="523" y="418">7</text></g><circle cx="413" cy="146" fill="red" r="10" stroke="black" /><g font-size="12"><text x="409" y="151">8</text></g><circle cx="575" cy="449" fill="red" r="10" stroke="black" /><g font-size="12"><text x="571" y="454">9</text></g><circle cx="577" cy="338" fill="blue" r="10" stroke="black" /><g font-size="12"><text x="573" y="343">10</text></g><circle cx="465" cy="124" fill="red" r="10" stroke="black" /><g font-size="12"><text x="461" y="129">11</text></g><circle cx="262" cy="411" fill="green" r="10" stroke="black" /><g font-size="12"><text x="258" y="416">12</text></g><circle cx="467" cy="406" fill="white" r="10" stroke="black" /><g font-size="12"><text x="463" y="411">13</text></g><circle cx="362" cy="191" fill="green" r="10" stroke="black" /><g font-size="12"><text x="358" y="196">14</text></g><circle cx="172" cy="293" fill="blue" r="10" stroke="black" /><g font-size="12"><text x="168" y="298">15</text></g><circle cx="588" cy="408" fill="white" r="10" stroke="black" /><g font-size="12"><text x="584" y="413">16</text></g><circle cx="598" cy="219" fill="green" r="10" stroke="black" /><g font-size="12"><text x="594" y="224">17</text></g><circle cx="269" cy="104" fill="green" r="10" stroke="black" /><g font-size="12"><text x="265" y="109">18</text></g><circle cx="185" cy="250" fill="red" r="10" stroke="black" /><g font-size="12"><text x="181" y="255">19</text></g><circle cx="167" cy="342" fill="white" r="10" stroke="black" /><g font-size="12"><text x="163" y="347">20</text></g><circle cx="552" cy="510" fill="white" r="10" stroke="black" /><g font-size="12"><text x="548" y="515">21</text></g><circle cx="537" cy="474" fill="green" r="10" stroke="black" /><g font-size="12"><text x="533" y="479">22</text></g><circle cx="428" cy="124" fill="white" r="10" stroke="black" /><g font-size="12"><text x="424" y="129">23</text></g><circle cx="453" cy="202" fill="white" r="10" stroke="black" /><g font-size="12"><text x="449" y="207">24</text></g><circle cx="165" cy="308" fill="blue" r="10" stroke="black" /><g font-size="12"><text x="161" y="313">25</text></g><circle cx="217" cy="595" fill="blue" r="10" stroke="black" /><g font-size="12"><text x="213" y="600">26</text></g><circle cx="551" cy="403" fill="red" r="10" stroke="black" /><g font-size="12"><text x="547" y="408">27</text></g><circle cx="508" cy="465" fill="blue" r="10" stroke="black" /><g font-size="12"><text x="504" y="470">28</text></g><circle cx="154" cy="282" fill="green" r="10" stroke="black" /><g font-size="12"><text x="150" y="287">29</text></g></svg>