<?xml version="1.0" encoding="utf-8" ?>
<svg baseProfile="full" height="700" version="1.1" width="700" xmlns="http://www.w3.org/2000/svg" xmlns:ev="http://www.w3.org/2001/xml-events" xmlns:xlink="http://www.w3.org/1999/xlink"><defs /><line stroke="rgb(10%,10%,16%)" x1="142" x2="129" y1="490" y2="465" /><line stroke="rgb(10%,10%,16%)" x1="129" x2="211" y1="465" y2="424" /><line stroke="rgb(10%,10%,16%)" x1="142" x2="211" y1="490" y2="424" /><line stroke="rgb(10%,10%,16%)" x1="211" x2="336" y1="424" y2="461" /><line stroke="rgb(10%,10%,16%)" x1="129" x2="188" y1="465" y2="221" /><line stroke="rgb(10%,10%,16%)" x1="211" x2="358" y1="424" y2="371" /><line stroke="rgb(10%,10%,16%)" x1="142" x2="336" y1="490" y2="461" /><line stroke="rgb(10%,10%,16%)" x1="336" x2="358" y1="461" y2="371" /><line stroke="rgb(10%,10%,16%)" x1="211" x2="376" y1="424" y2="307" /><line stroke="rgb(10%,10%,16%)" x1="188" x2="124" y1="221" y2="188" /><line stroke="rgb(10%,10%,16%)" x1="129" x2="124" y1="465" y2="188" /><line stroke="rgb(10%,10%,16%)" x1="358" x2="376" y1="371" y2="307" /><line stroke="rgb(10%,10%,16%)" x1="211" x2="188" y1="424" y2="221" /><line stroke="rgb(10%,10%,16%)" x1="336" x2="449" y1="461" y2="489" /><line stroke="rgb(10%,10%,16%)" x1="142" x2="397" y1="490" y2="598" /><line stroke="rgb(10%,10%,16%)" x1="358" x2="420" y1="371" y2="300" /><line stroke="rgb(10%,10%,16%)" x1="336" x2="437" y1="461" y2="563" /><line stroke="rgb(10%,10%,16%)" x1="376" x2="420" y1="307" y2="300" /><line stroke="rgb(10%,10%,16%)" x1="211" x2="523" y1="424" y2="110" /><line stroke="rgb(10%,10%,16%)" x1="124" x2="523" y1="188" y2="110" /><line stroke="rgb(10%,10%,16%)" x1="188" x2="523" y1="221" y2="110" /><line stroke="rgb(10%,10%,16%)" x1="376" x2="523" y1="307" y2="110" /><line stroke="rgb(10%,10%,16%)" x1="358" x2="449" y1="371" y2="489" /><line stroke="rgb(10%,10%,16%)" x1="449" x2="493" y1="489" y2="540" /><line stroke="rgb(10%,10%,16%)" x1="336" x2="397" y1="461" y2="598" /><line stroke="rgb(10%,10%,16%)" x1="397" x2="437" y1="598" y2="563" /><line stroke="rgb(10%,10%,16%)" x1="420" x2="508" y1="300" y2="355" /><line stroke="rgb(10%,10%,16%)" x1="358" x2="508" y1="371" y2="355" /><line stroke="rgb(10%,10%,16%)" x1="437" x2="493" y1="563" y2="540" /><line stroke="rgb(10%,10%,16%)" x1="336" x2="493" y1="461" y2="540" /><line stroke="rgb(10%,10%,16%)" x1="420" x2="523" y1="300" y2="110" /><line stroke="rgb(10%,10%,16%)" x1="523" x2="508" y1="110" y2="355" /><line stroke="rgb(10%,10%,16%)" x1="523" x2="528" y1="110" y2="394" /><line stroke="rgb(10%,10%,16%)" x1="523" x2="512" y1="110" y2="443" /><line stroke="rgb(10%,10%,16%)" x1="523" x2="539" y1="110" y2="451" /><line stroke="rgb(10%,10%,16%)" x1="449" x2="515" y1="489" y2="522" /><line stroke="rgb(10%,10%,16%)" x1="358" x2="512" y1="371" y2="443" /><line stroke="rgb(10%,10%,16%)" x1="493" x2="515" y1="540" y2="522" /><line stroke="rgb(10%,10%,16%)" x1="449" x2="512" y1="489" y2="443" /><line stroke="rgb(10%,10%,16%)" x1="397" x2="493" y1="598" y2="540" /><line stroke="rgb(10%,10%,16%)" x1="397" x2="577" y1="598" y2="534" /><line stroke="rgb(10%,10%,16%)" x1="508" x2="512" y1="355" y2="443" /><line stroke="rgb(10%,10%,16%)" x1="493" x2="577" y1="540" y2="534" /><line stroke="rgb(10%,10%,16%)" x1="523" x2="515" y1="110" y2="522" /><line stroke="rgb(10%,10%,16%)" x1="523" x2="577" y1="110" y2="534" /><line stroke="rgb(10%,10%,16%)" x1="528" x2="539" y1="394" y2="451" /><line stroke="rgb(10%,10%,16%)" x1="512" x2="515" y1="443" y2="522" /><line stroke="rgb(10%,10%,16%)" x1="539" x2="515" y1="451" y2="522" /><line stroke="rgb(10%,10%,16%)" x1="515" x2="577" y1="522" y2="534" /><line stroke="rgb(10%,10%,16%)" x1="515" x2="528" y1="522" y2="394" /><line stroke="rgb(10%,10%,16%)" x1="577" x2="539" y1="534" y2="451" /><circle cx="437" cy="563" fill="green" r="10" stroke="black" /><g font-size="12"><text x="433" y="568">0</text></g><circle cx="577" cy="534" fill="white" r="10" stroke="black" /><g font-size="12"><text x="573" y="539">1</text></g><circle cx="512" cy="443" fill="white" r="10" stroke="black" /><g font-size="12"><text x="508" y="448">2</text></g><circle cx="188" cy="221" fill="white" r="10" stroke="black" /><g font-size="12"><text x="184" y="226">3</text></g><circle cx="376" cy="307" fill="white" r="10" stroke="black" /><g font-size="12"><text x="372" y="312">4</text></g><circle cx="420" cy="300" fill="green" r="10" stroke="black" /><g font-size="12"><text x="416" y="305">5</text></g><circle cx="528" cy="394" fill="white" r="10" stroke="black" /><g font-size="12"><text x="524" y="399">6</text></g><circle cx="336" cy="461" fill="white" r="10" stroke="black" /><g font-size="12"><text x="332" y="466">7</text></g><circle cx="523" cy="110" fill="blue" r="10" stroke="black" /><g font-size="12"><text x="519" y="115">8</text></g><circle cx="493" cy="540" fill="blue" r="10" stroke="black" /><g font-size="12"><text x="489" y="545">9</text></g><circle cx="129" cy="465" fill="red" r="10" stroke="black" /><g font-size="12"><text x="125" y="470">10</text></g><circle cx="515" cy="522" fill="red" r="10" stroke="black" /><g font-size="12"><text x="511" y="527">11</text></g><circle cx="539" cy="451" fill="green" r="10" stroke="black" /><g font-size="12"><text x="535" y="456">12</text></g><circle cx="124" cy="188" fill="green" r="10" stroke="black" /><g font-size="12"><text x="120" y="193">13</text></g><circle cx="211" cy="424" fill="green" r="10" stroke="black" /><g font-size="12"><text x="207" y="429">14</text></g><circle cx="397" cy="598" fill="red" r="10" stroke="black" /><g font-size="12"><text x="393" y="603">15</text></g><circle cx="142" cy="490" fill="blue" r="10" stroke="black" /><g font-size="12"><text x="138" y="495">16</text></g><circle cx="508" cy="355" fill="red" r="10" stroke="black" /><g font-size="12"><text x="504" y="360">17</text></g><circle cx="449" cy="489" fill="green" r="10" stroke="black" /><g font-size="12"><text x="445" y="494">18</text></g><circle cx="358" cy="371" fill="blue" r="10" stroke="black" /><g font-size="12"><text x="354" y="376">19</text></g></svg>