<?xml version="1.0" encoding="utf-8" ?>
<svg baseProfile="full" height="700" version="1.1" width="700" xmlns="http://www.w3.org/2000/svg" xmlns:ev="http://www.w3.org/2001/xml-events" xmlns:xlink="http://www.w3.org/1999/xlink"><defs /><line stroke="rgb(10%,10%,16%)" x1="352" x2="292" y1="508" y2="493" /><line stroke="rgb(10%,10%,16%)" x1="292" x2="254" y1="493" y2="511" /><line stroke="rgb(10%,10%,16%)" x1="352" x2="357" y1="508" y2="599" /><line stroke="rgb(10%,10%,16%)" x1="254" x2="293" y1="511" y2="428" /><line stroke="rgb(10%,10%,16%)" x1="292" x2="293" y1="493" y2="428" /><line stroke="rgb(10%,10%,16%)" x1="357" x2="292" y1="599" y2="493" /><line stroke="rgb(10%,10%,16%)" x1="352" x2="293" y1="508" y2="428" /><line stroke="rgb(10%,10%,16%)" x1="293" x2="309" y1="428" y2="403" /><line stroke="rgb(10%,10%,16%)" x1="254" x2="230" y1="511" y2="401" /><line stroke="rgb(10%,10%,16%)" x1="293" x2="230" y1="428" y2="401" /><line stroke="rgb(10%,10%,16%)" x1="357" x2="254" y1="599" y2="511" /><line stroke="rgb(10%,10%,16%)" x1="293" x2="329" y1="428" y2="344" /><line stroke="rgb(10%,10%,16%)" x1="352" x2="309" y1="508" y2="403" /><line stroke="rgb(10%,10%,16%)" x1="309" x2="329" y1="403" y2="344" /><line stroke="rgb(10%,10%,16%)" x1="293" x2="260" y1="428" y2="341" /><line stroke="rgb(10%,10%,16%)" x1="230" x2="187" y1="401" y2="402" /><line stroke="rgb(10%,10%,16%)" x1="254" x2="187" y1="511" y2="402" /><line stroke="rgb(10%,10%,16%)" x1="230" x2="260" y1="401" y2="341" /><line stroke="rgb(10%,10%,16%)" x1="293" x2="327" y1="428" y2="290" /><line stroke="rgb(10%,10%,16%)" x1="254" x2="104" y1="511" y2="317" /><line stroke="rgb(10%,10%,16%)" x1="357" x2="430" y1="599" y2="421" /><line stroke="rgb(10%,10%,16%)" x1="329" x2="327" y1="344" y2="290" /><line stroke="rgb(10%,10%,16%)" x1="309" x2="430" y1="403" y2="421" /><line stroke="rgb(10%,10%,16%)" x1="352" x2="430" y1="508" y2="421" /><line stroke="rgb(10%,10%,16%)" x1="329" x2="344" y1="344" y2="227" /><line stroke="rgb(10%,10%,16%)" x1="309" x2="419" y1="403" y2="236" /><line stroke="rgb(10%,10%,16%)" x1="260" x2="217" y1="341" y2="297" /><line stroke="rgb(10%,10%,16%)" x1="187" x2="163" y1="402" y2="337" /><line stroke="rgb(10%,10%,16%)" x1="230" x2="163" y1="401" y2="337" /><line stroke="rgb(10%,10%,16%)" x1="187" x2="104" y1="402" y2="317" /><line stroke="rgb(10%,10%,16%)" x1="260" x2="327" y1="341" y2="290" /><line stroke="rgb(10%,10%,16%)" x1="230" x2="217" y1="401" y2="297" /><line stroke="rgb(10%,10%,16%)" x1="327" x2="344" y1="290" y2="227" /><line stroke="rgb(10%,10%,16%)" x1="104" x2="163" y1="317" y2="337" /><line stroke="rgb(10%,10%,16%)" x1="430" x2="539" y1="421" y2="385" /><line stroke="rgb(10%,10%,16%)" x1="357" x2="553" y1="599" y2="554" /><line stroke="rgb(10%,10%,16%)" x1="327" x2="217" y1="290" y2="297" /><line stroke="rgb(10%,10%,16%)" x1="329" x2="419" y1="344" y2="236" /><line stroke="rgb(10%,10%,16%)" x1="430" x2="556" y1="421" y2="386" /><line stroke="rgb(10%,10%,16%)" x1="309" x2="450" y1="403" y2="231" /><line stroke="rgb(10%,10%,16%)" x1="430" x2="572" y1="421" y2="414" /><line stroke="rgb(10%,10%,16%)" x1="344" x2="419" y1="227" y2="236" /><line stroke="rgb(10%,10%,16%)" x1="419" x2="450" y1="236" y2="231" /><line stroke="rgb(10%,10%,16%)" x1="309" x2="539" y1="403" y2="385" /><line stroke="rgb(10%,10%,16%)" x1="217" x2="163" y1="297" y2="337" /><line stroke="rgb(10%,10%,16%)" x1="104" x2="217" y1="317" y2="297" /><line stroke="rgb(10%,10%,16%)" x1="217" x2="344" y1="297" y2="227" /><line stroke="rgb(10%,10%,16%)" x1="344" x2="450" y1="227" y2="231" /><line stroke="rgb(10%,10%,16%)" x1="104" x2="344" y1="317" y2="227" /><line stroke="rgb(10%,10%,16%)" x1="539" x2="556" y1="385" y2="386" /><line stroke="rgb(10%,10%,16%)" x1="430" x2="553" y1="421" y2="554" /><line stroke="rgb(10%,10%,16%)" x1="553" x2="572" y1="554" y2="414" /><line stroke="rgb(10%,10%,16%)" x1="556" x2="572" y1="386" y2="414" /><line stroke="rgb(10%,10%,16%)" x1="450" x2="514" y1="231" y2="176" /><line stroke="rgb(10%,10%,16%)" x1="309" x2="553" y1="403" y2="305" /><line stroke="rgb(10%,10%,16%)" x1="572" x2="569" y1="414" y2="317" /><line stroke="rgb(10%,10%,16%)" x1="344" x2="472" y1="227" y2="125" /><line stroke="rgb(10%,10%,16%)" x1="450" x2="536" y1="231" y2="191" /><line stroke="rgb(10%,10%,16%)" x1="539" x2="569" y1="385" y2="317" /><line stroke="rgb(10%,10%,16%)" x1="309" x2="569" y1="403" y2="317" /><line stroke="rgb(10%,10%,16%)" x1="104" x2="472" y1="317" y2="125" /><line stroke="rgb(10%,10%,16%)" x1="344" x2="514" y1="227" y2="176" /><line stroke="rgb(10%,10%,16%)" x1="450" x2="546" y1="231" y2="205" /><line stroke="rgb(10%,10%,16%)" x1="344" x2="559" y1="227" y2="141" /><line stroke="rgb(10%,10%,16%)" x1="556" x2="569" y1="386" y2="317" /><line stroke="rgb(10%,10%,16%)" x1="514" x2="536" y1="176" y2="191" /><line stroke="rgb(10%,10%,16%)" x1="450" x2="562" y1="231" y2="229" /><line stroke="rgb(10%,10%,16%)" x1="553" x2="569" y1="305" y2="317" /><line stroke="rgb(10%,10%,16%)" x1="309" x2="562" y1="403" y2="229" /><line stroke="rgb(10%,10%,16%)" x1="569" x2="562" y1="317" y2="229" /><line stroke="rgb(10%,10%,16%)" x1="472" x2="559" y1="125" y2="141" /><line stroke="rgb(10%,10%,16%)" x1="536" x2="546" y1="191" y2="205" /><line stroke="rgb(10%,10%,16%)" x1="569" x2="559" y1="317" y2="141" /><line stroke="rgb(10%,10%,16%)" x1="514" x2="559" y1="176" y2="141" /><line stroke="rgb(10%,10%,16%)" x1="546" x2="562" y1="205" y2="229" /><line stroke="rgb(10%,10%,16%)" x1="559" x2="536" y1="141" y2="191" /><line stroke="rgb(10%,10%,16%)" x1="562" x2="553" y1="229" y2="305" /><line stroke="rgb(10%,10%,16%)" x1="562" x2="559" y1="229" y2="141" /><line stroke="rgb(10%,10%,16%)" x1="559" x2="546" y1="141" y2="205" /><circle cx="556" cy="386" fill="red" r="10" stroke="black" /><g font-size="12"><text x="552" y="391">0</text></g><circle cx="104" cy="317" fill="red" r="10" stroke="black" /><g font-size="12"><text x="100" y="322">1</text></g><circle cx="539" cy="385" fill="green" r="10" stroke="black" /><g font-size="12"><text x="535" y="390">2</text></g><circle cx="450" cy="231" fill="green" r="10" stroke="black" /><g font-size="12"><text x="446" y="236">3</text></g><circle cx="352" cy="508" fill="red" r="10" stroke="black" /><g font-size="12"><text x="348" y="513">4</text></g><circle cx="163" cy="337" fill="blue" r="10" stroke="black" /><g font-size="12"><text x="159" y="342">5</text></g><circle cx="559" cy="141" fill="green" r="10" stroke="black" /><g font-size="12"><text x="555" y="146">6</text></g><circle cx="419" cy="236" fill="white" r="10" stroke="black" /><g font-size="12"><text x="415" y="241">7</text></g><circle cx="553" cy="305" fill="green" r="10" stroke="black" /><g font-size="12"><text x="549" y="310">8</text></g><circle cx="536" cy="191" fill="red" r="10" stroke="black" /><g font-size="12"><text x="532" y="196">9</text></g><circle cx="357" cy="599" fill="green" r="10" stroke="black" /><g font-size="12"><text x="353" y="604">10</text></g><circle cx="572" cy="414" fill="blue" r="10" stroke="black" /><g font-size="12"><text x="568" y="419">11</text></g><circle cx="254" cy="511" fill="blue" r="10" stroke="black" /><g font-size="12"><text x="250" y="516">12</text></g><circle cx="472" cy="125" fill="white" r="10" stroke="black" /><g font-size="12"><text x="468" y="130">13</text></g><circle cx="562" cy="229" fill="red" r="10" stroke="black" /><g font-size="12"><text x="558" y="234">14</text></g><circle cx="217" cy="297" fill="green" r="10" stroke="black" /><g font-size="12"><text x="213" y="302">15</text></g><circle cx="309" cy="403" fill="blue" r="10" stroke="black" /><g font-size="12"><text x="305" y="408">16</text></g><circle cx="293" cy="428" fill="green" r="10" stroke="black" /><g font-size="12"><text x="289" y="433">17</text></g><circle cx="430" cy="421" fill="white" r="10" stroke="black" /><g font-size="12"><text x="426" y="426">18</text></g><circle cx="292" cy="493" fill="white" r="10" stroke="black" /><g font-size="12"><text x="288" y="498">19</text></g><circle cx="187" cy="402" fill="white" r="10" stroke="black" /><g font-size="12"><text x="183" y="407">20</text></g><circle cx="230" cy="401" fill="red" r="10" stroke="black" /><g font-size="12"><text x="226" y="406">21</text></g><circle cx="514" cy="176" fill="white" r="10" stroke="black" /><g font-size="12"><text x="510" y="181">22</text></g><circle cx="344" cy="227" fill="blue" r="10" stroke="black" /><g font-size="12"><text x="340" y="232">23</text></g><circle cx="569" cy="317" fill="white" r="10" stroke="black" /><g font-size="12"><text x="565" y="322">24</text></g><circle cx="327" cy="290" fill="white" r="10" stroke="black" /><g font-size="12"><text x="323" y="295">25</text></g><circle cx="553" cy="554" fill="red" r="10" stroke="black" /><g font-size="12"><text x="549" y="559">26</text></g><circle cx="260" cy="341" fill="blue" r="10" stroke="black" /><g font-size="12"><text x="256" y="346">27</text></g><circle cx="329" cy="344" fill="red" r="10" stroke="black" /><g font-size="12"><text x="325" y="349">28</text></g><circle cx="546" cy="205" fill="blue" r="10" stroke="black" /><g font-size="12"><text x="542" y="210">29</text></g></svg>