<?xml version="1.0" encoding="utf-8" ?>
<svg baseProfile="full" height="700" version="1.1" width="700" xmlns="http://www.w3.org/2000/svg" xmlns:ev="http://www.w3.org/2001/xml-events" xmlns:xlink="http://www.w3.org/1999/xlink"><defs /><line stroke="rgb(10%,10%,16%)" x1="549" x2="455" y1="321" y2="277" /><line stroke="rgb(10%,10%,16%)" x1="455" x2="394" y1="277" y2="245" /><line stroke="rgb(10%,10%,16%)" x1="549" x2="394" y1="321" y2="245" /><line stroke="rgb(10%,10%,16%)" x1="394" x2="465" y1="245" y2="100" /><line stroke="rgb(10%,10%,16%)" x1="455" x2="100" y1="277" y2="141" /><line stroke="rgb(10%,10%,16%)" x1="394" x2="100" y1="245" y2="141" /><line stroke="rgb(10%,10%,16%)" x1="549" x2="465" y1="321" y2="100" /><line stroke="rgb(10%,10%,16%)" x1="465" x2="100" y1="100" y2="141" /><line stroke="rgb(10%,10%,16%)" x1="100" x2="549" y1="141" y2="321" /><circle cx="394" cy="245" fill="white" r="10" stroke="black" /><g font-size="12"><text x="390" y="250">0</text></g><circle cx="455" cy="277" fill="green" r="10" stroke="black" /><g font-size="12"><text x="451" y="282">1</text></g><circle cx="100" cy="141" fill="blue" r="10" stroke="black" /><g font-size="12"><text x="96" y="146">2</text></g><circle cx="465" cy="100" fill="green" r="10" stroke="black" /><g font-size="12"><text x="461" y="105">3</text></g><circle cx="549" cy="321" fill="red" r="10" stroke="black" /><g font-size="12"><text x="545" y="326">4</text></g></svg>