<?xml version="1.0" encoding="utf-8" ?>
<svg baseProfile="full" height="700" version="1.1" width="700" xmlns="http://www.w3.org/2000/svg" xmlns:ev="http://www.w3.org/2001/xml-events" xmlns:xlink="http://www.w3.org/1999/xlink"><defs /><line stroke="rgb(10%,10%,16%)" x1="415" x2="407" y1="358" y2="361" /><line stroke="rgb(10%,10%,16%)" x1="407" x2="420" y1="361" y2="394" /><line stroke="rgb(10%,10%,16%)" x1="415" x2="429" y1="358" y2="329" /><line stroke="rgb(10%,10%,16%)" x1="420" x2="450" y1="394" y2="408" /><line stroke="rgb(10%,10%,16%)" x1="407" x2="429" y1="361" y2="329" /><line stroke="rgb(10%,10%,16%)" x1="429" x2="420" y1="329" y2="394" /><line stroke="rgb(10%,10%,16%)" x1="415" x2="420" y1="358" y2="394" /><line stroke="rgb(10%,10%,16%)" x1="450" x2="446" y1="408" y2="457" /><line stroke="rgb(10%,10%,16%)" x1="420" x2="446" y1="394" y2="457" /><line stroke="rgb(10%,10%,16%)" x1="429" x2="460" y1="329" y2="265" /><line stroke="rgb(10%,10%,16%)" x1="407" x2="388" y1="361" y2="269" /><line stroke="rgb(10%,10%,16%)" x1="420" x2="460" y1="394" y2="265" /><line stroke="rgb(10%,10%,16%)" x1="429" x2="388" y1="329" y2="269" /><line stroke="rgb(10%,10%,16%)" x1="420" x2="464" y1="394" y2="533" /><line stroke="rgb(10%,10%,16%)" x1="446" x2="464" y1="457" y2="533" /><line stroke="rgb(10%,10%,16%)" x1="450" x2="464" y1="408" y2="533" /><line stroke="rgb(10%,10%,16%)" x1="420" x2="518" y1="394" y2="263" /><line stroke="rgb(10%,10%,16%)" x1="460" x2="518" y1="265" y2="263" /><line stroke="rgb(10%,10%,16%)" x1="388" x2="460" y1="269" y2="265" /><line stroke="rgb(10%,10%,16%)" x1="407" x2="464" y1="361" y2="533" /><line stroke="rgb(10%,10%,16%)" x1="460" x2="232" y1="265" y2="153" /><line stroke="rgb(10%,10%,16%)" x1="420" x2="587" y1="394" y2="313" /><line stroke="rgb(10%,10%,16%)" x1="388" x2="232" y1="269" y2="153" /><line stroke="rgb(10%,10%,16%)" x1="464" x2="562" y1="533" y2="563" /><line stroke="rgb(10%,10%,16%)" x1="464" x2="587" y1="533" y2="313" /><line stroke="rgb(10%,10%,16%)" x1="464" x2="162" y1="533" y2="591" /><line stroke="rgb(10%,10%,16%)" x1="450" x2="587" y1="408" y2="313" /><line stroke="rgb(10%,10%,16%)" x1="518" x2="587" y1="263" y2="313" /><line stroke="rgb(10%,10%,16%)" x1="518" x2="232" y1="263" y2="153" /><line stroke="rgb(10%,10%,16%)" x1="388" x2="171" y1="269" y2="210" /><line stroke="rgb(10%,10%,16%)" x1="464" x2="171" y1="533" y2="210" /><line stroke="rgb(10%,10%,16%)" x1="407" x2="171" y1="361" y2="210" /><line stroke="rgb(10%,10%,16%)" x1="232" x2="171" y1="153" y2="210" /><line stroke="rgb(10%,10%,16%)" x1="587" x2="562" y1="313" y2="563" /><line stroke="rgb(10%,10%,16%)" x1="562" x2="162" y1="563" y2="591" /><line stroke="rgb(10%,10%,16%)" x1="162" x2="171" y1="591" y2="210" /><circle cx="162" cy="591" fill="white" r="10" stroke="black" /><g font-size="12"><text x="158" y="596">0</text></g><circle cx="171" cy="210" fill="blue" r="10" stroke="black" /><g font-size="12"><text x="167" y="215">1</text></g><circle cx="518" cy="263" fill="white" r="10" stroke="black" /><g font-size="12"><text x="514" y="268">2</text></g><circle cx="562" cy="563" fill="blue" r="10" stroke="black" /><g font-size="12"><text x="558" y="568">3</text></g><circle cx="587" cy="313" fill="red" r="10" stroke="black" /><g font-size="12"><text x="583" y="318">4</text></g><circle cx="388" cy="269" fill="white" r="10" stroke="black" /><g font-size="12"><text x="384" y="274">5</text></g><circle cx="446" cy="457" fill="red" r="10" stroke="black" /><g font-size="12"><text x="442" y="462">6</text></g><circle cx="232" cy="153" fill="green" r="10" stroke="black" /><g font-size="12"><text x="228" y="158">7</text></g><circle cx="429" cy="329" fill="green" r="10" stroke="black" /><g font-size="12"><text x="425" y="334">8</text></g><circle cx="420" cy="394" fill="blue" r="10" stroke="black" /><g font-size="12"><text x="416" y="399">9</text></g><circle cx="464" cy="533" fill="green" r="10" stroke="black" /><g font-size="12"><text x="460" y="538">10</text></g><circle cx="450" cy="408" fill="white" r="10" stroke="black" /><g font-size="12"><text x="446" y="413">11</text></g><circle cx="407" cy="361" fill="red" r="10" stroke="black" /><g font-size="12"><text x="403" y="366">12</text></g><circle cx="460" cy="265" fill="red" r="10" stroke="black" /><g font-size="12"><text x="456" y="270">13</text></g><circle cx="415" cy="358" fill="white" r="10" stroke="black" /><g font-size="12"><text x="411" y="363">14</text></g></svg>