<?xml version="1.0" encoding="utf-8" ?>
<svg baseProfile="full" height="700" version="1.1" width="700" xmlns="http://www.w3.org/2000/svg" xmlns:ev="http://www.w3.org/2001/xml-events" xmlns:xlink="http://www.w3.org/1999/xlink"><defs /><line stroke="rgb(10%,10%,16%)" x1="508" x2="511" y1="592" y2="417" /><line stroke="rgb(10%,10%,16%)" x1="511" x2="325" y1="417" y2="484" /><line stroke="rgb(10%,10%,16%)" x1="508" x2="325" y1="592" y2="484" /><line stroke="rgb(10%,10%,16%)" x1="325" x2="291" y1="484" y2="508" /><line stroke="rgb(10%,10%,16%)" x1="511" x2="588" y1="417" y2="184" /><line stroke="rgb(10%,10%,16%)" x1="325" x2="266" y1="484" y2="211" /><line stroke="rgb(10%,10%,16%)" x1="508" x2="291" y1="592" y2="508" /><line stroke="rgb(10%,10%,16%)" x1="291" x2="266" y1="508" y2="211" /><line stroke="rgb(10%,10%,16%)" x1="325" x2="295" y1="484" y2="205" /><line stroke="rgb(10%,10%,16%)" x1="588" x2="350" y1="184" y2="148" /><line stroke="rgb(10%,10%,16%)" x1="511" x2="295" y1="417" y2="205" /><line stroke="rgb(10%,10%,16%)" x1="266" x2="295" y1="211" y2="205" /><line stroke="rgb(10%,10%,16%)" x1="291" x2="156" y1="508" y2="129" /><line stroke="rgb(10%,10%,16%)" x1="508" x2="588" y1="592" y2="184" /><line stroke="rgb(10%,10%,16%)" x1="266" x2="350" y1="211" y2="148" /><line stroke="rgb(10%,10%,16%)" x1="291" x2="183" y1="508" y2="108" /><line stroke="rgb(10%,10%,16%)" x1="295" x2="350" y1="205" y2="148" /><line stroke="rgb(10%,10%,16%)" x1="350" x2="183" y1="148" y2="108" /><line stroke="rgb(10%,10%,16%)" x1="588" x2="295" y1="184" y2="205" /><line stroke="rgb(10%,10%,16%)" x1="266" x2="183" y1="211" y2="108" /><line stroke="rgb(10%,10%,16%)" x1="156" x2="183" y1="129" y2="108" /><line stroke="rgb(10%,10%,16%)" x1="588" x2="183" y1="184" y2="108" /><circle cx="588" cy="184" fill="blue" r="10" stroke="black" /><g font-size="12"><text x="584" y="189">0</text></g><circle cx="350" cy="148" fill="red" r="10" stroke="black" /><g font-size="12"><text x="346" y="153">1</text></g><circle cx="291" cy="508" fill="red" r="10" stroke="black" /><g font-size="12"><text x="287" y="513">2</text></g><circle cx="511" cy="417" fill="red" r="10" stroke="black" /><g font-size="12"><text x="507" y="422">3</text></g><circle cx="295" cy="205" fill="white" r="10" stroke="black" /><g font-size="12"><text x="291" y="210">4</text></g><circle cx="266" cy="211" fill="blue" r="10" stroke="black" /><g font-size="12"><text x="262" y="216">5</text></g><circle cx="183" cy="108" fill="white" r="10" stroke="black" /><g font-size="12"><text x="179" y="113">6</text></g><circle cx="156" cy="129" fill="blue" r="10" stroke="black" /><g font-size="12"><text x="152" y="134">7</text></g><circle cx="508" cy="592" fill="white" r="10" stroke="black" /><g font-size="12"><text x="504" y="597">8</text></g><circle cx="325" cy="484" fill="green" r="10" stroke="black" /><g font-size="12"><text x="321" y="489">9</text></g></svg>