<?xml version="1.0" encoding="utf-8" ?>
<svg baseProfile="full" height="700" version="1.1" width="700" xmlns="http://www.w3.org/2000/svg" xmlns:ev="http://www.w3.org/2001/xml-events" xmlns:xlink="http://www.w3.org/1999/xlink"><defs /><line stroke="rgb(10%,10%,16%)" x1="490" x2="416" y1="238" y2="403" /><line stroke="rgb(10%,10%,16%)" x1="416" x2="327" y1="403" y2="381" /><line stroke="rgb(10%,10%,16%)" x1="490" x2="327" y1="238" y2="381" /><line stroke="rgb(10%,10%,16%)" x1="327" x2="255" y1="381" y2="333" /><line stroke="rgb(10%,10%,16%)" x1="416" x2="231" y1="403" y2="417" /><line stroke="rgb(10%,10%,16%)" x1="327" x2="231" y1="381" y2="417" /><line stroke="rgb(10%,10%,16%)" x1="490" x2="255" y1="238" y2="333" /><line stroke="rgb(10%,10%,16%)" x1="255" x2="231" y1="333" y2="417" /><line stroke="rgb(10%,10%,16%)" x1="231" x2="162" y1="417" y2="460" /><line stroke="rgb(10%,10%,16%)" x1="416" x2="427" y1="403" y2="593" /><line stroke="rgb(10%,10%,16%)" x1="231" x2="113" y1="417" y2="451" /><line stroke="rgb(10%,10%,16%)" x1="255" x2="100" y1="333" y2="262" /><line stroke="rgb(10%,10%,16%)" x1="490" x2="427" y1="238" y2="593" /><line stroke="rgb(10%,10%,16%)" x1="231" x2="100" y1="417" y2="262" /><line stroke="rgb(10%,10%,16%)" x1="162" x2="113" y1="460" y2="451" /><line stroke="rgb(10%,10%,16%)" x1="231" x2="427" y1="417" y2="593" /><line stroke="rgb(10%,10%,16%)" x1="427" x2="565" y1="593" y2="596" /><line stroke="rgb(10%,10%,16%)" x1="113" x2="100" y1="451" y2="262" /><line stroke="rgb(10%,10%,16%)" x1="100" x2="490" y1="262" y2="238" /><line stroke="rgb(10%,10%,16%)" x1="427" x2="162" y1="593" y2="460" /><line stroke="rgb(10%,10%,16%)" x1="490" x2="565" y1="238" y2="596" /><line stroke="rgb(10%,10%,16%)" x1="113" x2="427" y1="451" y2="593" /><circle cx="231" cy="417" fill="red" r="10" stroke="black" /><g font-size="12"><text x="227" y="422">0</text></g><circle cx="427" cy="593" fill="blue" r="10" stroke="black" /><g font-size="12"><text x="423" y="598">1</text></g><circle cx="162" cy="460" fill="green" r="10" stroke="black" /><g font-size="12"><text x="158" y="465">2</text></g><circle cx="565" cy="596" fill="white" r="10" stroke="black" /><g font-size="12"><text x="561" y="601">3</text></g><circle cx="327" cy="381" fill="blue" r="10" stroke="black" /><g font-size="12"><text x="323" y="386">4</text></g><circle cx="416" cy="403" fill="white" r="10" stroke="black" /><g font-size="12"><text x="412" y="408">5</text></g><circle cx="113" cy="451" fill="white" r="10" stroke="black" /><g font-size="12"><text x="109" y="456">6</text></g><circle cx="490" cy="238" fill="red" r="10" stroke="black" /><g font-size="12"><text x="486" y="243">7</text></g><circle cx="255" cy="333" fill="white" r="10" stroke="black" /><g font-size="12"><text x="251" y="338">8</text></g><circle cx="100" cy="262" fill="blue" r="10" stroke="black" /><g font-size="12"><text x="96" y="267">9</text></g></svg>