<?xml version="1.0" encoding="utf-8" ?>
<svg baseProfile="full" height="700" version="1.1" width="700" xmlns="http://www.w3.org/2000/svg" xmlns:ev="http://www.w3.org/2001/xml-events" xmlns:xlink="http://www.w3.org/1999/xlink"><defs /><line stroke="rgb(10%,10%,16%)" x1="457" x2="501" y1="480" y2="516" /><line stroke="rgb(10%,10%,16%)" x1="501" x2="413" y1="516" y2="531" /><line stroke="rgb(10%,10%,16%)" x1="457" x2="413" y1="480" y2="531" /><line stroke="rgb(10%,10%,16%)" x1="413" x2="208" y1="531" y2="562" /><line stroke="rgb(10%,10%,16%)" x1="501" x2="506" y1="516" y2="183" /><line stroke="rgb(10%,10%,16%)" x1="413" x2="174" y1="531" y2="275" /><line stroke="rgb(10%,10%,16%)" x1="457" x2="506" y1="480" y2="183" /><line stroke="rgb(10%,10%,16%)" x1="208" x2="174" y1="562" y2="275" /><line stroke="rgb(10%,10%,16%)" x1="413" x2="506" y1="531" y2="183" /><line stroke="rgb(10%,10%,16%)" x1="506" x2="480" y1="183" y2="117" /><line stroke="rgb(10%,10%,16%)" x1="174" x2="153" y1="275" y2="204" /><line stroke="rgb(10%,10%,16%)" x1="413" x2="230" y1="531" y2="199" /><line stroke="rgb(10%,10%,16%)" x1="506" x2="230" y1="183" y2="199" /><line stroke="rgb(10%,10%,16%)" x1="174" x2="230" y1="275" y2="199" /><line stroke="rgb(10%,10%,16%)" x1="208" x2="153" y1="562" y2="204" /><line stroke="rgb(10%,10%,16%)" x1="506" x2="226" y1="183" y2="156" /><line stroke="rgb(10%,10%,16%)" x1="480" x2="226" y1="117" y2="156" /><line stroke="rgb(10%,10%,16%)" x1="153" x2="230" y1="204" y2="199" /><line stroke="rgb(10%,10%,16%)" x1="230" x2="226" y1="199" y2="156" /><line stroke="rgb(10%,10%,16%)" x1="153" x2="226" y1="204" y2="156" /><circle cx="413" cy="531" fill="white" r="10" stroke="black" /><g font-size="12"><text x="409" y="536">0</text></g><circle cx="226" cy="156" fill="white" r="10" stroke="black" /><g font-size="12"><text x="222" y="161">1</text></g><circle cx="208" cy="562" fill="blue" r="10" stroke="black" /><g font-size="12"><text x="204" y="567">2</text></g><circle cx="480" cy="117" fill="blue" r="10" stroke="black" /><g font-size="12"><text x="476" y="122">3</text></g><circle cx="174" cy="275" fill="red" r="10" stroke="black" /><g font-size="12"><text x="170" y="280">4</text></g><circle cx="506" cy="183" fill="red" r="10" stroke="black" /><g font-size="12"><text x="502" y="188">5</text></g><circle cx="153" cy="204" fill="green" r="10" stroke="black" /><g font-size="12"><text x="149" y="209">6</text></g><circle cx="230" cy="199" fill="blue" r="10" stroke="black" /><g font-size="12"><text x="226" y="204">7</text></g><circle cx="457" cy="480" fill="blue" r="10" stroke="black" /><g font-size="12"><text x="453" y="485">8</text></g><circle cx="501" cy="516" fill="green" r="10" stroke="black" /><g font-size="12"><text x="497" y="521">9</text></g></svg>