<?xml version="1.0" encoding="utf-8" ?>
<svg baseProfile="full" height="700" version="1.1" width="700" xmlns="http://www.w3.org/2000/svg" xmlns:ev="http://www.w3.org/2001/xml-events" xmlns:xlink="http://www.w3.org/1999/xlink"><defs /><line stroke="rgb(10%,10%,16%)" x1="563" x2="489" y1="169" y2="324" /><line stroke="rgb(10%,10%,16%)" x1="489" x2="406" y1="324" y2="387" /><line stroke="rgb(10%,10%,16%)" x1="563" x2="406" y1="169" y2="387" /><line stroke="rgb(10%,10%,16%)" x1="406" x2="305" y1="387" y2="484" /><line stroke="rgb(10%,10%,16%)" x1="489" x2="549" y1="324" y2="501" /><line stroke="rgb(10%,10%,16%)" x1="406" x2="513" y1="387" y2="514" /><line stroke="rgb(10%,10%,16%)" x1="563" x2="285" y1="169" y2="264" /><line stroke="rgb(10%,10%,16%)" x1="305" x2="275" y1="484" y2="506" /><line stroke="rgb(10%,10%,16%)" x1="406" x2="285" y1="387" y2="264" /><line stroke="rgb(10%,10%,16%)" x1="549" x2="513" y1="501" y2="514" /><line stroke="rgb(10%,10%,16%)" x1="489" x2="513" y1="324" y2="514" /><line stroke="rgb(10%,10%,16%)" x1="513" x2="388" y1="514" y2="590" /><line stroke="rgb(10%,10%,16%)" x1="406" x2="275" y1="387" y2="506" /><line stroke="rgb(10%,10%,16%)" x1="285" x2="136" y1="264" y2="236" /><line stroke="rgb(10%,10%,16%)" x1="563" x2="549" y1="169" y2="501" /><line stroke="rgb(10%,10%,16%)" x1="275" x2="149" y1="506" y2="505" /><line stroke="rgb(10%,10%,16%)" x1="305" x2="388" y1="484" y2="590" /><line stroke="rgb(10%,10%,16%)" x1="285" x2="130" y1="264" y2="356" /><line stroke="rgb(10%,10%,16%)" x1="406" x2="388" y1="387" y2="590" /><line stroke="rgb(10%,10%,16%)" x1="549" x2="388" y1="501" y2="590" /><line stroke="rgb(10%,10%,16%)" x1="388" x2="275" y1="590" y2="506" /><line stroke="rgb(10%,10%,16%)" x1="275" x2="153" y1="506" y2="400" /><line stroke="rgb(10%,10%,16%)" x1="406" x2="153" y1="387" y2="400" /><line stroke="rgb(10%,10%,16%)" x1="136" x2="127" y1="236" y2="160" /><line stroke="rgb(10%,10%,16%)" x1="285" x2="127" y1="264" y2="160" /><line stroke="rgb(10%,10%,16%)" x1="563" x2="127" y1="169" y2="160" /><line stroke="rgb(10%,10%,16%)" x1="149" x2="104" y1="505" y2="525" /><line stroke="rgb(10%,10%,16%)" x1="275" x2="104" y1="506" y2="525" /><line stroke="rgb(10%,10%,16%)" x1="388" x2="104" y1="590" y2="525" /><line stroke="rgb(10%,10%,16%)" x1="130" x2="153" y1="356" y2="400" /><line stroke="rgb(10%,10%,16%)" x1="285" x2="153" y1="264" y2="400" /><line stroke="rgb(10%,10%,16%)" x1="153" x2="149" y1="400" y2="505" /><line stroke="rgb(10%,10%,16%)" x1="153" x2="104" y1="400" y2="525" /><line stroke="rgb(10%,10%,16%)" x1="127" x2="130" y1="160" y2="356" /><line stroke="rgb(10%,10%,16%)" x1="136" x2="130" y1="236" y2="356" /><line stroke="rgb(10%,10%,16%)" x1="127" x2="104" y1="160" y2="525" /><line stroke="rgb(10%,10%,16%)" x1="104" x2="130" y1="525" y2="356" /><circle cx="136" cy="236" fill="white" r="10" stroke="black" /><g font-size="12"><text x="132" y="241">0</text></g><circle cx="149" cy="505" fill="white" r="10" stroke="black" /><g font-size="12"><text x="145" y="510">1</text></g><circle cx="153" cy="400" fill="blue" r="10" stroke="black" /><g font-size="12"><text x="149" y="405">2</text></g><circle cx="130" cy="356" fill="red" r="10" stroke="black" /><g font-size="12"><text x="126" y="361">3</text></g><circle cx="127" cy="160" fill="blue" r="10" stroke="black" /><g font-size="12"><text x="123" y="165">4</text></g><circle cx="104" cy="525" fill="green" r="10" stroke="black" /><g font-size="12"><text x="100" y="530">5</text></g><circle cx="275" cy="506" fill="red" r="10" stroke="black" /><g font-size="12"><text x="271" y="511">6</text></g><circle cx="549" cy="501" fill="white" r="10" stroke="black" /><g font-size="12"><text x="545" y="506">7</text></g><circle cx="305" cy="484" fill="green" r="10" stroke="black" /><g font-size="12"><text x="301" y="489">8</text></g><circle cx="388" cy="590" fill="blue" r="10" stroke="black" /><g font-size="12"><text x="384" y="595">9</text></g><circle cx="489" cy="324" fill="blue" r="10" stroke="black" /><g font-size="12"><text x="485" y="329">10</text></g><circle cx="406" cy="387" fill="white" r="10" stroke="black" /><g font-size="12"><text x="402" y="392">11</text></g><circle cx="285" cy="264" fill="green" r="10" stroke="black" /><g font-size="12"><text x="281" y="269">12</text></g><circle cx="513" cy="514" fill="red" r="10" stroke="black" /><g font-size="12"><text x="509" y="519">13</text></g><circle cx="563" cy="169" fill="red" r="10" stroke="black" /><g font-size="12"><text x="559" y="174">14</text></g></svg>