<?xml version="1.0" encoding="utf-8" ?>
<svg baseProfile="full" height="700" version="1.1" width="700" xmlns="http://www.w3.org/2000/svg" xmlns:ev="http://www.w3.org/2001/xml-events" xmlns:xlink="http://www.w3.org/1999/xlink"><defs /><line stroke="rgb(10%,10%,16%)" x1="432" x2="486" y1="286" y2="308" /><line stroke="rgb(10%,10%,16%)" x1="486" x2="492" y1="308" y2="246" /><line stroke="rgb(10%,10%,16%)" x1="432" x2="492" y1="286" y2="246" /><line stroke="rgb(10%,10%,16%)" x1="492" x2="452" y1="246" y2="112" /><line stroke="rgb(10%,10%,16%)" x1="486" x2="527" y1="308" y2="451" /><line stroke="rgb(10%,10%,16%)" x1="492" x2="466" y1="246" y2="104" /><line stroke="rgb(10%,10%,16%)" x1="432" x2="335" y1="286" y2="370" /><line stroke="rgb(10%,10%,16%)" x1="452" x2="466" y1="112" y2="104" /><line stroke="rgb(10%,10%,16%)" x1="492" x2="490" y1="246" y2="101" /><line stroke="rgb(10%,10%,16%)" x1="527" x2="485" y1="451" y2="496" /><line stroke="rgb(10%,10%,16%)" x1="486" x2="335" y1="308" y2="370" /><line stroke="rgb(10%,10%,16%)" x1="466" x2="490" y1="104" y2="101" /><line stroke="rgb(10%,10%,16%)" x1="492" x2="294" y1="246" y2="258" /><line stroke="rgb(10%,10%,16%)" x1="335" x2="293" y1="370" y2="384" /><line stroke="rgb(10%,10%,16%)" x1="432" x2="296" y1="286" y2="280" /><line stroke="rgb(10%,10%,16%)" x1="452" x2="294" y1="112" y2="258" /><line stroke="rgb(10%,10%,16%)" x1="490" x2="527" y1="101" y2="451" /><line stroke="rgb(10%,10%,16%)" x1="492" x2="296" y1="246" y2="280" /><line stroke="rgb(10%,10%,16%)" x1="485" x2="412" y1="496" y2="491" /><line stroke="rgb(10%,10%,16%)" x1="527" x2="412" y1="451" y2="491" /><line stroke="rgb(10%,10%,16%)" x1="335" x2="265" y1="370" y2="361" /><line stroke="rgb(10%,10%,16%)" x1="486" x2="412" y1="308" y2="491" /><line stroke="rgb(10%,10%,16%)" x1="294" x2="296" y1="258" y2="280" /><line stroke="rgb(10%,10%,16%)" x1="492" x2="527" y1="246" y2="451" /><line stroke="rgb(10%,10%,16%)" x1="293" x2="265" y1="384" y2="361" /><line stroke="rgb(10%,10%,16%)" x1="335" x2="318" y1="370" y2="466" /><line stroke="rgb(10%,10%,16%)" x1="296" x2="265" y1="280" y2="361" /><line stroke="rgb(10%,10%,16%)" x1="432" x2="265" y1="286" y2="361" /><line stroke="rgb(10%,10%,16%)" x1="294" x2="265" y1="258" y2="361" /><line stroke="rgb(10%,10%,16%)" x1="452" x2="122" y1="112" y2="408" /><line stroke="rgb(10%,10%,16%)" x1="412" x2="318" y1="491" y2="466" /><line stroke="rgb(10%,10%,16%)" x1="485" x2="225" y1="496" y2="554" /><line stroke="rgb(10%,10%,16%)" x1="412" x2="335" y1="491" y2="370" /><line stroke="rgb(10%,10%,16%)" x1="265" x2="214" y1="361" y2="419" /><line stroke="rgb(10%,10%,16%)" x1="335" x2="214" y1="370" y2="419" /><line stroke="rgb(10%,10%,16%)" x1="412" x2="225" y1="491" y2="554" /><line stroke="rgb(10%,10%,16%)" x1="294" x2="214" y1="258" y2="419" /><line stroke="rgb(10%,10%,16%)" x1="293" x2="214" y1="384" y2="419" /><line stroke="rgb(10%,10%,16%)" x1="318" x2="214" y1="466" y2="419" /><line stroke="rgb(10%,10%,16%)" x1="294" x2="122" y1="258" y2="408" /><line stroke="rgb(10%,10%,16%)" x1="122" x2="214" y1="408" y2="419" /><line stroke="rgb(10%,10%,16%)" x1="318" x2="225" y1="466" y2="554" /><line stroke="rgb(10%,10%,16%)" x1="225" x2="150" y1="554" y2="561" /><line stroke="rgb(10%,10%,16%)" x1="485" x2="131" y1="496" y2="590" /><line stroke="rgb(10%,10%,16%)" x1="214" x2="225" y1="419" y2="554" /><line stroke="rgb(10%,10%,16%)" x1="214" x2="150" y1="419" y2="561" /><line stroke="rgb(10%,10%,16%)" x1="225" x2="131" y1="554" y2="590" /><line stroke="rgb(10%,10%,16%)" x1="214" x2="131" y1="419" y2="590" /><line stroke="rgb(10%,10%,16%)" x1="122" x2="131" y1="408" y2="590" /><line stroke="rgb(10%,10%,16%)" x1="150" x2="131" y1="561" y2="590" /><circle cx="432" cy="286" fill="white" r="10" stroke="black" /><g font-size="12"><text x="428" y="291">0</text></g><circle cx="318" cy="466" fill="white" r="10" stroke="black" /><g font-size="12"><text x="314" y="471">1</text></g><circle cx="214" cy="419" fill="blue" r="10" stroke="black" /><g font-size="12"><text x="210" y="424">2</text></g><circle cx="150" cy="561" fill="white" r="10" stroke="black" /><g font-size="12"><text x="146" y="566">3</text></g><circle cx="265" cy="361" fill="red" r="10" stroke="black" /><g font-size="12"><text x="261" y="366">4</text></g><circle cx="486" cy="308" fill="blue" r="10" stroke="black" /><g font-size="12"><text x="482" y="313">5</text></g><circle cx="492" cy="246" fill="red" r="10" stroke="black" /><g font-size="12"><text x="488" y="251">6</text></g><circle cx="225" cy="554" fill="green" r="10" stroke="black" /><g font-size="12"><text x="221" y="559">7</text></g><circle cx="122" cy="408" fill="white" r="10" stroke="black" /><g font-size="12"><text x="118" y="413">8</text></g><circle cx="335" cy="370" fill="green" r="10" stroke="black" /><g font-size="12"><text x="331" y="375">9</text></g><circle cx="485" cy="496" fill="white" r="10" stroke="black" /><g font-size="12"><text x="481" y="501">10</text></g><circle cx="466" cy="104" fill="white" r="10" stroke="black" /><g font-size="12"><text x="462" y="109">11</text></g><circle cx="296" cy="280" fill="blue" r="10" stroke="black" /><g font-size="12"><text x="292" y="285">12</text></g><circle cx="452" cy="112" fill="blue" r="10" stroke="black" /><g font-size="12"><text x="448" y="117">13</text></g><circle cx="527" cy="451" fill="green" r="10" stroke="black" /><g font-size="12"><text x="523" y="456">14</text></g><circle cx="412" cy="491" fill="red" r="10" stroke="black" /><g font-size="12"><text x="408" y="496">15</text></g><circle cx="293" cy="384" fill="white" r="10" stroke="black" /><g font-size="12"><text x="289" y="389">16</text></g><circle cx="490" cy="101" fill="blue" r="10" stroke="black" /><g font-size="12"><text x="486" y="106">17</text></g><circle cx="294" cy="258" fill="green" r="10" stroke="black" /><g font-size="12"><text x="290" y="263">18</text></g><circle cx="131" cy="590" fill="red" r="10" stroke="black" /><g font-size="12"><text x="127" y="595">19</text></g></svg>