<?xml version="1.0" encoding="utf-8" ?>
<svg baseProfile="full" height="700" version="1.1" width="700" xmlns="http://www.w3.org/2000/svg" xmlns:ev="http://www.w3.org/2001/xml-events" xmlns:xlink="http://www.w3.org/1999/xlink"><defs /><line stroke="rgb(10%,10%,16%)" x1="408" x2="344" y1="215" y2="181" /><line stroke="rgb(10%,10%,16%)" x1="344" x2="501" y1="181" y2="194" /><line stroke="rgb(10%,10%,16%)" x1="408" x2="501" y1="215" y2="194" /><line stroke="rgb(10%,10%,16%)" x1="501" x2="529" y1="194" y2="142" /><line stroke="rgb(10%,10%,16%)" x1="344" x2="175" y1="181" y2="190" /><line stroke="rgb(10%,10%,16%)" x1="501" x2="537" y1="194" y2="108" /><line stroke="rgb(10%,10%,16%)" x1="408" x2="538" y1="215" y2="316" /><line stroke="rgb(10%,10%,16%)" x1="529" x2="537" y1="142" y2="108" /><line stroke="rgb(10%,10%,16%)" x1="501" x2="538" y1="194" y2="316" /><line stroke="rgb(10%,10%,16%)" x1="175" x2="408" y1="190" y2="215" /><line stroke="rgb(10%,10%,16%)" x1="344" x2="537" y1="181" y2="108" /><line stroke="rgb(10%,10%,16%)" x1="537" x2="538" y1="108" y2="316" /><line stroke="rgb(10%,10%,16%)" x1="538" x2="514" y1="316" y2="362" /><line stroke="rgb(10%,10%,16%)" x1="408" x2="514" y1="215" y2="362" /><line stroke="rgb(10%,10%,16%)" x1="537" x2="582" y1="108" y2="392" /><line stroke="rgb(10%,10%,16%)" x1="529" x2="538" y1="142" y2="316" /><line stroke="rgb(10%,10%,16%)" x1="538" x2="582" y1="316" y2="392" /><line stroke="rgb(10%,10%,16%)" x1="408" x2="315" y1="215" y2="391" /><line stroke="rgb(10%,10%,16%)" x1="175" x2="136" y1="190" y2="430" /><line stroke="rgb(10%,10%,16%)" x1="537" x2="175" y1="108" y2="190" /><line stroke="rgb(10%,10%,16%)" x1="538" x2="568" y1="316" y2="459" /><line stroke="rgb(10%,10%,16%)" x1="514" x2="568" y1="362" y2="459" /><line stroke="rgb(10%,10%,16%)" x1="514" x2="517" y1="362" y2="479" /><line stroke="rgb(10%,10%,16%)" x1="408" x2="403" y1="215" y2="462" /><line stroke="rgb(10%,10%,16%)" x1="582" x2="568" y1="392" y2="459" /><line stroke="rgb(10%,10%,16%)" x1="582" x2="558" y1="392" y2="595" /><line stroke="rgb(10%,10%,16%)" x1="315" x2="289" y1="391" y2="472" /><line stroke="rgb(10%,10%,16%)" x1="408" x2="289" y1="215" y2="472" /><line stroke="rgb(10%,10%,16%)" x1="136" x2="188" y1="430" y2="571" /><line stroke="rgb(10%,10%,16%)" x1="175" x2="315" y1="190" y2="391" /><line stroke="rgb(10%,10%,16%)" x1="175" x2="289" y1="190" y2="472" /><line stroke="rgb(10%,10%,16%)" x1="568" x2="550" y1="459" y2="506" /><line stroke="rgb(10%,10%,16%)" x1="568" x2="517" y1="459" y2="479" /><line stroke="rgb(10%,10%,16%)" x1="514" x2="403" y1="362" y2="462" /><line stroke="rgb(10%,10%,16%)" x1="517" x2="550" y1="479" y2="506" /><line stroke="rgb(10%,10%,16%)" x1="514" x2="376" y1="362" y2="511" /><line stroke="rgb(10%,10%,16%)" x1="403" x2="376" y1="462" y2="511" /><line stroke="rgb(10%,10%,16%)" x1="408" x2="376" y1="215" y2="511" /><line stroke="rgb(10%,10%,16%)" x1="568" x2="558" y1="459" y2="595" /><line stroke="rgb(10%,10%,16%)" x1="558" x2="526" y1="595" y2="552" /><line stroke="rgb(10%,10%,16%)" x1="289" x2="376" y1="472" y2="511" /><line stroke="rgb(10%,10%,16%)" x1="289" x2="188" y1="472" y2="571" /><line stroke="rgb(10%,10%,16%)" x1="188" x2="376" y1="571" y2="511" /><line stroke="rgb(10%,10%,16%)" x1="136" x2="289" y1="430" y2="472" /><line stroke="rgb(10%,10%,16%)" x1="550" x2="526" y1="506" y2="552" /><line stroke="rgb(10%,10%,16%)" x1="517" x2="526" y1="479" y2="552" /><line stroke="rgb(10%,10%,16%)" x1="550" x2="558" y1="506" y2="595" /><line stroke="rgb(10%,10%,16%)" x1="517" x2="376" y1="479" y2="511" /><line stroke="rgb(10%,10%,16%)" x1="376" x2="526" y1="511" y2="552" /><line stroke="rgb(10%,10%,16%)" x1="376" x2="558" y1="511" y2="595" /><line stroke="rgb(10%,10%,16%)" x1="558" x2="188" y1="595" y2="571" /><circle cx="403" cy="462" fill="white" r="10" stroke="black" /><g font-size="12"><text x="399" y="467">0</text></g><circle cx="538" cy="316" fill="white" r="10" stroke="black" /><g font-size="12"><text x="534" y="321">1</text></g><circle cx="408" cy="215" fill="blue" r="10" stroke="black" /><g font-size="12"><text x="404" y="220">2</text></g><circle cx="582" cy="392" fill="blue" r="10" stroke="black" /><g font-size="12"><text x="578" y="397">3</text></g><circle cx="526" cy="552" fill="blue" r="10" stroke="black" /><g font-size="12"><text x="522" y="557">4</text></g><circle cx="175" cy="190" fill="red" r="10" stroke="black" /><g font-size="12"><text x="171" y="195">5</text></g><circle cx="501" cy="194" fill="red" r="10" stroke="black" /><g font-size="12"><text x="497" y="199">6</text></g><circle cx="188" cy="571" fill="blue" r="10" stroke="black" /><g font-size="12"><text x="184" y="576">7</text></g><circle cx="289" cy="472" fill="white" r="10" stroke="black" /><g font-size="12"><text x="285" y="477">8</text></g><circle cx="344" cy="181" fill="white" r="10" stroke="black" /><g font-size="12"><text x="340" y="186">9</text></g><circle cx="568" cy="459" fill="red" r="10" stroke="black" /><g font-size="12"><text x="564" y="464">10</text></g><circle cx="550" cy="506" fill="green" r="10" stroke="black" /><g font-size="12"><text x="546" y="511">11</text></g><circle cx="529" cy="142" fill="blue" r="10" stroke="black" /><g font-size="12"><text x="525" y="147">12</text></g><circle cx="517" cy="479" fill="white" r="10" stroke="black" /><g font-size="12"><text x="513" y="484">13</text></g><circle cx="376" cy="511" fill="red" r="10" stroke="black" /><g font-size="12"><text x="372" y="516">14</text></g><circle cx="315" cy="391" fill="green" r="10" stroke="black" /><g font-size="12"><text x="311" y="396">15</text></g><circle cx="514" cy="362" fill="green" r="10" stroke="black" /><g font-size="12"><text x="510" y="367">16</text></g><circle cx="136" cy="430" fill="green" r="10" stroke="black" /><g font-size="12"><text x="132" y="435">17</text></g><circle cx="537" cy="108" fill="green" r="10" stroke="black" /><g font-size="12"><text x="533" y="113">18</text></g><circle cx="558" cy="595" fill="white" r="10" stroke="black" /><g font-size="12"><text x="554" y="600">19</text></g></svg>