<?xml version="1.0" encoding="utf-8" ?>
<svg baseProfile="full" height="700" version="1.1" width="700" xmlns="http://www.w3.org/2000/svg" xmlns:ev="http://www.w3.org/2001/xml-events" xmlns:xlink="http://www.w3.org/1999/xlink"><defs /><line stroke="rgb(10%,10%,16%)" x1="421" x2="488" y1="355" y2="315" /><line stroke="rgb(10%,10%,16%)" x1="488" x2="490" y1="315" y2="248" /><line stroke="rgb(10%,10%,16%)" x1="421" x2="340" y1="355" y2="452" /><line stroke="rgb(10%,10%,16%)" x1="490" x2="579" y1="248" y2="192" /><line stroke="rgb(10%,10%,16%)" x1="488" x2="579" y1="315" y2="192" /><line stroke="rgb(10%,10%,16%)" x1="340" x2="292" y1="452" y2="520" /><line stroke="rgb(10%,10%,16%)" x1="421" x2="490" y1="355" y2="248" /><line stroke="rgb(10%,10%,16%)" x1="579" x2="371" y1="192" y2="173" /><line stroke="rgb(10%,10%,16%)" x1="490" x2="371" y1="248" y2="173" /><line stroke="rgb(10%,10%,16%)" x1="579" x2="336" y1="192" y2="129" /><line stroke="rgb(10%,10%,16%)" x1="488" x2="340" y1="315" y2="452" /><line stroke="rgb(10%,10%,16%)" x1="292" x2="160" y1="520" y2="485" /><line stroke="rgb(10%,10%,16%)" x1="340" x2="253" y1="452" y2="353" /><line stroke="rgb(10%,10%,16%)" x1="490" x2="330" y1="248" y2="256" /><line stroke="rgb(10%,10%,16%)" x1="421" x2="330" y1="355" y2="256" /><line stroke="rgb(10%,10%,16%)" x1="371" x2="336" y1="173" y2="129" /><line stroke="rgb(10%,10%,16%)" x1="579" x2="517" y1="192" y2="566" /><line stroke="rgb(10%,10%,16%)" x1="371" x2="330" y1="173" y2="256" /><line stroke="rgb(10%,10%,16%)" x1="336" x2="330" y1="129" y2="256" /><line stroke="rgb(10%,10%,16%)" x1="340" x2="227" y1="452" y2="316" /><line stroke="rgb(10%,10%,16%)" x1="488" x2="517" y1="315" y2="566" /><line stroke="rgb(10%,10%,16%)" x1="160" x2="171" y1="485" y2="589" /><line stroke="rgb(10%,10%,16%)" x1="292" x2="171" y1="520" y2="589" /><line stroke="rgb(10%,10%,16%)" x1="253" x2="227" y1="353" y2="316" /><line stroke="rgb(10%,10%,16%)" x1="340" x2="160" y1="452" y2="485" /><line stroke="rgb(10%,10%,16%)" x1="330" x2="248" y1="256" y2="249" /><line stroke="rgb(10%,10%,16%)" x1="330" x2="243" y1="256" y2="242" /><line stroke="rgb(10%,10%,16%)" x1="421" x2="227" y1="355" y2="316" /><line stroke="rgb(10%,10%,16%)" x1="336" x2="243" y1="129" y2="242" /><line stroke="rgb(10%,10%,16%)" x1="517" x2="340" y1="566" y2="452" /><line stroke="rgb(10%,10%,16%)" x1="330" x2="227" y1="256" y2="316" /><line stroke="rgb(10%,10%,16%)" x1="330" x2="182" y1="256" y2="239" /><line stroke="rgb(10%,10%,16%)" x1="336" x2="182" y1="129" y2="239" /><line stroke="rgb(10%,10%,16%)" x1="227" x2="248" y1="316" y2="249" /><line stroke="rgb(10%,10%,16%)" x1="340" x2="117" y1="452" y2="314" /><line stroke="rgb(10%,10%,16%)" x1="517" x2="292" y1="566" y2="520" /><line stroke="rgb(10%,10%,16%)" x1="171" x2="117" y1="589" y2="314" /><line stroke="rgb(10%,10%,16%)" x1="160" x2="117" y1="485" y2="314" /><line stroke="rgb(10%,10%,16%)" x1="171" x2="517" y1="589" y2="566" /><line stroke="rgb(10%,10%,16%)" x1="227" x2="182" y1="316" y2="239" /><line stroke="rgb(10%,10%,16%)" x1="253" x2="147" y1="353" y2="272" /><line stroke="rgb(10%,10%,16%)" x1="340" x2="147" y1="452" y2="272" /><line stroke="rgb(10%,10%,16%)" x1="248" x2="182" y1="249" y2="239" /><line stroke="rgb(10%,10%,16%)" x1="243" x2="182" y1="242" y2="239" /><line stroke="rgb(10%,10%,16%)" x1="227" x2="147" y1="316" y2="272" /><line stroke="rgb(10%,10%,16%)" x1="336" x2="109" y1="129" y2="250" /><line stroke="rgb(10%,10%,16%)" x1="340" x2="109" y1="452" y2="250" /><line stroke="rgb(10%,10%,16%)" x1="227" x2="109" y1="316" y2="250" /><line stroke="rgb(10%,10%,16%)" x1="182" x2="109" y1="239" y2="250" /><line stroke="rgb(10%,10%,16%)" x1="117" x2="109" y1="314" y2="250" /><line stroke="rgb(10%,10%,16%)" x1="147" x2="109" y1="272" y2="250" /><circle cx="488" cy="315" fill="white" r="10" stroke="black" /><g font-size="12"><text x="484" y="320">0</text></g><circle cx="117" cy="314" fill="white" r="10" stroke="black" /><g font-size="12"><text x="113" y="319">1</text></g><circle cx="109" cy="250" fill="blue" r="10" stroke="black" /><g font-size="12"><text x="105" y="255">2</text></g><circle cx="579" cy="192" fill="blue" r="10" stroke="black" /><g font-size="12"><text x="575" y="197">3</text></g><circle cx="371" cy="173" fill="white" r="10" stroke="black" /><g font-size="12"><text x="367" y="178">4</text></g><circle cx="517" cy="566" fill="red" r="10" stroke="black" /><g font-size="12"><text x="513" y="571">5</text></g><circle cx="292" cy="520" fill="white" r="10" stroke="black" /><g font-size="12"><text x="288" y="525">6</text></g><circle cx="253" cy="353" fill="blue" r="10" stroke="black" /><g font-size="12"><text x="249" y="358">7</text></g><circle cx="160" cy="485" fill="blue" r="10" stroke="black" /><g font-size="12"><text x="156" y="490">8</text></g><circle cx="340" cy="452" fill="green" r="10" stroke="black" /><g font-size="12"><text x="336" y="457">9</text></g><circle cx="147" cy="272" fill="white" r="10" stroke="black" /><g font-size="12"><text x="143" y="277">10</text></g><circle cx="182" cy="239" fill="white" r="10" stroke="black" /><g font-size="12"><text x="178" y="244">11</text></g><circle cx="490" cy="248" fill="red" r="10" stroke="black" /><g font-size="12"><text x="486" y="253">12</text></g><circle cx="330" cy="256" fill="green" r="10" stroke="black" /><g font-size="12"><text x="326" y="261">13</text></g><circle cx="171" cy="589" fill="green" r="10" stroke="black" /><g font-size="12"><text x="167" y="594">14</text></g><circle cx="243" cy="242" fill="blue" r="10" stroke="black" /><g font-size="12"><text x="239" y="247">15</text></g><circle cx="248" cy="249" fill="blue" r="10" stroke="black" /><g font-size="12"><text x="244" y="254">16</text></g><circle cx="336" cy="129" fill="red" r="10" stroke="black" /><g font-size="12"><text x="332" y="134">17</text></g><circle cx="227" cy="316" fill="red" r="10" stroke="black" /><g font-size="12"><text x="223" y="321">18</text></g><circle cx="421" cy="355" fill="blue" r="10" stroke="black" /><g font-size="12"><text x="417" y="360">19</text></g></svg>