<?xml version="1.0" encoding="utf-8" ?>
<svg baseProfile="full" height="700" version="1.1" width="700" xmlns="http://www.w3.org/2000/svg" xmlns:ev="http://www.w3.org/2001/xml-events" xmlns:xlink="http://www.w3.org/1999/xlink"><defs /><line stroke="rgb(10%,10%,16%)" x1="278" x2="240" y1="451" y2="445" /><line stroke="rgb(10%,10%,16%)" x1="240" x2="234" y1="445" y2="431" /><line stroke="rgb(10%,10%,16%)" x1="278" x2="234" y1="451" y2="431" /><line stroke="rgb(10%,10%,16%)" x1="234" x2="153" y1="431" y2="346" /><line stroke="rgb(10%,10%,16%)" x1="240" x2="153" y1="445" y2="346" /><line stroke="rgb(10%,10%,16%)" x1="234" x2="438" y1="431" y2="382" /><line stroke="rgb(10%,10%,16%)" x1="278" x2="182" y1="451" y2="588" /><line stroke="rgb(10%,10%,16%)" x1="153" x2="108" y1="346" y2="145" /><line stroke="rgb(10%,10%,16%)" x1="234" x2="108" y1="431" y2="145" /><line stroke="rgb(10%,10%,16%)" x1="153" x2="147" y1="346" y2="557" /><line stroke="rgb(10%,10%,16%)" x1="240" x2="147" y1="445" y2="557" /><line stroke="rgb(10%,10%,16%)" x1="438" x2="278" y1="382" y2="451" /><line stroke="rgb(10%,10%,16%)" x1="182" x2="147" y1="588" y2="557" /><line stroke="rgb(10%,10%,16%)" x1="278" x2="147" y1="451" y2="557" /><line stroke="rgb(10%,10%,16%)" x1="108" x2="438" y1="145" y2="382" /><line stroke="rgb(10%,10%,16%)" x1="153" x2="114" y1="346" y2="560" /><line stroke="rgb(10%,10%,16%)" x1="108" x2="114" y1="145" y2="560" /><line stroke="rgb(10%,10%,16%)" x1="147" x2="114" y1="557" y2="560" /><line stroke="rgb(10%,10%,16%)" x1="278" x2="593" y1="451" y2="568" /><line stroke="rgb(10%,10%,16%)" x1="438" x2="593" y1="382" y2="568" /><line stroke="rgb(10%,10%,16%)" x1="182" x2="114" y1="588" y2="560" /><line stroke="rgb(10%,10%,16%)" x1="593" x2="182" y1="568" y2="588" /><circle cx="240" cy="445" fill="white" r="10" stroke="black" /><g font-size="12"><text x="236" y="450">0</text></g><circle cx="438" cy="382" fill="white" r="10" stroke="black" /><g font-size="12"><text x="434" y="387">1</text></g><circle cx="108" cy="145" fill="blue" r="10" stroke="black" /><g font-size="12"><text x="104" y="150">2</text></g><circle cx="278" cy="451" fill="blue" r="10" stroke="black" /><g font-size="12"><text x="274" y="456">3</text></g><circle cx="234" cy="431" fill="red" r="10" stroke="black" /><g font-size="12"><text x="230" y="436">4</text></g><circle cx="114" cy="560" fill="white" r="10" stroke="black" /><g font-size="12"><text x="110" y="565">5</text></g><circle cx="153" cy="346" fill="green" r="10" stroke="black" /><g font-size="12"><text x="149" y="351">6</text></g><circle cx="182" cy="588" fill="green" r="10" stroke="black" /><g font-size="12"><text x="178" y="593">7</text></g><circle cx="147" cy="557" fill="red" r="10" stroke="black" /><g font-size="12"><text x="143" y="562">8</text></g><circle cx="593" cy="568" fill="red" r="10" stroke="black" /><g font-size="12"><text x="589" y="573">9</text></g></svg>