<?xml version="1.0" encoding="utf-8" ?>
<svg baseProfile="full" height="700" version="1.1" width="700" xmlns="http://www.w3.org/2000/svg" xmlns:ev="http://www.w3.org/2001/xml-events" xmlns:xlink="http://www.w3.org/1999/xlink"><defs /><line stroke="rgb(10%,10%,16%)" x1="460" x2="472" y1="472" y2="463" /><line stroke="rgb(10%,10%,16%)" x1="472" x2="469" y1="463" y2="445" /><line stroke="rgb(10%,10%,16%)" x1="460" x2="469" y1="472" y2="445" /><line stroke="rgb(10%,10%,16%)" x1="469" x2="423" y1="445" y2="472" /><line stroke="rgb(10%,10%,16%)" x1="472" x2="513" y1="463" y2="481" /><line stroke="rgb(10%,10%,16%)" x1="469" x2="513" y1="445" y2="481" /><line stroke="rgb(10%,10%,16%)" x1="460" x2="423" y1="472" y2="472" /><line stroke="rgb(10%,10%,16%)" x1="423" x2="368" y1="472" y2="471" /><line stroke="rgb(10%,10%,16%)" x1="469" x2="547" y1="445" y2="459" /><line stroke="rgb(10%,10%,16%)" x1="513" x2="547" y1="481" y2="459" /><line stroke="rgb(10%,10%,16%)" x1="472" x2="511" y1="463" y2="568" /><line stroke="rgb(10%,10%,16%)" x1="513" x2="511" y1="481" y2="568" /><line stroke="rgb(10%,10%,16%)" x1="469" x2="368" y1="445" y2="471" /><line stroke="rgb(10%,10%,16%)" x1="423" x2="511" y1="472" y2="568" /><line stroke="rgb(10%,10%,16%)" x1="460" x2="511" y1="472" y2="568" /><line stroke="rgb(10%,10%,16%)" x1="368" x2="511" y1="471" y2="568" /><line stroke="rgb(10%,10%,16%)" x1="547" x2="511" y1="459" y2="568" /><line stroke="rgb(10%,10%,16%)" x1="469" x2="492" y1="445" y2="250" /><line stroke="rgb(10%,10%,16%)" x1="547" x2="492" y1="459" y2="250" /><line stroke="rgb(10%,10%,16%)" x1="511" x2="139" y1="568" y2="432" /><line stroke="rgb(10%,10%,16%)" x1="368" x2="310" y1="471" y2="251" /><line stroke="rgb(10%,10%,16%)" x1="469" x2="329" y1="445" y2="246" /><line stroke="rgb(10%,10%,16%)" x1="368" x2="329" y1="471" y2="246" /><line stroke="rgb(10%,10%,16%)" x1="547" x2="538" y1="459" y2="185" /><line stroke="rgb(10%,10%,16%)" x1="492" x2="538" y1="250" y2="185" /><line stroke="rgb(10%,10%,16%)" x1="469" x2="411" y1="445" y2="179" /><line stroke="rgb(10%,10%,16%)" x1="492" x2="435" y1="250" y2="169" /><line stroke="rgb(10%,10%,16%)" x1="139" x2="221" y1="432" y2="277" /><line stroke="rgb(10%,10%,16%)" x1="310" x2="329" y1="251" y2="246" /><line stroke="rgb(10%,10%,16%)" x1="368" x2="139" y1="471" y2="432" /><line stroke="rgb(10%,10%,16%)" x1="329" x2="304" y1="246" y2="208" /><line stroke="rgb(10%,10%,16%)" x1="469" x2="435" y1="445" y2="169" /><line stroke="rgb(10%,10%,16%)" x1="329" x2="411" y1="246" y2="179" /><line stroke="rgb(10%,10%,16%)" x1="368" x2="221" y1="471" y2="277" /><line stroke="rgb(10%,10%,16%)" x1="538" x2="435" y1="185" y2="169" /><line stroke="rgb(10%,10%,16%)" x1="538" x2="202" y1="185" y2="130" /><line stroke="rgb(10%,10%,16%)" x1="411" x2="435" y1="179" y2="169" /><line stroke="rgb(10%,10%,16%)" x1="435" x2="304" y1="169" y2="208" /><line stroke="rgb(10%,10%,16%)" x1="221" x2="164" y1="277" y2="254" /><line stroke="rgb(10%,10%,16%)" x1="139" x2="164" y1="432" y2="254" /><line stroke="rgb(10%,10%,16%)" x1="329" x2="164" y1="246" y2="254" /><line stroke="rgb(10%,10%,16%)" x1="310" x2="221" y1="251" y2="277" /><line stroke="rgb(10%,10%,16%)" x1="139" x2="111" y1="432" y2="133" /><line stroke="rgb(10%,10%,16%)" x1="304" x2="411" y1="208" y2="179" /><line stroke="rgb(10%,10%,16%)" x1="329" x2="202" y1="246" y2="130" /><line stroke="rgb(10%,10%,16%)" x1="435" x2="202" y1="169" y2="130" /><line stroke="rgb(10%,10%,16%)" x1="329" x2="111" y1="246" y2="133" /><line stroke="rgb(10%,10%,16%)" x1="202" x2="111" y1="130" y2="133" /><line stroke="rgb(10%,10%,16%)" x1="304" x2="202" y1="208" y2="130" /><line stroke="rgb(10%,10%,16%)" x1="164" x2="111" y1="254" y2="133" /><line stroke="rgb(10%,10%,16%)" x1="164" x2="310" y1="254" y2="251" /><circle cx="164" cy="254" fill="white" r="10" stroke="black" /><g font-size="12"><text x="160" y="259">0</text></g><circle cx="329" cy="246" fill="blue" r="10" stroke="black" /><g font-size="12"><text x="325" y="251">1</text></g><circle cx="538" cy="185" fill="white" r="10" stroke="black" /><g font-size="12"><text x="534" y="190">2</text></g><circle cx="460" cy="472" fill="white" r="10" stroke="black" /><g font-size="12"><text x="456" y="477">3</text></g><circle cx="423" cy="472" fill="blue" r="10" stroke="black" /><g font-size="12"><text x="419" y="477">4</text></g><circle cx="304" cy="208" fill="white" r="10" stroke="black" /><g font-size="12"><text x="300" y="213">5</text></g><circle cx="547" cy="459" fill="blue" r="10" stroke="black" /><g font-size="12"><text x="543" y="464">6</text></g><circle cx="139" cy="432" fill="blue" r="10" stroke="black" /><g font-size="12"><text x="135" y="437">7</text></g><circle cx="511" cy="568" fill="red" r="10" stroke="black" /><g font-size="12"><text x="507" y="573">8</text></g><circle cx="310" cy="251" fill="red" r="10" stroke="black" /><g font-size="12"><text x="306" y="256">9</text></g><circle cx="411" cy="179" fill="red" r="10" stroke="black" /><g font-size="12"><text x="407" y="184">10</text></g><circle cx="111" cy="133" fill="red" r="10" stroke="black" /><g font-size="12"><text x="107" y="138">11</text></g><circle cx="435" cy="169" fill="blue" r="10" stroke="black" /><g font-size="12"><text x="431" y="174">12</text></g><circle cx="469" cy="445" fill="green" r="10" stroke="black" /><g font-size="12"><text x="465" y="450">13</text></g><circle cx="368" cy="471" fill="white" r="10" stroke="black" /><g font-size="12"><text x="364" y="476">14</text></g><circle cx="472" cy="463" fill="blue" r="10" stroke="black" /><g font-size="12"><text x="468" y="468">15</text></g><circle cx="202" cy="130" fill="green" r="10" stroke="black" /><g font-size="12"><text x="198" y="135">16</text></g><circle cx="513" cy="481" fill="white" r="10" stroke="black" /><g font-size="12"><text x="509" y="486">17</text></g><circle cx="221" cy="277" fill="green" r="10" stroke="black" /><g font-size="12"><text x="217" y="282">18</text></g><circle cx="492" cy="250" fill="red" r="10" stroke="black" /><g font-size="12"><text x="488" y="255">19</text></g></svg>