<?xml version="1.0" encoding="utf-8" ?>
<svg baseProfile="full" height="700" version="1.1" width="700" xmlns="http://www.w3.org/2000/svg" xmlns:ev="http://www.w3.org/2001/xml-events" xmlns:xlink="http://www.w3.org/1999/xlink"><defs /><line stroke="rgb(10%,10%,16%)" x1="315" x2="287" y1="342" y2="340" /><line stroke="rgb(10%,10%,16%)" x1="287" x2="277" y1="340" y2="320" /><line stroke="rgb(10%,10%,16%)" x1="315" x2="277" y1="342" y2="320" /><line stroke="rgb(10%,10%,16%)" x1="277" x2="219" y1="320" y2="293" /><line stroke="rgb(10%,10%,16%)" x1="287" x2="219" y1="340" y2="293" /><line stroke="rgb(10%,10%,16%)" x1="277" x2="324" y1="320" y2="256" /><line stroke="rgb(10%,10%,16%)" x1="315" x2="378" y1="342" y2="361" /><line stroke="rgb(10%,10%,16%)" x1="219" x2="192" y1="293" y2="271" /><line stroke="rgb(10%,10%,16%)" x1="277" x2="335" y1="320" y2="241" /><line stroke="rgb(10%,10%,16%)" x1="219" x2="131" y1="293" y2="351" /><line stroke="rgb(10%,10%,16%)" x1="287" x2="378" y1="340" y2="361" /><line stroke="rgb(10%,10%,16%)" x1="324" x2="335" y1="256" y2="241" /><line stroke="rgb(10%,10%,16%)" x1="277" x2="192" y1="320" y2="271" /><line stroke="rgb(10%,10%,16%)" x1="378" x2="423" y1="361" y2="310" /><line stroke="rgb(10%,10%,16%)" x1="315" x2="324" y1="342" y2="256" /><line stroke="rgb(10%,10%,16%)" x1="192" x2="246" y1="271" y2="188" /><line stroke="rgb(10%,10%,16%)" x1="219" x2="210" y1="293" y2="409" /><line stroke="rgb(10%,10%,16%)" x1="335" x2="344" y1="241" y2="227" /><line stroke="rgb(10%,10%,16%)" x1="277" x2="344" y1="320" y2="227" /><line stroke="rgb(10%,10%,16%)" x1="131" x2="101" y1="351" y2="338" /><line stroke="rgb(10%,10%,16%)" x1="219" x2="101" y1="293" y2="338" /><line stroke="rgb(10%,10%,16%)" x1="378" x2="449" y1="361" y2="415" /><line stroke="rgb(10%,10%,16%)" x1="287" x2="210" y1="340" y2="409" /><line stroke="rgb(10%,10%,16%)" x1="335" x2="315" y1="241" y2="342" /><line stroke="rgb(10%,10%,16%)" x1="192" x2="231" y1="271" y2="172" /><line stroke="rgb(10%,10%,16%)" x1="277" x2="246" y1="320" y2="188" /><line stroke="rgb(10%,10%,16%)" x1="423" x2="449" y1="310" y2="415" /><line stroke="rgb(10%,10%,16%)" x1="378" x2="445" y1="361" y2="447" /><line stroke="rgb(10%,10%,16%)" x1="315" x2="423" y1="342" y2="310" /><line stroke="rgb(10%,10%,16%)" x1="246" x2="231" y1="188" y2="172" /><line stroke="rgb(10%,10%,16%)" x1="192" x2="192" y1="271" y2="161" /><line stroke="rgb(10%,10%,16%)" x1="210" x2="216" y1="409" y2="484" /><line stroke="rgb(10%,10%,16%)" x1="344" x2="246" y1="227" y2="188" /><line stroke="rgb(10%,10%,16%)" x1="335" x2="423" y1="241" y2="310" /><line stroke="rgb(10%,10%,16%)" x1="344" x2="415" y1="227" y2="148" /><line stroke="rgb(10%,10%,16%)" x1="101" x2="192" y1="338" y2="271" /><line stroke="rgb(10%,10%,16%)" x1="131" x2="210" y1="351" y2="409" /><line stroke="rgb(10%,10%,16%)" x1="101" x2="210" y1="338" y2="409" /><line stroke="rgb(10%,10%,16%)" x1="449" x2="445" y1="415" y2="447" /><line stroke="rgb(10%,10%,16%)" x1="378" x2="312" y1="361" y2="481" /><line stroke="rgb(10%,10%,16%)" x1="210" x2="304" y1="409" y2="479" /><line stroke="rgb(10%,10%,16%)" x1="287" x2="304" y1="340" y2="479" /><line stroke="rgb(10%,10%,16%)" x1="335" x2="415" y1="241" y2="148" /><line stroke="rgb(10%,10%,16%)" x1="231" x2="192" y1="172" y2="161" /><line stroke="rgb(10%,10%,16%)" x1="192" x2="188" y1="271" y2="159" /><line stroke="rgb(10%,10%,16%)" x1="246" x2="381" y1="188" y2="101" /><line stroke="rgb(10%,10%,16%)" x1="449" x2="471" y1="415" y2="483" /><line stroke="rgb(10%,10%,16%)" x1="423" x2="415" y1="310" y2="148" /><line stroke="rgb(10%,10%,16%)" x1="445" x2="471" y1="447" y2="483" /><line stroke="rgb(10%,10%,16%)" x1="378" x2="304" y1="361" y2="479" /><line stroke="rgb(10%,10%,16%)" x1="423" x2="573" y1="310" y2="397" /><line stroke="rgb(10%,10%,16%)" x1="231" x2="188" y1="172" y2="159" /><line stroke="rgb(10%,10%,16%)" x1="246" x2="415" y1="188" y2="148" /><line stroke="rgb(10%,10%,16%)" x1="192" x2="188" y1="161" y2="159" /><line stroke="rgb(10%,10%,16%)" x1="192" x2="184" y1="271" y2="152" /><line stroke="rgb(10%,10%,16%)" x1="216" x2="304" y1="484" y2="479" /><line stroke="rgb(10%,10%,16%)" x1="423" x2="471" y1="310" y2="483" /><line stroke="rgb(10%,10%,16%)" x1="415" x2="381" y1="148" y2="101" /><line stroke="rgb(10%,10%,16%)" x1="101" x2="216" y1="338" y2="484" /><line stroke="rgb(10%,10%,16%)" x1="101" x2="184" y1="338" y2="152" /><line stroke="rgb(10%,10%,16%)" x1="445" x2="470" y1="447" y2="524" /><line stroke="rgb(10%,10%,16%)" x1="312" x2="304" y1="481" y2="479" /><line stroke="rgb(10%,10%,16%)" x1="378" x2="470" y1="361" y2="524" /><line stroke="rgb(10%,10%,16%)" x1="304" x2="407" y1="479" y2="582" /><line stroke="rgb(10%,10%,16%)" x1="304" x2="470" y1="479" y2="524" /><line stroke="rgb(10%,10%,16%)" x1="415" x2="573" y1="148" y2="397" /><line stroke="rgb(10%,10%,16%)" x1="231" x2="184" y1="172" y2="152" /><line stroke="rgb(10%,10%,16%)" x1="188" x2="184" y1="159" y2="152" /><line stroke="rgb(10%,10%,16%)" x1="381" x2="231" y1="101" y2="172" /><line stroke="rgb(10%,10%,16%)" x1="471" x2="505" y1="483" y2="476" /><line stroke="rgb(10%,10%,16%)" x1="423" x2="505" y1="310" y2="476" /><line stroke="rgb(10%,10%,16%)" x1="471" x2="470" y1="483" y2="524" /><line stroke="rgb(10%,10%,16%)" x1="573" x2="505" y1="397" y2="476" /><line stroke="rgb(10%,10%,16%)" x1="184" x2="381" y1="152" y2="101" /><line stroke="rgb(10%,10%,16%)" x1="216" x2="407" y1="484" y2="582" /><line stroke="rgb(10%,10%,16%)" x1="470" x2="505" y1="524" y2="476" /><line stroke="rgb(10%,10%,16%)" x1="312" x2="470" y1="481" y2="524" /><line stroke="rgb(10%,10%,16%)" x1="470" x2="407" y1="524" y2="582" /><line stroke="rgb(10%,10%,16%)" x1="470" x2="573" y1="524" y2="397" /><circle cx="277" cy="320" fill="white" r="10" stroke="black" /><g font-size="12"><text x="273" y="325">0</text></g><circle cx="312" cy="481" fill="white" r="10" stroke="black" /><g font-size="12"><text x="308" y="486">1</text></g><circle cx="407" cy="582" fill="white" r="10" stroke="black" /><g font-size="12"><text x="403" y="587">2</text></g><circle cx="505" cy="476" fill="white" r="10" stroke="black" /><g font-size="12"><text x="501" y="481">3</text></g><circle cx="192" cy="271" fill="blue" r="10" stroke="black" /><g font-size="12"><text x="188" y="276">4</text></g><circle cx="246" cy="188" fill="red" r="10" stroke="black" /><g font-size="12"><text x="242" y="193">5</text></g><circle cx="304" cy="479" fill="blue" r="10" stroke="black" /><g font-size="12"><text x="300" y="484">6</text></g><circle cx="101" cy="338" fill="red" r="10" stroke="black" /><g font-size="12"><text x="97" y="343">7</text></g><circle cx="216" cy="484" fill="green" r="10" stroke="black" /><g font-size="12"><text x="212" y="489">8</text></g><circle cx="415" cy="148" fill="white" r="10" stroke="black" /><g font-size="12"><text x="411" y="153">9</text></g><circle cx="573" cy="397" fill="blue" r="10" stroke="black" /><g font-size="12"><text x="569" y="402">10</text></g><circle cx="471" cy="483" fill="green" r="10" stroke="black" /><g font-size="12"><text x="467" y="488">11</text></g><circle cx="188" cy="159" fill="red" r="10" stroke="black" /><g font-size="12"><text x="184" y="164">12</text></g><circle cx="287" cy="340" fill="red" r="10" stroke="black" /><g font-size="12"><text x="283" y="345">13</text></g><circle cx="344" cy="227" fill="blue" r="10" stroke="black" /><g font-size="12"><text x="340" y="232">14</text></g><circle cx="423" cy="310" fill="red" r="10" stroke="black" /><g font-size="12"><text x="419" y="315">15</text></g><circle cx="324" cy="256" fill="red" r="10" stroke="black" /><g font-size="12"><text x="320" y="261">16</text></g><circle cx="210" cy="409" fill="white" r="10" stroke="black" /><g font-size="12"><text x="206" y="414">17</text></g><circle cx="378" cy="361" fill="green" r="10" stroke="black" /><g font-size="12"><text x="374" y="366">18</text></g><circle cx="449" cy="415" fill="white" r="10" stroke="black" /><g font-size="12"><text x="445" y="420">19</text></g><circle cx="219" cy="293" fill="green" r="10" stroke="black" /><g font-size="12"><text x="215" y="298">20</text></g><circle cx="470" cy="524" fill="red" r="10" stroke="black" /><g font-size="12"><text x="466" y="529">21</text></g><circle cx="445" cy="447" fill="blue" r="10" stroke="black" /><g font-size="12"><text x="441" y="452">22</text></g><circle cx="315" cy="342" fill="blue" r="10" stroke="black" /><g font-size="12"><text x="311" y="347">23</text></g><circle cx="192" cy="161" fill="white" r="10" stroke="black" /><g font-size="12"><text x="188" y="166">24</text></g><circle cx="381" cy="101" fill="blue" r="10" stroke="black" /><g font-size="12"><text x="377" y="106">25</text></g><circle cx="131" cy="351" fill="blue" r="10" stroke="black" /><g font-size="12"><text x="127" y="356">26</text></g><circle cx="184" cy="152" fill="white" r="10" stroke="black" /><g font-size="12"><text x="180" y="157">27</text></g><circle cx="231" cy="172" fill="green" r="10" stroke="black" /><g font-size="12"><text x="227" y="177">28</text></g><circle cx="335" cy="241" fill="green" r="10" stroke="black" /><g font-size="12"><text x="331" y="246">29</text></g></svg>