<?xml version="1.0" encoding="utf-8" ?>
<svg baseProfile="full" height="700" version="1.1" width="700" xmlns="http://www.w3.org/2000/svg" xmlns:ev="http://www.w3.org/2001/xml-events" xmlns:xlink="http://www.w3.org/1999/xlink"><defs /><line stroke="rgb(10%,10%,16%)" x1="396" x2="253" y1="561" y2="570" /><line stroke="rgb(10%,10%,16%)" x1="253" x2="231" y1="570" y2="523" /><line stroke="rgb(10%,10%,16%)" x1="396" x2="438" y1="561" y2="400" /><line stroke="rgb(10%,10%,16%)" x1="231" x2="193" y1="523" y2="560" /><line stroke="rgb(10%,10%,16%)" x1="253" x2="193" y1="570" y2="560" /><line stroke="rgb(10%,10%,16%)" x1="438" x2="527" y1="400" y2="372" /><line stroke="rgb(10%,10%,16%)" x1="396" x2="231" y1="561" y2="523" /><line stroke="rgb(10%,10%,16%)" x1="193" x2="170" y1="560" y2="481" /><line stroke="rgb(10%,10%,16%)" x1="231" x2="170" y1="523" y2="481" /><line stroke="rgb(10%,10%,16%)" x1="527" x2="530" y1="372" y2="278" /><line stroke="rgb(10%,10%,16%)" x1="438" x2="396" y1="400" y2="274" /><line stroke="rgb(10%,10%,16%)" x1="231" x2="207" y1="523" y2="440" /><line stroke="rgb(10%,10%,16%)" x1="396" x2="207" y1="561" y2="440" /><line stroke="rgb(10%,10%,16%)" x1="170" x2="207" y1="481" y2="440" /><line stroke="rgb(10%,10%,16%)" x1="170" x2="311" y1="481" y2="111" /><line stroke="rgb(10%,10%,16%)" x1="530" x2="444" y1="278" y2="238" /><line stroke="rgb(10%,10%,16%)" x1="527" x2="444" y1="372" y2="238" /><line stroke="rgb(10%,10%,16%)" x1="396" x2="444" y1="274" y2="238" /><line stroke="rgb(10%,10%,16%)" x1="438" x2="444" y1="400" y2="238" /><line stroke="rgb(10%,10%,16%)" x1="207" x2="438" y1="440" y2="400" /><line stroke="rgb(10%,10%,16%)" x1="207" x2="396" y1="440" y2="274" /><line stroke="rgb(10%,10%,16%)" x1="396" x2="527" y1="561" y2="372" /><line stroke="rgb(10%,10%,16%)" x1="207" x2="311" y1="440" y2="111" /><line stroke="rgb(10%,10%,16%)" x1="311" x2="412" y1="111" y2="124" /><line stroke="rgb(10%,10%,16%)" x1="444" x2="477" y1="238" y2="183" /><line stroke="rgb(10%,10%,16%)" x1="530" x2="551" y1="278" y2="181" /><line stroke="rgb(10%,10%,16%)" x1="444" x2="412" y1="238" y2="124" /><line stroke="rgb(10%,10%,16%)" x1="527" x2="551" y1="372" y2="181" /><line stroke="rgb(10%,10%,16%)" x1="444" x2="551" y1="238" y2="181" /><line stroke="rgb(10%,10%,16%)" x1="396" x2="412" y1="274" y2="124" /><line stroke="rgb(10%,10%,16%)" x1="207" x2="412" y1="440" y2="124" /><line stroke="rgb(10%,10%,16%)" x1="412" x2="477" y1="124" y2="183" /><line stroke="rgb(10%,10%,16%)" x1="477" x2="551" y1="183" y2="181" /><line stroke="rgb(10%,10%,16%)" x1="551" x2="412" y1="181" y2="124" /><circle cx="527" cy="372" fill="white" r="10" stroke="black" /><g font-size="12"><text x="523" y="377">0</text></g><circle cx="231" cy="523" fill="white" r="10" stroke="black" /><g font-size="12"><text x="227" y="528">1</text></g><circle cx="311" cy="111" fill="white" r="10" stroke="black" /><g font-size="12"><text x="307" y="116">2</text></g><circle cx="193" cy="560" fill="blue" r="10" stroke="black" /><g font-size="12"><text x="189" y="565">3</text></g><circle cx="412" cy="124" fill="blue" r="10" stroke="black" /><g font-size="12"><text x="408" y="129">4</text></g><circle cx="444" cy="238" fill="red" r="10" stroke="black" /><g font-size="12"><text x="440" y="243">5</text></g><circle cx="396" cy="561" fill="blue" r="10" stroke="black" /><g font-size="12"><text x="392" y="566">6</text></g><circle cx="551" cy="181" fill="green" r="10" stroke="black" /><g font-size="12"><text x="547" y="186">7</text></g><circle cx="396" cy="274" fill="white" r="10" stroke="black" /><g font-size="12"><text x="392" y="279">8</text></g><circle cx="438" cy="400" fill="green" r="10" stroke="black" /><g font-size="12"><text x="434" y="405">9</text></g><circle cx="530" cy="278" fill="blue" r="10" stroke="black" /><g font-size="12"><text x="526" y="283">10</text></g><circle cx="253" cy="570" fill="red" r="10" stroke="black" /><g font-size="12"><text x="249" y="575">11</text></g><circle cx="170" cy="481" fill="green" r="10" stroke="black" /><g font-size="12"><text x="166" y="486">12</text></g><circle cx="477" cy="183" fill="white" r="10" stroke="black" /><g font-size="12"><text x="473" y="188">13</text></g><circle cx="207" cy="440" fill="red" r="10" stroke="black" /><g font-size="12"><text x="203" y="445">14</text></g></svg>