<?xml version="1.0" encoding="utf-8" ?>
<svg baseProfile="full" height="700" version="1.1" width="700" xmlns="http://www.w3.org/2000/svg" xmlns:ev="http://www.w3.org/2001/xml-events" xmlns:xlink="http://www.w3.org/1999/xlink"><defs /><line stroke="rgb(10%,10%,16%)" x1="568" x2="562" y1="176" y2="109" /><line stroke="rgb(10%,10%,16%)" x1="562" x2="409" y1="109" y2="153" /><line stroke="rgb(10%,10%,16%)" x1="568" x2="409" y1="176" y2="153" /><line stroke="rgb(10%,10%,16%)" x1="409" x2="298" y1="153" y2="203" /><line stroke="rgb(10%,10%,16%)" x1="409" x2="241" y1="153" y2="364" /><line stroke="rgb(10%,10%,16%)" x1="568" x2="410" y1="176" y2="444" /><line stroke="rgb(10%,10%,16%)" x1="298" x2="241" y1="203" y2="364" /><line stroke="rgb(10%,10%,16%)" x1="409" x2="410" y1="153" y2="444" /><line stroke="rgb(10%,10%,16%)" x1="241" x2="153" y1="364" y2="307" /><line stroke="rgb(10%,10%,16%)" x1="410" x2="555" y1="444" y2="552" /><line stroke="rgb(10%,10%,16%)" x1="568" x2="555" y1="176" y2="552" /><line stroke="rgb(10%,10%,16%)" x1="241" x2="107" y1="364" y2="480" /><line stroke="rgb(10%,10%,16%)" x1="298" x2="153" y1="203" y2="307" /><line stroke="rgb(10%,10%,16%)" x1="410" x2="241" y1="444" y2="364" /><line stroke="rgb(10%,10%,16%)" x1="153" x2="107" y1="307" y2="480" /><line stroke="rgb(10%,10%,16%)" x1="241" x2="555" y1="364" y2="552" /><line stroke="rgb(10%,10%,16%)" x1="555" x2="548" y1="552" y2="577" /><line stroke="rgb(10%,10%,16%)" x1="555" x2="107" y1="552" y2="480" /><line stroke="rgb(10%,10%,16%)" x1="107" x2="548" y1="480" y2="577" /><circle cx="562" cy="109" fill="white" r="10" stroke="black" /><g font-size="12"><text x="558" y="114">0</text></g><circle cx="410" cy="444" fill="white" r="10" stroke="black" /><g font-size="12"><text x="406" y="449">1</text></g><circle cx="153" cy="307" fill="white" r="10" stroke="black" /><g font-size="12"><text x="149" y="312">2</text></g><circle cx="568" cy="176" fill="blue" r="10" stroke="black" /><g font-size="12"><text x="564" y="181">3</text></g><circle cx="548" cy="577" fill="white" r="10" stroke="black" /><g font-size="12"><text x="544" y="582">4</text></g><circle cx="107" cy="480" fill="blue" r="10" stroke="black" /><g font-size="12"><text x="103" y="485">5</text></g><circle cx="555" cy="552" fill="red" r="10" stroke="black" /><g font-size="12"><text x="551" y="557">6</text></g><circle cx="241" cy="364" fill="green" r="10" stroke="black" /><g font-size="12"><text x="237" y="369">7</text></g><circle cx="409" cy="153" fill="red" r="10" stroke="black" /><g font-size="12"><text x="405" y="158">8</text></g><circle cx="298" cy="203" fill="blue" r="10" stroke="black" /><g font-size="12"><text x="294" y="208">9</text></g></svg>