<?xml version="1.0" encoding="utf-8" ?>
<svg baseProfile="full" height="700" version="1.1" width="700" xmlns="http://www.w3.org/2000/svg" xmlns:ev="http://www.w3.org/2001/xml-events" xmlns:xlink="http://www.w3.org/1999/xlink"><defs /><line stroke="rgb(10%,10%,16%)" x1="106" x2="232" y1="272" y2="295" /><line stroke="rgb(10%,10%,16%)" x1="232" x2="292" y1="295" y2="247" /><line stroke="rgb(10%,10%,16%)" x1="106" x2="201" y1="272" y2="371" /><line stroke="rgb(10%,10%,16%)" x1="292" x2="317" y1="247" y2="306" /><line stroke="rgb(10%,10%,16%)" x1="232" x2="205" y1="295" y2="372" /><line stroke="rgb(10%,10%,16%)" x1="201" x2="205" y1="371" y2="372" /><line stroke="rgb(10%,10%,16%)" x1="106" x2="205" y1="272" y2="372" /><line stroke="rgb(10%,10%,16%)" x1="317" x2="361" y1="306" y2="314" /><line stroke="rgb(10%,10%,16%)" x1="292" x2="376" y1="247" y2="239" /><line stroke="rgb(10%,10%,16%)" x1="205" x2="317" y1="372" y2="306" /><line stroke="rgb(10%,10%,16%)" x1="232" x2="317" y1="295" y2="306" /><line stroke="rgb(10%,10%,16%)" x1="205" x2="164" y1="372" y2="532" /><line stroke="rgb(10%,10%,16%)" x1="201" x2="164" y1="371" y2="532" /><line stroke="rgb(10%,10%,16%)" x1="205" x2="361" y1="372" y2="314" /><line stroke="rgb(10%,10%,16%)" x1="106" x2="292" y1="272" y2="247" /><line stroke="rgb(10%,10%,16%)" x1="361" x2="376" y1="314" y2="239" /><line stroke="rgb(10%,10%,16%)" x1="317" x2="376" y1="306" y2="239" /><line stroke="rgb(10%,10%,16%)" x1="376" x2="407" y1="239" y2="226" /><line stroke="rgb(10%,10%,16%)" x1="292" x2="407" y1="247" y2="226" /><line stroke="rgb(10%,10%,16%)" x1="205" x2="300" y1="372" y2="574" /><line stroke="rgb(10%,10%,16%)" x1="164" x2="300" y1="532" y2="574" /><line stroke="rgb(10%,10%,16%)" x1="205" x2="334" y1="372" y2="579" /><line stroke="rgb(10%,10%,16%)" x1="164" x2="106" y1="532" y2="272" /><line stroke="rgb(10%,10%,16%)" x1="361" x2="407" y1="314" y2="226" /><line stroke="rgb(10%,10%,16%)" x1="205" x2="409" y1="372" y2="540" /><line stroke="rgb(10%,10%,16%)" x1="292" x2="437" y1="247" y2="184" /><line stroke="rgb(10%,10%,16%)" x1="106" x2="437" y1="272" y2="184" /><line stroke="rgb(10%,10%,16%)" x1="361" x2="437" y1="314" y2="184" /><line stroke="rgb(10%,10%,16%)" x1="407" x2="437" y1="226" y2="184" /><line stroke="rgb(10%,10%,16%)" x1="300" x2="334" y1="574" y2="579" /><line stroke="rgb(10%,10%,16%)" x1="205" x2="514" y1="372" y2="327" /><line stroke="rgb(10%,10%,16%)" x1="334" x2="409" y1="579" y2="540" /><line stroke="rgb(10%,10%,16%)" x1="361" x2="514" y1="314" y2="327" /><line stroke="rgb(10%,10%,16%)" x1="409" x2="514" y1="540" y2="327" /><line stroke="rgb(10%,10%,16%)" x1="437" x2="514" y1="184" y2="327" /><circle cx="317" cy="306" fill="white" r="10" stroke="black" /><g font-size="12"><text x="313" y="311">0</text></g><circle cx="407" cy="226" fill="white" r="10" stroke="black" /><g font-size="12"><text x="403" y="231">1</text></g><circle cx="232" cy="295" fill="blue" r="10" stroke="black" /><g font-size="12"><text x="228" y="300">2</text></g><circle cx="334" cy="579" fill="white" r="10" stroke="black" /><g font-size="12"><text x="330" y="584">3</text></g><circle cx="292" cy="247" fill="red" r="10" stroke="black" /><g font-size="12"><text x="288" y="252">4</text></g><circle cx="376" cy="239" fill="blue" r="10" stroke="black" /><g font-size="12"><text x="372" y="244">5</text></g><circle cx="106" cy="272" fill="white" r="10" stroke="black" /><g font-size="12"><text x="102" y="277">6</text></g><circle cx="437" cy="184" fill="blue" r="10" stroke="black" /><g font-size="12"><text x="433" y="189">7</text></g><circle cx="164" cy="532" fill="blue" r="10" stroke="black" /><g font-size="12"><text x="160" y="537">8</text></g><circle cx="514" cy="327" fill="white" r="10" stroke="black" /><g font-size="12"><text x="510" y="332">9</text></g><circle cx="300" cy="574" fill="red" r="10" stroke="black" /><g font-size="12"><text x="296" y="579">10</text></g><circle cx="361" cy="314" fill="red" r="10" stroke="black" /><g font-size="12"><text x="357" y="319">11</text></g><circle cx="201" cy="371" fill="red" r="10" stroke="black" /><g font-size="12"><text x="197" y="376">12</text></g><circle cx="409" cy="540" fill="blue" r="10" stroke="black" /><g font-size="12"><text x="405" y="545">13</text></g><circle cx="205" cy="372" fill="green" r="10" stroke="black" /><g font-size="12"><text x="201" y="377">14</text></g></svg>