<?xml version="1.0" encoding="utf-8" ?>
<svg baseProfile="full" height="700" version="1.1" width="700" xmlns="http://www.w3.org/2000/svg" xmlns:ev="http://www.w3.org/2001/xml-events" xmlns:xlink="http://www.w3.org/1999/xlink"><defs /><line stroke="rgb(10%,10%,16%)" x1="430" x2="428" y1="597" y2="580" /><line stroke="rgb(10%,10%,16%)" x1="428" x2="364" y1="580" y2="572" /><line stroke="rgb(10%,10%,16%)" x1="430" x2="364" y1="597" y2="572" /><line stroke="rgb(10%,10%,16%)" x1="364" x2="327" y1="572" y2="394" /><line stroke="rgb(10%,10%,16%)" x1="428" x2="550" y1="580" y2="491" /><line stroke="rgb(10%,10%,16%)" x1="364" x2="173" y1="572" y2="508" /><line stroke="rgb(10%,10%,16%)" x1="430" x2="550" y1="597" y2="491" /><line stroke="rgb(10%,10%,16%)" x1="327" x2="308" y1="394" y2="263" /><line stroke="rgb(10%,10%,16%)" x1="364" x2="550" y1="572" y2="491" /><line stroke="rgb(10%,10%,16%)" x1="550" x2="327" y1="491" y2="394" /><line stroke="rgb(10%,10%,16%)" x1="173" x2="103" y1="508" y2="580" /><line stroke="rgb(10%,10%,16%)" x1="364" x2="103" y1="572" y2="580" /><line stroke="rgb(10%,10%,16%)" x1="550" x2="565" y1="491" y2="177" /><line stroke="rgb(10%,10%,16%)" x1="430" x2="103" y1="597" y2="580" /><line stroke="rgb(10%,10%,16%)" x1="308" x2="413" y1="263" y2="155" /><line stroke="rgb(10%,10%,16%)" x1="327" x2="173" y1="394" y2="508" /><line stroke="rgb(10%,10%,16%)" x1="550" x2="493" y1="491" y2="177" /><line stroke="rgb(10%,10%,16%)" x1="327" x2="123" y1="394" y2="293" /><line stroke="rgb(10%,10%,16%)" x1="550" x2="308" y1="491" y2="263" /><line stroke="rgb(10%,10%,16%)" x1="103" x2="123" y1="580" y2="293" /><line stroke="rgb(10%,10%,16%)" x1="173" x2="123" y1="508" y2="293" /><line stroke="rgb(10%,10%,16%)" x1="565" x2="493" y1="177" y2="177" /><line stroke="rgb(10%,10%,16%)" x1="550" x2="413" y1="491" y2="155" /><line stroke="rgb(10%,10%,16%)" x1="413" x2="422" y1="155" y2="126" /><line stroke="rgb(10%,10%,16%)" x1="308" x2="260" y1="263" y2="113" /><line stroke="rgb(10%,10%,16%)" x1="327" x2="260" y1="394" y2="113" /><line stroke="rgb(10%,10%,16%)" x1="493" x2="413" y1="177" y2="155" /><line stroke="rgb(10%,10%,16%)" x1="123" x2="152" y1="293" y2="141" /><line stroke="rgb(10%,10%,16%)" x1="327" x2="152" y1="394" y2="141" /><line stroke="rgb(10%,10%,16%)" x1="308" x2="422" y1="263" y2="126" /><line stroke="rgb(10%,10%,16%)" x1="493" x2="422" y1="177" y2="126" /><line stroke="rgb(10%,10%,16%)" x1="565" x2="422" y1="177" y2="126" /><line stroke="rgb(10%,10%,16%)" x1="422" x2="260" y1="126" y2="113" /><line stroke="rgb(10%,10%,16%)" x1="260" x2="152" y1="113" y2="141" /><circle cx="103" cy="580" fill="white" r="10" stroke="black" /><g font-size="12"><text x="99" y="585">0</text></g><circle cx="152" cy="141" fill="white" r="10" stroke="black" /><g font-size="12"><text x="148" y="146">1</text></g><circle cx="327" cy="394" fill="blue" r="10" stroke="black" /><g font-size="12"><text x="323" y="399">2</text></g><circle cx="413" cy="155" fill="white" r="10" stroke="black" /><g font-size="12"><text x="409" y="160">3</text></g><circle cx="308" cy="263" fill="red" r="10" stroke="black" /><g font-size="12"><text x="304" y="268">4</text></g><circle cx="260" cy="113" fill="green" r="10" stroke="black" /><g font-size="12"><text x="256" y="118">5</text></g><circle cx="173" cy="508" fill="green" r="10" stroke="black" /><g font-size="12"><text x="169" y="513">6</text></g><circle cx="493" cy="177" fill="red" r="10" stroke="black" /><g font-size="12"><text x="489" y="182">7</text></g><circle cx="565" cy="177" fill="white" r="10" stroke="black" /><g font-size="12"><text x="561" y="182">8</text></g><circle cx="428" cy="580" fill="white" r="10" stroke="black" /><g font-size="12"><text x="424" y="585">9</text></g><circle cx="364" cy="572" fill="red" r="10" stroke="black" /><g font-size="12"><text x="360" y="577">10</text></g><circle cx="430" cy="597" fill="blue" r="10" stroke="black" /><g font-size="12"><text x="426" y="602">11</text></g><circle cx="123" cy="293" fill="red" r="10" stroke="black" /><g font-size="12"><text x="119" y="298">12</text></g><circle cx="550" cy="491" fill="green" r="10" stroke="black" /><g font-size="12"><text x="546" y="496">13</text></g><circle cx="422" cy="126" fill="blue" r="10" stroke="black" /><g font-size="12"><text x="418" y="131">14</text></g></svg>