<?xml version="1.0" encoding="utf-8" ?>
<svg baseProfile="full" height="700" version="1.1" width="700" xmlns="http://www.w3.org/2000/svg" xmlns:ev="http://www.w3.org/2001/xml-events" xmlns:xlink="http://www.w3.org/1999/xlink"><defs /><line stroke="rgb(10%,10%,16%)" x1="456" x2="427" y1="531" y2="486" /><line stroke="rgb(10%,10%,16%)" x1="427" x2="485" y1="486" y2="479" /><line stroke="rgb(10%,10%,16%)" x1="456" x2="485" y1="531" y2="479" /><line stroke="rgb(10%,10%,16%)" x1="485" x2="570" y1="479" y2="563" /><line stroke="rgb(10%,10%,16%)" x1="427" x2="394" y1="486" y2="539" /><line stroke="rgb(10%,10%,16%)" x1="485" x2="590" y1="479" y2="553" /><line stroke="rgb(10%,10%,16%)" x1="456" x2="394" y1="531" y2="539" /><line stroke="rgb(10%,10%,16%)" x1="570" x2="590" y1="563" y2="553" /><line stroke="rgb(10%,10%,16%)" x1="485" x2="301" y1="479" y2="440" /><line stroke="rgb(10%,10%,16%)" x1="394" x2="301" y1="539" y2="440" /><line stroke="rgb(10%,10%,16%)" x1="427" x2="301" y1="486" y2="440" /><line stroke="rgb(10%,10%,16%)" x1="590" x2="408" y1="553" y2="163" /><line stroke="rgb(10%,10%,16%)" x1="485" x2="201" y1="479" y2="353" /><line stroke="rgb(10%,10%,16%)" x1="394" x2="570" y1="539" y2="563" /><line stroke="rgb(10%,10%,16%)" x1="456" x2="570" y1="531" y2="563" /><line stroke="rgb(10%,10%,16%)" x1="570" x2="137" y1="563" y2="575" /><line stroke="rgb(10%,10%,16%)" x1="301" x2="201" y1="440" y2="353" /><line stroke="rgb(10%,10%,16%)" x1="485" x2="408" y1="479" y2="163" /><line stroke="rgb(10%,10%,16%)" x1="301" x2="137" y1="440" y2="575" /><line stroke="rgb(10%,10%,16%)" x1="394" x2="137" y1="539" y2="575" /><line stroke="rgb(10%,10%,16%)" x1="408" x2="201" y1="163" y2="353" /><line stroke="rgb(10%,10%,16%)" x1="201" x2="137" y1="353" y2="575" /><circle cx="408" cy="163" fill="white" r="10" stroke="black" /><g font-size="12"><text x="404" y="168">0</text></g><circle cx="456" cy="531" fill="white" r="10" stroke="black" /><g font-size="12"><text x="452" y="536">1</text></g><circle cx="201" cy="353" fill="blue" r="10" stroke="black" /><g font-size="12"><text x="197" y="358">2</text></g><circle cx="570" cy="563" fill="blue" r="10" stroke="black" /><g font-size="12"><text x="566" y="568">3</text></g><circle cx="590" cy="553" fill="red" r="10" stroke="black" /><g font-size="12"><text x="586" y="558">4</text></g><circle cx="137" cy="575" fill="white" r="10" stroke="black" /><g font-size="12"><text x="133" y="580">5</text></g><circle cx="301" cy="440" fill="red" r="10" stroke="black" /><g font-size="12"><text x="297" y="445">6</text></g><circle cx="485" cy="479" fill="green" r="10" stroke="black" /><g font-size="12"><text x="481" y="484">7</text></g><circle cx="394" cy="539" fill="green" r="10" stroke="black" /><g font-size="12"><text x="390" y="544">8</text></g><circle cx="427" cy="486" fill="blue" r="10" stroke="black" /><g font-size="12"><text x="423" y="491">9</text></g></svg>