<?xml version="1.0" encoding="utf-8" ?>
<svg baseProfile="full" height="700" version="1.1" width="700" xmlns="http://www.w3.org/2000/svg" xmlns:ev="http://www.w3.org/2001/xml-events" xmlns:xlink="http://www.w3.org/1999/xlink"><defs /><line stroke="rgb(10%,10%,16%)" x1="125" x2="132" y1="470" y2="436" /><line stroke="rgb(10%,10%,16%)" x1="132" x2="145" y1="436" y2="356" /><line stroke="rgb(10%,10%,16%)" x1="125" x2="129" y1="470" y2="572" /><line stroke="rgb(10%,10%,16%)" x1="145" x2="125" y1="356" y2="470" /><line stroke="rgb(10%,10%,16%)" x1="132" x2="129" y1="436" y2="572" /><line stroke="rgb(10%,10%,16%)" x1="129" x2="242" y1="572" y2="532" /><line stroke="rgb(10%,10%,16%)" x1="125" x2="142" y1="470" y2="126" /><line stroke="rgb(10%,10%,16%)" x1="125" x2="184" y1="470" y2="111" /><line stroke="rgb(10%,10%,16%)" x1="145" x2="182" y1="356" y2="240" /><line stroke="rgb(10%,10%,16%)" x1="129" x2="145" y1="572" y2="356" /><line stroke="rgb(10%,10%,16%)" x1="242" x2="315" y1="532" y2="413" /><line stroke="rgb(10%,10%,16%)" x1="129" x2="315" y1="572" y2="413" /><line stroke="rgb(10%,10%,16%)" x1="142" x2="184" y1="126" y2="111" /><line stroke="rgb(10%,10%,16%)" x1="184" x2="182" y1="111" y2="240" /><line stroke="rgb(10%,10%,16%)" x1="182" x2="238" y1="240" y2="230" /><line stroke="rgb(10%,10%,16%)" x1="145" x2="245" y1="356" y2="268" /><line stroke="rgb(10%,10%,16%)" x1="145" x2="243" y1="356" y2="247" /><line stroke="rgb(10%,10%,16%)" x1="129" x2="374" y1="572" y2="486" /><line stroke="rgb(10%,10%,16%)" x1="315" x2="334" y1="413" y2="408" /><line stroke="rgb(10%,10%,16%)" x1="242" x2="374" y1="532" y2="486" /><line stroke="rgb(10%,10%,16%)" x1="315" x2="374" y1="413" y2="486" /><line stroke="rgb(10%,10%,16%)" x1="129" x2="406" y1="572" y2="543" /><line stroke="rgb(10%,10%,16%)" x1="184" x2="238" y1="111" y2="230" /><line stroke="rgb(10%,10%,16%)" x1="182" x2="243" y1="240" y2="247" /><line stroke="rgb(10%,10%,16%)" x1="184" x2="290" y1="111" y2="253" /><line stroke="rgb(10%,10%,16%)" x1="238" x2="243" y1="230" y2="247" /><line stroke="rgb(10%,10%,16%)" x1="245" x2="243" y1="268" y2="247" /><line stroke="rgb(10%,10%,16%)" x1="145" x2="290" y1="356" y2="253" /><line stroke="rgb(10%,10%,16%)" x1="243" x2="290" y1="247" y2="253" /><line stroke="rgb(10%,10%,16%)" x1="145" x2="315" y1="356" y2="413" /><line stroke="rgb(10%,10%,16%)" x1="374" x2="394" y1="486" y2="483" /><line stroke="rgb(10%,10%,16%)" x1="129" x2="394" y1="572" y2="483" /><line stroke="rgb(10%,10%,16%)" x1="334" x2="374" y1="408" y2="486" /><line stroke="rgb(10%,10%,16%)" x1="315" x2="290" y1="413" y2="253" /><line stroke="rgb(10%,10%,16%)" x1="374" x2="450" y1="486" y2="388" /><line stroke="rgb(10%,10%,16%)" x1="374" x2="549" y1="486" y2="392" /><line stroke="rgb(10%,10%,16%)" x1="315" x2="424" y1="413" y2="272" /><line stroke="rgb(10%,10%,16%)" x1="406" x2="425" y1="543" y2="579" /><line stroke="rgb(10%,10%,16%)" x1="129" x2="425" y1="572" y2="579" /><line stroke="rgb(10%,10%,16%)" x1="238" x2="290" y1="230" y2="253" /><line stroke="rgb(10%,10%,16%)" x1="184" x2="354" y1="111" y2="233" /><line stroke="rgb(10%,10%,16%)" x1="290" x2="245" y1="253" y2="268" /><line stroke="rgb(10%,10%,16%)" x1="184" x2="382" y1="111" y2="190" /><line stroke="rgb(10%,10%,16%)" x1="290" x2="354" y1="253" y2="233" /><line stroke="rgb(10%,10%,16%)" x1="145" x2="184" y1="356" y2="111" /><line stroke="rgb(10%,10%,16%)" x1="290" x2="424" y1="253" y2="272" /><line stroke="rgb(10%,10%,16%)" x1="315" x2="454" y1="413" y2="291" /><line stroke="rgb(10%,10%,16%)" x1="394" x2="406" y1="483" y2="543" /><line stroke="rgb(10%,10%,16%)" x1="374" x2="454" y1="486" y2="291" /><line stroke="rgb(10%,10%,16%)" x1="394" x2="425" y1="483" y2="579" /><line stroke="rgb(10%,10%,16%)" x1="129" x2="427" y1="572" y2="585" /><line stroke="rgb(10%,10%,16%)" x1="374" x2="497" y1="486" y2="307" /><line stroke="rgb(10%,10%,16%)" x1="334" x2="454" y1="408" y2="291" /><line stroke="rgb(10%,10%,16%)" x1="290" x2="482" y1="253" y2="242" /><line stroke="rgb(10%,10%,16%)" x1="315" x2="482" y1="413" y2="242" /><line stroke="rgb(10%,10%,16%)" x1="450" x2="497" y1="388" y2="307" /><line stroke="rgb(10%,10%,16%)" x1="374" x2="482" y1="486" y2="242" /><line stroke="rgb(10%,10%,16%)" x1="549" x2="450" y1="392" y2="388" /><line stroke="rgb(10%,10%,16%)" x1="424" x2="482" y1="272" y2="242" /><line stroke="rgb(10%,10%,16%)" x1="425" x2="427" y1="579" y2="585" /><line stroke="rgb(10%,10%,16%)" x1="425" x2="549" y1="579" y2="392" /><line stroke="rgb(10%,10%,16%)" x1="290" x2="595" y1="253" y2="220" /><line stroke="rgb(10%,10%,16%)" x1="354" x2="382" y1="233" y2="190" /><line stroke="rgb(10%,10%,16%)" x1="184" x2="397" y1="111" y2="141" /><line stroke="rgb(10%,10%,16%)" x1="382" x2="397" y1="190" y2="141" /><line stroke="rgb(10%,10%,16%)" x1="354" x2="595" y1="233" y2="220" /><line stroke="rgb(10%,10%,16%)" x1="454" x2="482" y1="291" y2="242" /><line stroke="rgb(10%,10%,16%)" x1="394" x2="549" y1="483" y2="392" /><line stroke="rgb(10%,10%,16%)" x1="427" x2="549" y1="585" y2="392" /><line stroke="rgb(10%,10%,16%)" x1="497" x2="482" y1="307" y2="242" /><line stroke="rgb(10%,10%,16%)" x1="482" x2="556" y1="242" y2="267" /><line stroke="rgb(10%,10%,16%)" x1="482" x2="595" y1="242" y2="220" /><line stroke="rgb(10%,10%,16%)" x1="497" x2="556" y1="307" y2="267" /><line stroke="rgb(10%,10%,16%)" x1="450" x2="556" y1="388" y2="267" /><line stroke="rgb(10%,10%,16%)" x1="549" x2="556" y1="392" y2="267" /><line stroke="rgb(10%,10%,16%)" x1="549" x2="595" y1="392" y2="220" /><line stroke="rgb(10%,10%,16%)" x1="595" x2="556" y1="220" y2="267" /><line stroke="rgb(10%,10%,16%)" x1="382" x2="595" y1="190" y2="220" /><line stroke="rgb(10%,10%,16%)" x1="397" x2="595" y1="141" y2="220" /><circle cx="334" cy="408" fill="white" r="10" stroke="black" /><g font-size="12"><text x="330" y="413">0</text></g><circle cx="243" cy="247" fill="white" r="10" stroke="black" /><g font-size="12"><text x="239" y="252">1</text></g><circle cx="242" cy="532" fill="white" r="10" stroke="black" /><g font-size="12"><text x="238" y="537">2</text></g><circle cx="497" cy="307" fill="blue" r="10" stroke="black" /><g font-size="12"><text x="493" y="312">3</text></g><circle cx="184" cy="111" fill="white" r="10" stroke="black" /><g font-size="12"><text x="180" y="116">4</text></g><circle cx="182" cy="240" fill="blue" r="10" stroke="black" /><g font-size="12"><text x="178" y="245">5</text></g><circle cx="595" cy="220" fill="blue" r="10" stroke="black" /><g font-size="12"><text x="591" y="225">6</text></g><circle cx="382" cy="190" fill="red" r="10" stroke="black" /><g font-size="12"><text x="378" y="195">7</text></g><circle cx="315" cy="413" fill="blue" r="10" stroke="black" /><g font-size="12"><text x="311" y="418">8</text></g><circle cx="450" cy="388" fill="white" r="10" stroke="black" /><g font-size="12"><text x="446" y="393">9</text></g><circle cx="397" cy="141" fill="green" r="10" stroke="black" /><g font-size="12"><text x="393" y="146">10</text></g><circle cx="374" cy="486" fill="green" r="10" stroke="black" /><g font-size="12"><text x="370" y="491">11</text></g><circle cx="549" cy="392" fill="red" r="10" stroke="black" /><g font-size="12"><text x="545" y="397">12</text></g><circle cx="482" cy="242" fill="white" r="10" stroke="black" /><g font-size="12"><text x="478" y="247">13</text></g><circle cx="424" cy="272" fill="green" r="10" stroke="black" /><g font-size="12"><text x="420" y="277">14</text></g><circle cx="142" cy="126" fill="red" r="10" stroke="black" /><g font-size="12"><text x="138" y="131">15</text></g><circle cx="145" cy="356" fill="green" r="10" stroke="black" /><g font-size="12"><text x="141" y="361">16</text></g><circle cx="132" cy="436" fill="white" r="10" stroke="black" /><g font-size="12"><text x="128" y="441">17</text></g><circle cx="556" cy="267" fill="green" r="10" stroke="black" /><g font-size="12"><text x="552" y="272">18</text></g><circle cx="427" cy="585" fill="white" r="10" stroke="black" /><g font-size="12"><text x="423" y="590">19</text></g><circle cx="129" cy="572" fill="red" r="10" stroke="black" /><g font-size="12"><text x="125" y="577">20</text></g><circle cx="245" cy="268" fill="blue" r="10" stroke="black" /><g font-size="12"><text x="241" y="273">21</text></g><circle cx="125" cy="470" fill="blue" r="10" stroke="black" /><g font-size="12"><text x="121" y="475">22</text></g><circle cx="406" cy="543" fill="white" r="10" stroke="black" /><g font-size="12"><text x="402" y="548">23</text></g><circle cx="394" cy="483" fill="blue" r="10" stroke="black" /><g font-size="12"><text x="390" y="488">24</text></g><circle cx="454" cy="291" fill="red" r="10" stroke="black" /><g font-size="12"><text x="450" y="296">25</text></g><circle cx="238" cy="230" fill="green" r="10" stroke="black" /><g font-size="12"><text x="234" y="235">26</text></g><circle cx="290" cy="253" fill="red" r="10" stroke="black" /><g font-size="12"><text x="286" y="258">27</text></g><circle cx="354" cy="233" fill="green" r="10" stroke="black" /><g font-size="12"><text x="350" y="238">28</text></g><circle cx="425" cy="579" fill="green" r="10" stroke="black" /><g font-size="12"><text x="421" y="584">29</text></g></svg>