<?xml version="1.0" encoding="utf-8" ?>
<svg baseProfile="full" height="700" version="1.1" width="700" xmlns="http://www.w3.org/2000/svg" xmlns:ev="http://www.w3.org/2001/xml-events" xmlns:xlink="http://www.w3.org/1999/xlink"><defs /><line stroke="rgb(10%,10%,16%)" x1="582" x2="552" y1="288" y2="326" /><line stroke="rgb(10%,10%,16%)" x1="552" x2="559" y1="326" y2="348" /><line stroke="rgb(10%,10%,16%)" x1="582" x2="550" y1="288" y2="248" /><line stroke="rgb(10%,10%,16%)" x1="559" x2="582" y1="348" y2="288" /><line stroke="rgb(10%,10%,16%)" x1="552" x2="503" y1="326" y2="287" /><line stroke="rgb(10%,10%,16%)" x1="550" x2="503" y1="248" y2="287" /><line stroke="rgb(10%,10%,16%)" x1="582" x2="503" y1="288" y2="287" /><line stroke="rgb(10%,10%,16%)" x1="582" x2="460" y1="288" y2="110" /><line stroke="rgb(10%,10%,16%)" x1="559" x2="503" y1="348" y2="287" /><line stroke="rgb(10%,10%,16%)" x1="503" x2="397" y1="287" y2="283" /><line stroke="rgb(10%,10%,16%)" x1="503" x2="409" y1="287" y2="233" /><line stroke="rgb(10%,10%,16%)" x1="550" x2="434" y1="248" y2="184" /><line stroke="rgb(10%,10%,16%)" x1="503" x2="434" y1="287" y2="184" /><line stroke="rgb(10%,10%,16%)" x1="582" x2="505" y1="288" y2="592" /><line stroke="rgb(10%,10%,16%)" x1="460" x2="434" y1="110" y2="184" /><line stroke="rgb(10%,10%,16%)" x1="503" x2="393" y1="287" y2="224" /><line stroke="rgb(10%,10%,16%)" x1="559" x2="431" y1="348" y2="398" /><line stroke="rgb(10%,10%,16%)" x1="397" x2="393" y1="283" y2="224" /><line stroke="rgb(10%,10%,16%)" x1="503" x2="431" y1="287" y2="398" /><line stroke="rgb(10%,10%,16%)" x1="409" x2="393" y1="233" y2="224" /><line stroke="rgb(10%,10%,16%)" x1="503" x2="341" y1="287" y2="318" /><line stroke="rgb(10%,10%,16%)" x1="434" x2="409" y1="184" y2="233" /><line stroke="rgb(10%,10%,16%)" x1="550" x2="460" y1="248" y2="110" /><line stroke="rgb(10%,10%,16%)" x1="434" x2="393" y1="184" y2="224" /><line stroke="rgb(10%,10%,16%)" x1="503" x2="315" y1="287" y2="350" /><line stroke="rgb(10%,10%,16%)" x1="505" x2="370" y1="592" y2="515" /><line stroke="rgb(10%,10%,16%)" x1="434" x2="304" y1="184" y2="126" /><line stroke="rgb(10%,10%,16%)" x1="460" x2="304" y1="110" y2="126" /><line stroke="rgb(10%,10%,16%)" x1="393" x2="341" y1="224" y2="318" /><line stroke="rgb(10%,10%,16%)" x1="503" x2="309" y1="287" y2="413" /><line stroke="rgb(10%,10%,16%)" x1="431" x2="309" y1="398" y2="413" /><line stroke="rgb(10%,10%,16%)" x1="559" x2="505" y1="348" y2="592" /><line stroke="rgb(10%,10%,16%)" x1="393" x2="293" y1="224" y2="307" /><line stroke="rgb(10%,10%,16%)" x1="397" x2="341" y1="283" y2="318" /><line stroke="rgb(10%,10%,16%)" x1="431" x2="370" y1="398" y2="515" /><line stroke="rgb(10%,10%,16%)" x1="503" x2="219" y1="287" y2="468" /><line stroke="rgb(10%,10%,16%)" x1="393" x2="304" y1="224" y2="126" /><line stroke="rgb(10%,10%,16%)" x1="341" x2="315" y1="318" y2="350" /><line stroke="rgb(10%,10%,16%)" x1="503" x2="195" y1="287" y2="456" /><line stroke="rgb(10%,10%,16%)" x1="460" x2="106" y1="110" y2="120" /><line stroke="rgb(10%,10%,16%)" x1="393" x2="315" y1="224" y2="350" /><line stroke="rgb(10%,10%,16%)" x1="315" x2="293" y1="350" y2="307" /><line stroke="rgb(10%,10%,16%)" x1="370" x2="355" y1="515" y2="537" /><line stroke="rgb(10%,10%,16%)" x1="505" x2="355" y1="592" y2="537" /><line stroke="rgb(10%,10%,16%)" x1="304" x2="228" y1="126" y2="190" /><line stroke="rgb(10%,10%,16%)" x1="304" x2="243" y1="126" y2="232" /><line stroke="rgb(10%,10%,16%)" x1="393" x2="243" y1="224" y2="232" /><line stroke="rgb(10%,10%,16%)" x1="309" x2="219" y1="413" y2="468" /><line stroke="rgb(10%,10%,16%)" x1="309" x2="370" y1="413" y2="515" /><line stroke="rgb(10%,10%,16%)" x1="431" x2="505" y1="398" y2="592" /><line stroke="rgb(10%,10%,16%)" x1="505" x2="153" y1="592" y2="557" /><line stroke="rgb(10%,10%,16%)" x1="293" x2="223" y1="307" y2="336" /><line stroke="rgb(10%,10%,16%)" x1="393" x2="219" y1="224" y2="256" /><line stroke="rgb(10%,10%,16%)" x1="370" x2="219" y1="515" y2="468" /><line stroke="rgb(10%,10%,16%)" x1="219" x2="195" y1="468" y2="456" /><line stroke="rgb(10%,10%,16%)" x1="304" x2="219" y1="126" y2="256" /><line stroke="rgb(10%,10%,16%)" x1="393" x2="211" y1="224" y2="300" /><line stroke="rgb(10%,10%,16%)" x1="315" x2="223" y1="350" y2="336" /><line stroke="rgb(10%,10%,16%)" x1="195" x2="153" y1="456" y2="557" /><line stroke="rgb(10%,10%,16%)" x1="106" x2="121" y1="120" y2="210" /><line stroke="rgb(10%,10%,16%)" x1="315" x2="195" y1="350" y2="456" /><line stroke="rgb(10%,10%,16%)" x1="393" x2="223" y1="224" y2="336" /><line stroke="rgb(10%,10%,16%)" x1="355" x2="219" y1="537" y2="468" /><line stroke="rgb(10%,10%,16%)" x1="355" x2="195" y1="537" y2="456" /><line stroke="rgb(10%,10%,16%)" x1="228" x2="200" y1="190" y2="250" /><line stroke="rgb(10%,10%,16%)" x1="304" x2="200" y1="126" y2="250" /><line stroke="rgb(10%,10%,16%)" x1="243" x2="219" y1="232" y2="256" /><line stroke="rgb(10%,10%,16%)" x1="304" x2="106" y1="126" y2="120" /><line stroke="rgb(10%,10%,16%)" x1="153" x2="355" y1="557" y2="537" /><line stroke="rgb(10%,10%,16%)" x1="223" x2="211" y1="336" y2="300" /><line stroke="rgb(10%,10%,16%)" x1="219" x2="200" y1="256" y2="250" /><line stroke="rgb(10%,10%,16%)" x1="195" x2="223" y1="456" y2="336" /><line stroke="rgb(10%,10%,16%)" x1="219" x2="211" y1="256" y2="300" /><line stroke="rgb(10%,10%,16%)" x1="304" x2="121" y1="126" y2="210" /><line stroke="rgb(10%,10%,16%)" x1="211" x2="200" y1="300" y2="250" /><line stroke="rgb(10%,10%,16%)" x1="223" x2="121" y1="336" y2="210" /><line stroke="rgb(10%,10%,16%)" x1="153" x2="223" y1="557" y2="336" /><line stroke="rgb(10%,10%,16%)" x1="121" x2="200" y1="210" y2="250" /><line stroke="rgb(10%,10%,16%)" x1="106" x2="153" y1="120" y2="557" /><line stroke="rgb(10%,10%,16%)" x1="228" x2="121" y1="190" y2="210" /><line stroke="rgb(10%,10%,16%)" x1="153" x2="121" y1="557" y2="210" /><line stroke="rgb(10%,10%,16%)" x1="211" x2="121" y1="300" y2="210" /><circle cx="293" cy="307" fill="white" r="10" stroke="black" /><g font-size="12"><text x="289" y="312">0</text></g><circle cx="243" cy="232" fill="white" r="10" stroke="black" /><g font-size="12"><text x="239" y="237">1</text></g><circle cx="397" cy="283" fill="blue" r="10" stroke="black" /><g font-size="12"><text x="393" y="288">2</text></g><circle cx="153" cy="557" fill="white" r="10" stroke="black" /><g font-size="12"><text x="149" y="562">3</text></g><circle cx="370" cy="515" fill="white" r="10" stroke="black" /><g font-size="12"><text x="366" y="520">4</text></g><circle cx="304" cy="126" fill="blue" r="10" stroke="black" /><g font-size="12"><text x="300" y="131">5</text></g><circle cx="121" cy="210" fill="red" r="10" stroke="black" /><g font-size="12"><text x="117" y="215">6</text></g><circle cx="219" cy="468" fill="blue" r="10" stroke="black" /><g font-size="12"><text x="215" y="473">7</text></g><circle cx="106" cy="120" fill="green" r="10" stroke="black" /><g font-size="12"><text x="102" y="125">8</text></g><circle cx="200" cy="250" fill="white" r="10" stroke="black" /><g font-size="12"><text x="196" y="255">9</text></g><circle cx="211" cy="300" fill="blue" r="10" stroke="black" /><g font-size="12"><text x="207" y="305">10</text></g><circle cx="559" cy="348" fill="blue" r="10" stroke="black" /><g font-size="12"><text x="555" y="353">11</text></g><circle cx="434" cy="184" fill="green" r="10" stroke="black" /><g font-size="12"><text x="430" y="189">12</text></g><circle cx="393" cy="224" fill="red" r="10" stroke="black" /><g font-size="12"><text x="389" y="229">13</text></g><circle cx="503" cy="287" fill="white" r="10" stroke="black" /><g font-size="12"><text x="499" y="292">14</text></g><circle cx="409" cy="233" fill="blue" r="10" stroke="black" /><g font-size="12"><text x="405" y="238">15</text></g><circle cx="550" cy="248" fill="blue" r="10" stroke="black" /><g font-size="12"><text x="546" y="253">16</text></g><circle cx="460" cy="110" fill="white" r="10" stroke="black" /><g font-size="12"><text x="456" y="115">17</text></g><circle cx="228" cy="190" fill="green" r="10" stroke="black" /><g font-size="12"><text x="224" y="195">18</text></g><circle cx="219" cy="256" fill="green" r="10" stroke="black" /><g font-size="12"><text x="215" y="261">19</text></g><circle cx="315" cy="350" fill="blue" r="10" stroke="black" /><g font-size="12"><text x="311" y="355">20</text></g><circle cx="309" cy="413" fill="red" r="10" stroke="black" /><g font-size="12"><text x="305" y="418">21</text></g><circle cx="355" cy="537" fill="green" r="10" stroke="black" /><g font-size="12"><text x="351" y="542">22</text></g><circle cx="552" cy="326" fill="red" r="10" stroke="black" /><g font-size="12"><text x="548" y="331">23</text></g><circle cx="223" cy="336" fill="green" r="10" stroke="black" /><g font-size="12"><text x="219" y="341">24</text></g><circle cx="582" cy="288" fill="green" r="10" stroke="black" /><g font-size="12"><text x="578" y="293">25</text></g><circle cx="195" cy="456" fill="red" r="10" stroke="black" /><g font-size="12"><text x="191" y="461">26</text></g><circle cx="505" cy="592" fill="red" r="10" stroke="black" /><g font-size="12"><text x="501" y="597">27</text></g><circle cx="341" cy="318" fill="green" r="10" stroke="black" /><g font-size="12"><text x="337" y="323">28</text></g><circle cx="431" cy="398" fill="green" r="10" stroke="black" /><g font-size="12"><text x="427" y="403">29</text></g></svg>