<?xml version="1.0" encoding="utf-8" ?>
<svg baseProfile="full" height="700" version="1.1" width="700" xmlns="http://www.w3.org/2000/svg" xmlns:ev="http://www.w3.org/2001/xml-events" xmlns:xlink="http://www.w3.org/1999/xlink"><defs /><line stroke="rgb(10%,10%,16%)" x1="401" x2="378" y1="179" y2="153" /><line stroke="rgb(10%,10%,16%)" x1="378" x2="461" y1="153" y2="148" /><line stroke="rgb(10%,10%,16%)" x1="401" x2="461" y1="179" y2="148" /><line stroke="rgb(10%,10%,16%)" x1="461" x2="543" y1="148" y2="238" /><line stroke="rgb(10%,10%,16%)" x1="378" x2="274" y1="153" y2="194" /><line stroke="rgb(10%,10%,16%)" x1="461" x2="573" y1="148" y2="234" /><line stroke="rgb(10%,10%,16%)" x1="401" x2="294" y1="179" y2="242" /><line stroke="rgb(10%,10%,16%)" x1="543" x2="573" y1="238" y2="234" /><line stroke="rgb(10%,10%,16%)" x1="461" x2="294" y1="148" y2="242" /><line stroke="rgb(10%,10%,16%)" x1="274" x2="294" y1="194" y2="242" /><line stroke="rgb(10%,10%,16%)" x1="378" x2="294" y1="153" y2="242" /><line stroke="rgb(10%,10%,16%)" x1="573" x2="412" y1="234" y2="449" /><line stroke="rgb(10%,10%,16%)" x1="461" x2="289" y1="148" y2="290" /><line stroke="rgb(10%,10%,16%)" x1="294" x2="289" y1="242" y2="290" /><line stroke="rgb(10%,10%,16%)" x1="573" x2="349" y1="234" y2="411" /><line stroke="rgb(10%,10%,16%)" x1="543" x2="289" y1="238" y2="290" /><line stroke="rgb(10%,10%,16%)" x1="294" x2="135" y1="242" y2="198" /><line stroke="rgb(10%,10%,16%)" x1="294" x2="143" y1="242" y2="381" /><line stroke="rgb(10%,10%,16%)" x1="274" x2="135" y1="194" y2="198" /><line stroke="rgb(10%,10%,16%)" x1="294" x2="232" y1="242" y2="457" /><line stroke="rgb(10%,10%,16%)" x1="378" x2="135" y1="153" y2="198" /><line stroke="rgb(10%,10%,16%)" x1="412" x2="349" y1="449" y2="411" /><line stroke="rgb(10%,10%,16%)" x1="573" x2="289" y1="234" y2="290" /><line stroke="rgb(10%,10%,16%)" x1="289" x2="349" y1="290" y2="411" /><line stroke="rgb(10%,10%,16%)" x1="289" x2="232" y1="290" y2="457" /><line stroke="rgb(10%,10%,16%)" x1="294" x2="195" y1="242" y2="467" /><line stroke="rgb(10%,10%,16%)" x1="349" x2="232" y1="411" y2="457" /><line stroke="rgb(10%,10%,16%)" x1="573" x2="500" y1="234" y2="585" /><line stroke="rgb(10%,10%,16%)" x1="135" x2="143" y1="198" y2="381" /><line stroke="rgb(10%,10%,16%)" x1="294" x2="119" y1="242" y2="427" /><line stroke="rgb(10%,10%,16%)" x1="143" x2="119" y1="381" y2="427" /><line stroke="rgb(10%,10%,16%)" x1="135" x2="119" y1="198" y2="427" /><line stroke="rgb(10%,10%,16%)" x1="232" x2="244" y1="457" y2="487" /><line stroke="rgb(10%,10%,16%)" x1="349" x2="244" y1="411" y2="487" /><line stroke="rgb(10%,10%,16%)" x1="412" x2="347" y1="449" y2="550" /><line stroke="rgb(10%,10%,16%)" x1="573" x2="347" y1="234" y2="550" /><line stroke="rgb(10%,10%,16%)" x1="349" x2="347" y1="411" y2="550" /><line stroke="rgb(10%,10%,16%)" x1="232" x2="195" y1="457" y2="467" /><line stroke="rgb(10%,10%,16%)" x1="195" x2="244" y1="467" y2="487" /><line stroke="rgb(10%,10%,16%)" x1="349" x2="240" y1="411" y2="552" /><line stroke="rgb(10%,10%,16%)" x1="500" x2="347" y1="585" y2="550" /><line stroke="rgb(10%,10%,16%)" x1="119" x2="195" y1="427" y2="467" /><line stroke="rgb(10%,10%,16%)" x1="119" x2="240" y1="427" y2="552" /><line stroke="rgb(10%,10%,16%)" x1="119" x2="247" y1="427" y2="580" /><line stroke="rgb(10%,10%,16%)" x1="244" x2="240" y1="487" y2="552" /><line stroke="rgb(10%,10%,16%)" x1="349" x2="247" y1="411" y2="580" /><line stroke="rgb(10%,10%,16%)" x1="347" x2="247" y1="550" y2="580" /><line stroke="rgb(10%,10%,16%)" x1="195" x2="240" y1="467" y2="552" /><line stroke="rgb(10%,10%,16%)" x1="240" x2="247" y1="552" y2="580" /><line stroke="rgb(10%,10%,16%)" x1="500" x2="247" y1="585" y2="580" /><circle cx="244" cy="487" fill="white" r="10" stroke="black" /><g font-size="12"><text x="240" y="492">0</text></g><circle cx="294" cy="242" fill="white" r="10" stroke="black" /><g font-size="12"><text x="290" y="247">1</text></g><circle cx="412" cy="449" fill="white" r="10" stroke="black" /><g font-size="12"><text x="408" y="454">2</text></g><circle cx="573" cy="234" fill="blue" r="10" stroke="black" /><g font-size="12"><text x="569" y="239">3</text></g><circle cx="240" cy="552" fill="blue" r="10" stroke="black" /><g font-size="12"><text x="236" y="557">4</text></g><circle cx="289" cy="290" fill="red" r="10" stroke="black" /><g font-size="12"><text x="285" y="295">5</text></g><circle cx="195" cy="467" fill="red" r="10" stroke="black" /><g font-size="12"><text x="191" y="472">6</text></g><circle cx="461" cy="148" fill="green" r="10" stroke="black" /><g font-size="12"><text x="457" y="153">7</text></g><circle cx="500" cy="585" fill="green" r="10" stroke="black" /><g font-size="12"><text x="496" y="590">8</text></g><circle cx="378" cy="153" fill="blue" r="10" stroke="black" /><g font-size="12"><text x="374" y="158">9</text></g><circle cx="119" cy="427" fill="green" r="10" stroke="black" /><g font-size="12"><text x="115" y="432">10</text></g><circle cx="347" cy="550" fill="red" r="10" stroke="black" /><g font-size="12"><text x="343" y="555">11</text></g><circle cx="543" cy="238" fill="white" r="10" stroke="black" /><g font-size="12"><text x="539" y="243">12</text></g><circle cx="232" cy="457" fill="blue" r="10" stroke="black" /><g font-size="12"><text x="228" y="462">13</text></g><circle cx="135" cy="198" fill="red" r="10" stroke="black" /><g font-size="12"><text x="131" y="203">14</text></g><circle cx="401" cy="179" fill="red" r="10" stroke="black" /><g font-size="12"><text x="397" y="184">15</text></g><circle cx="247" cy="580" fill="white" r="10" stroke="black" /><g font-size="12"><text x="243" y="585">16</text></g><circle cx="349" cy="411" fill="green" r="10" stroke="black" /><g font-size="12"><text x="345" y="416">17</text></g><circle cx="274" cy="194" fill="green" r="10" stroke="black" /><g font-size="12"><text x="270" y="199">18</text></g><circle cx="143" cy="381" fill="blue" r="10" stroke="black" /><g font-size="12"><text x="139" y="386">19</text></g></svg>