<?xml version="1.0" encoding="utf-8" ?>
<svg baseProfile="full" height="700" version="1.1" width="700" xmlns="http://www.w3.org/2000/svg" xmlns:ev="http://www.w3.org/2001/xml-events" xmlns:xlink="http://www.w3.org/1999/xlink"><defs /><line stroke="rgb(10%,10%,16%)" x1="372" x2="368" y1="433" y2="307" /><line stroke="rgb(10%,10%,16%)" x1="368" x2="383" y1="307" y2="225" /><line stroke="rgb(10%,10%,16%)" x1="372" x2="173" y1="433" y2="431" /><line stroke="rgb(10%,10%,16%)" x1="383" x2="568" y1="225" y2="273" /><line stroke="rgb(10%,10%,16%)" x1="368" x2="561" y1="307" y2="329" /><line stroke="rgb(10%,10%,16%)" x1="173" x2="123" y1="431" y2="463" /><line stroke="rgb(10%,10%,16%)" x1="372" x2="561" y1="433" y2="329" /><line stroke="rgb(10%,10%,16%)" x1="568" x2="561" y1="273" y2="329" /><line stroke="rgb(10%,10%,16%)" x1="383" x2="561" y1="225" y2="329" /><line stroke="rgb(10%,10%,16%)" x1="368" x2="173" y1="307" y2="431" /><line stroke="rgb(10%,10%,16%)" x1="123" x2="124" y1="463" y2="363" /><line stroke="rgb(10%,10%,16%)" x1="173" x2="124" y1="431" y2="363" /><line stroke="rgb(10%,10%,16%)" x1="372" x2="123" y1="433" y2="463" /><line stroke="rgb(10%,10%,16%)" x1="383" x2="126" y1="225" y2="233" /><line stroke="rgb(10%,10%,16%)" x1="173" x2="126" y1="431" y2="233" /><line stroke="rgb(10%,10%,16%)" x1="368" x2="126" y1="307" y2="233" /><line stroke="rgb(10%,10%,16%)" x1="124" x2="126" y1="363" y2="233" /><line stroke="rgb(10%,10%,16%)" x1="123" x2="122" y1="463" y2="179" /><line stroke="rgb(10%,10%,16%)" x1="124" x2="122" y1="363" y2="179" /><line stroke="rgb(10%,10%,16%)" x1="126" x2="122" y1="233" y2="179" /><line stroke="rgb(10%,10%,16%)" x1="383" x2="122" y1="225" y2="179" /><circle cx="126" cy="233" fill="white" r="10" stroke="black" /><g font-size="12"><text x="122" y="238">0</text></g><circle cx="368" cy="307" fill="blue" r="10" stroke="black" /><g font-size="12"><text x="364" y="312">1</text></g><circle cx="122" cy="179" fill="blue" r="10" stroke="black" /><g font-size="12"><text x="118" y="184">2</text></g><circle cx="383" cy="225" fill="red" r="10" stroke="black" /><g font-size="12"><text x="379" y="230">3</text></g><circle cx="124" cy="363" fill="red" r="10" stroke="black" /><g font-size="12"><text x="120" y="368">4</text></g><circle cx="173" cy="431" fill="green" r="10" stroke="black" /><g font-size="12"><text x="169" y="436">5</text></g><circle cx="568" cy="273" fill="white" r="10" stroke="black" /><g font-size="12"><text x="564" y="278">6</text></g><circle cx="372" cy="433" fill="red" r="10" stroke="black" /><g font-size="12"><text x="368" y="438">7</text></g><circle cx="123" cy="463" fill="white" r="10" stroke="black" /><g font-size="12"><text x="119" y="468">8</text></g><circle cx="561" cy="329" fill="green" r="10" stroke="black" /><g font-size="12"><text x="557" y="334">9</text></g></svg>