<?xml version="1.0" encoding="utf-8" ?>
<svg baseProfile="full" height="700" version="1.1" width="700" xmlns="http://www.w3.org/2000/svg" xmlns:ev="http://www.w3.org/2001/xml-events" xmlns:xlink="http://www.w3.org/1999/xlink"><defs /><line stroke="rgb(10%,10%,16%)" x1="203" x2="181" y1="302" y2="419" /><line stroke="rgb(10%,10%,16%)" x1="181" x2="238" y1="419" y2="429" /><line stroke="rgb(10%,10%,16%)" x1="203" x2="238" y1="302" y2="429" /><line stroke="rgb(10%,10%,16%)" x1="238" x2="445" y1="429" y2="504" /><line stroke="rgb(10%,10%,16%)" x1="181" x2="445" y1="419" y2="504" /><line stroke="rgb(10%,10%,16%)" x1="203" x2="445" y1="302" y2="504" /><line stroke="rgb(10%,10%,16%)" x1="445" x2="571" y1="504" y2="585" /><line stroke="rgb(10%,10%,16%)" x1="181" x2="571" y1="419" y2="585" /><line stroke="rgb(10%,10%,16%)" x1="203" x2="571" y1="302" y2="585" /><circle cx="203" cy="302" fill="white" r="10" stroke="black" /><g font-size="12"><text x="199" y="307">0</text></g><circle cx="238" cy="429" fill="blue" r="10" stroke="black" /><g font-size="12"><text x="234" y="434">1</text></g><circle cx="445" cy="504" fill="red" r="10" stroke="black" /><g font-size="12"><text x="441" y="509">2</text></g><circle cx="181" cy="419" fill="green" r="10" stroke="black" /><g font-size="12"><text x="177" y="424">3</text></g><circle cx="571" cy="585" fill="blue" r="10" stroke="black" /><g font-size="12"><text x="567" y="590">4</text></g></svg>