<?xml version="1.0" encoding="utf-8" ?>
<svg baseProfile="full" height="700" version="1.1" width="700" xmlns="http://www.w3.org/2000/svg" xmlns:ev="http://www.w3.org/2001/xml-events" xmlns:xlink="http://www.w3.org/1999/xlink"><defs /><line stroke="rgb(10%,10%,16%)" x1="109" x2="113" y1="432" y2="464" /><line stroke="rgb(10%,10%,16%)" x1="113" x2="166" y1="464" y2="550" /><line stroke="rgb(10%,10%,16%)" x1="109" x2="212" y1="432" y2="412" /><line stroke="rgb(10%,10%,16%)" x1="166" x2="109" y1="550" y2="432" /><line stroke="rgb(10%,10%,16%)" x1="212" x2="247" y1="412" y2="297" /><line stroke="rgb(10%,10%,16%)" x1="109" x2="143" y1="432" y2="296" /><line stroke="rgb(10%,10%,16%)" x1="109" x2="247" y1="432" y2="297" /><line stroke="rgb(10%,10%,16%)" x1="166" x2="212" y1="550" y2="412" /><line stroke="rgb(10%,10%,16%)" x1="247" x2="257" y1="297" y2="255" /><line stroke="rgb(10%,10%,16%)" x1="212" x2="343" y1="412" y2="378" /><line stroke="rgb(10%,10%,16%)" x1="143" x2="155" y1="296" y2="207" /><line stroke="rgb(10%,10%,16%)" x1="109" x2="155" y1="432" y2="207" /><line stroke="rgb(10%,10%,16%)" x1="247" x2="143" y1="297" y2="296" /><line stroke="rgb(10%,10%,16%)" x1="109" x2="124" y1="432" y2="131" /><line stroke="rgb(10%,10%,16%)" x1="212" x2="315" y1="412" y2="540" /><line stroke="rgb(10%,10%,16%)" x1="166" x2="315" y1="550" y2="540" /><line stroke="rgb(10%,10%,16%)" x1="257" x2="363" y1="255" y2="269" /><line stroke="rgb(10%,10%,16%)" x1="247" x2="363" y1="297" y2="269" /><line stroke="rgb(10%,10%,16%)" x1="343" x2="363" y1="378" y2="269" /><line stroke="rgb(10%,10%,16%)" x1="212" x2="337" y1="412" y2="559" /><line stroke="rgb(10%,10%,16%)" x1="155" x2="124" y1="207" y2="131" /><line stroke="rgb(10%,10%,16%)" x1="143" x2="257" y1="296" y2="255" /><line stroke="rgb(10%,10%,16%)" x1="155" x2="257" y1="207" y2="255" /><line stroke="rgb(10%,10%,16%)" x1="247" x2="343" y1="297" y2="378" /><line stroke="rgb(10%,10%,16%)" x1="124" x2="262" y1="131" y2="139" /><line stroke="rgb(10%,10%,16%)" x1="315" x2="337" y1="540" y2="559" /><line stroke="rgb(10%,10%,16%)" x1="212" x2="396" y1="412" y2="522" /><line stroke="rgb(10%,10%,16%)" x1="166" x2="337" y1="550" y2="559" /><line stroke="rgb(10%,10%,16%)" x1="363" x2="454" y1="269" y2="255" /><line stroke="rgb(10%,10%,16%)" x1="257" x2="262" y1="255" y2="139" /><line stroke="rgb(10%,10%,16%)" x1="363" x2="442" y1="269" y2="217" /><line stroke="rgb(10%,10%,16%)" x1="363" x2="289" y1="269" y2="137" /><line stroke="rgb(10%,10%,16%)" x1="343" x2="444" y1="378" y2="455" /><line stroke="rgb(10%,10%,16%)" x1="337" x2="396" y1="559" y2="522" /><line stroke="rgb(10%,10%,16%)" x1="212" x2="444" y1="412" y2="455" /><line stroke="rgb(10%,10%,16%)" x1="124" x2="289" y1="131" y2="137" /><line stroke="rgb(10%,10%,16%)" x1="155" x2="262" y1="207" y2="139" /><line stroke="rgb(10%,10%,16%)" x1="257" x2="289" y1="255" y2="137" /><line stroke="rgb(10%,10%,16%)" x1="343" x2="478" y1="378" y2="399" /><line stroke="rgb(10%,10%,16%)" x1="262" x2="289" y1="139" y2="137" /><line stroke="rgb(10%,10%,16%)" x1="337" x2="470" y1="559" y2="537" /><line stroke="rgb(10%,10%,16%)" x1="396" x2="470" y1="522" y2="537" /><line stroke="rgb(10%,10%,16%)" x1="212" x2="470" y1="412" y2="537" /><line stroke="rgb(10%,10%,16%)" x1="454" x2="442" y1="255" y2="217" /><line stroke="rgb(10%,10%,16%)" x1="363" x2="514" y1="269" y2="316" /><line stroke="rgb(10%,10%,16%)" x1="442" x2="514" y1="217" y2="316" /><line stroke="rgb(10%,10%,16%)" x1="363" x2="478" y1="269" y2="399" /><line stroke="rgb(10%,10%,16%)" x1="289" x2="442" y1="137" y2="217" /><line stroke="rgb(10%,10%,16%)" x1="363" x2="508" y1="269" y2="398" /><line stroke="rgb(10%,10%,16%)" x1="444" x2="478" y1="455" y2="399" /><line stroke="rgb(10%,10%,16%)" x1="444" x2="508" y1="455" y2="398" /><line stroke="rgb(10%,10%,16%)" x1="289" x2="572" y1="137" y2="213" /><line stroke="rgb(10%,10%,16%)" x1="478" x2="508" y1="399" y2="398" /><line stroke="rgb(10%,10%,16%)" x1="470" x2="444" y1="537" y2="455" /><line stroke="rgb(10%,10%,16%)" x1="470" x2="594" y1="537" y2="476" /><line stroke="rgb(10%,10%,16%)" x1="470" x2="508" y1="537" y2="398" /><line stroke="rgb(10%,10%,16%)" x1="442" x2="532" y1="217" y2="304" /><line stroke="rgb(10%,10%,16%)" x1="454" x2="514" y1="255" y2="316" /><line stroke="rgb(10%,10%,16%)" x1="514" x2="525" y1="316" y2="311" /><line stroke="rgb(10%,10%,16%)" x1="363" x2="575" y1="269" y2="367" /><line stroke="rgb(10%,10%,16%)" x1="514" x2="532" y1="316" y2="304" /><line stroke="rgb(10%,10%,16%)" x1="442" x2="572" y1="217" y2="213" /><line stroke="rgb(10%,10%,16%)" x1="363" x2="580" y1="269" y2="388" /><line stroke="rgb(10%,10%,16%)" x1="442" x2="599" y1="217" y2="365" /><line stroke="rgb(10%,10%,16%)" x1="508" x2="580" y1="398" y2="388" /><line stroke="rgb(10%,10%,16%)" x1="363" x2="599" y1="269" y2="365" /><line stroke="rgb(10%,10%,16%)" x1="508" x2="594" y1="398" y2="476" /><line stroke="rgb(10%,10%,16%)" x1="572" x2="599" y1="213" y2="365" /><line stroke="rgb(10%,10%,16%)" x1="594" x2="580" y1="476" y2="388" /><line stroke="rgb(10%,10%,16%)" x1="532" x2="525" y1="304" y2="311" /><line stroke="rgb(10%,10%,16%)" x1="514" x2="599" y1="316" y2="365" /><line stroke="rgb(10%,10%,16%)" x1="525" x2="599" y1="311" y2="365" /><line stroke="rgb(10%,10%,16%)" x1="575" x2="580" y1="367" y2="388" /><line stroke="rgb(10%,10%,16%)" x1="532" x2="599" y1="304" y2="365" /><line stroke="rgb(10%,10%,16%)" x1="580" x2="599" y1="388" y2="365" /><line stroke="rgb(10%,10%,16%)" x1="599" x2="575" y1="365" y2="367" /><line stroke="rgb(10%,10%,16%)" x1="599" x2="594" y1="365" y2="476" /><circle cx="580" cy="388" fill="white" r="10" stroke="black" /><g font-size="12"><text x="576" y="393">0</text></g><circle cx="212" cy="412" fill="white" r="10" stroke="black" /><g font-size="12"><text x="208" y="417">1</text></g><circle cx="514" cy="316" fill="white" r="10" stroke="black" /><g font-size="12"><text x="510" y="321">2</text></g><circle cx="113" cy="464" fill="white" r="10" stroke="black" /><g font-size="12"><text x="109" y="469">3</text></g><circle cx="396" cy="522" fill="blue" r="10" stroke="black" /><g font-size="12"><text x="392" y="527">4</text></g><circle cx="444" cy="455" fill="blue" r="10" stroke="black" /><g font-size="12"><text x="440" y="460">5</text></g><circle cx="315" cy="540" fill="blue" r="10" stroke="black" /><g font-size="12"><text x="311" y="545">6</text></g><circle cx="532" cy="304" fill="blue" r="10" stroke="black" /><g font-size="12"><text x="528" y="309">7</text></g><circle cx="143" cy="296" fill="white" r="10" stroke="black" /><g font-size="12"><text x="139" y="301">8</text></g><circle cx="470" cy="537" fill="red" r="10" stroke="black" /><g font-size="12"><text x="466" y="542">9</text></g><circle cx="155" cy="207" fill="red" r="10" stroke="black" /><g font-size="12"><text x="151" y="212">10</text></g><circle cx="575" cy="367" fill="red" r="10" stroke="black" /><g font-size="12"><text x="571" y="372">11</text></g><circle cx="247" cy="297" fill="red" r="10" stroke="black" /><g font-size="12"><text x="243" y="302">12</text></g><circle cx="508" cy="398" fill="green" r="10" stroke="black" /><g font-size="12"><text x="504" y="403">13</text></g><circle cx="525" cy="311" fill="red" r="10" stroke="black" /><g font-size="12"><text x="521" y="316">14</text></g><circle cx="572" cy="213" fill="blue" r="10" stroke="black" /><g font-size="12"><text x="568" y="218">15</text></g><circle cx="363" cy="269" fill="blue" r="10" stroke="black" /><g font-size="12"><text x="359" y="274">16</text></g><circle cx="442" cy="217" fill="red" r="10" stroke="black" /><g font-size="12"><text x="438" y="222">17</text></g><circle cx="343" cy="378" fill="green" r="10" stroke="black" /><g font-size="12"><text x="339" y="383">18</text></g><circle cx="262" cy="139" fill="blue" r="10" stroke="black" /><g font-size="12"><text x="258" y="144">19</text></g><circle cx="166" cy="550" fill="red" r="10" stroke="black" /><g font-size="12"><text x="162" y="555">20</text></g><circle cx="289" cy="137" fill="white" r="10" stroke="black" /><g font-size="12"><text x="285" y="142">21</text></g><circle cx="337" cy="559" fill="green" r="10" stroke="black" /><g font-size="12"><text x="333" y="564">22</text></g><circle cx="454" cy="255" fill="green" r="10" stroke="black" /><g font-size="12"><text x="450" y="260">23</text></g><circle cx="478" cy="399" fill="white" r="10" stroke="black" /><g font-size="12"><text x="474" y="404">24</text></g><circle cx="124" cy="131" fill="green" r="10" stroke="black" /><g font-size="12"><text x="120" y="136">25</text></g><circle cx="599" cy="365" fill="green" r="10" stroke="black" /><g font-size="12"><text x="595" y="370">26</text></g><circle cx="594" cy="476" fill="blue" r="10" stroke="black" /><g font-size="12"><text x="590" y="481">27</text></g><circle cx="109" cy="432" fill="blue" r="10" stroke="black" /><g font-size="12"><text x="105" y="437">28</text></g><circle cx="257" cy="255" fill="green" r="10" stroke="black" /><g font-size="12"><text x="253" y="260">29</text></g></svg>