<?xml version="1.0" encoding="utf-8" ?>
<svg baseProfile="full" height="700" version="1.1" width="700" xmlns="http://www.w3.org/2000/svg" xmlns:ev="http://www.w3.org/2001/xml-events" xmlns:xlink="http://www.w3.org/1999/xlink"><defs /><line stroke="rgb(10%,10%,16%)" x1="393" x2="528" y1="352" y2="321" /><line stroke="rgb(10%,10%,16%)" x1="528" x2="552" y1="321" y2="240" /><line stroke="rgb(10%,10%,16%)" x1="393" x2="317" y1="352" y2="236" /><line stroke="rgb(10%,10%,16%)" x1="552" x2="461" y1="240" y2="189" /><line stroke="rgb(10%,10%,16%)" x1="528" x2="461" y1="321" y2="189" /><line stroke="rgb(10%,10%,16%)" x1="317" x2="232" y1="236" y2="194" /><line stroke="rgb(10%,10%,16%)" x1="393" x2="474" y1="352" y2="480" /><line stroke="rgb(10%,10%,16%)" x1="461" x2="317" y1="189" y2="236" /><line stroke="rgb(10%,10%,16%)" x1="552" x2="573" y1="240" y2="590" /><line stroke="rgb(10%,10%,16%)" x1="461" x2="393" y1="189" y2="352" /><line stroke="rgb(10%,10%,16%)" x1="528" x2="474" y1="321" y2="480" /><line stroke="rgb(10%,10%,16%)" x1="232" x2="167" y1="194" y2="141" /><line stroke="rgb(10%,10%,16%)" x1="317" x2="167" y1="236" y2="141" /><line stroke="rgb(10%,10%,16%)" x1="474" x2="573" y1="480" y2="590" /><line stroke="rgb(10%,10%,16%)" x1="393" x2="225" y1="352" y2="399" /><line stroke="rgb(10%,10%,16%)" x1="317" x2="225" y1="236" y2="399" /><line stroke="rgb(10%,10%,16%)" x1="461" x2="167" y1="189" y2="141" /><line stroke="rgb(10%,10%,16%)" x1="573" x2="528" y1="590" y2="321" /><line stroke="rgb(10%,10%,16%)" x1="393" x2="255" y1="352" y2="472" /><line stroke="rgb(10%,10%,16%)" x1="474" x2="255" y1="480" y2="472" /><line stroke="rgb(10%,10%,16%)" x1="167" x2="126" y1="141" y2="295" /><line stroke="rgb(10%,10%,16%)" x1="232" x2="126" y1="194" y2="295" /><line stroke="rgb(10%,10%,16%)" x1="317" x2="126" y1="236" y2="295" /><line stroke="rgb(10%,10%,16%)" x1="573" x2="255" y1="590" y2="472" /><line stroke="rgb(10%,10%,16%)" x1="225" x2="171" y1="399" y2="398" /><line stroke="rgb(10%,10%,16%)" x1="393" x2="149" y1="352" y2="479" /><line stroke="rgb(10%,10%,16%)" x1="225" x2="149" y1="399" y2="479" /><line stroke="rgb(10%,10%,16%)" x1="317" x2="171" y1="236" y2="398" /><line stroke="rgb(10%,10%,16%)" x1="573" x2="149" y1="590" y2="479" /><line stroke="rgb(10%,10%,16%)" x1="255" x2="149" y1="472" y2="479" /><line stroke="rgb(10%,10%,16%)" x1="126" x2="171" y1="295" y2="398" /><line stroke="rgb(10%,10%,16%)" x1="126" x2="149" y1="295" y2="479" /><line stroke="rgb(10%,10%,16%)" x1="126" x2="107" y1="295" y2="588" /><line stroke="rgb(10%,10%,16%)" x1="573" x2="107" y1="590" y2="588" /><line stroke="rgb(10%,10%,16%)" x1="171" x2="149" y1="398" y2="479" /><line stroke="rgb(10%,10%,16%)" x1="149" x2="107" y1="479" y2="588" /><circle cx="149" cy="479" fill="white" r="10" stroke="black" /><g font-size="12"><text x="145" y="484">0</text></g><circle cx="107" cy="588" fill="blue" r="10" stroke="black" /><g font-size="12"><text x="103" y="593">1</text></g><circle cx="461" cy="189" fill="white" r="10" stroke="black" /><g font-size="12"><text x="457" y="194">2</text></g><circle cx="552" cy="240" fill="blue" r="10" stroke="black" /><g font-size="12"><text x="548" y="245">3</text></g><circle cx="393" cy="352" fill="blue" r="10" stroke="black" /><g font-size="12"><text x="389" y="357">4</text></g><circle cx="171" cy="398" fill="blue" r="10" stroke="black" /><g font-size="12"><text x="167" y="403">5</text></g><circle cx="255" cy="472" fill="red" r="10" stroke="black" /><g font-size="12"><text x="251" y="477">6</text></g><circle cx="573" cy="590" fill="green" r="10" stroke="black" /><g font-size="12"><text x="569" y="595">7</text></g><circle cx="167" cy="141" fill="blue" r="10" stroke="black" /><g font-size="12"><text x="163" y="146">8</text></g><circle cx="528" cy="321" fill="red" r="10" stroke="black" /><g font-size="12"><text x="524" y="326">9</text></g><circle cx="232" cy="194" fill="white" r="10" stroke="black" /><g font-size="12"><text x="228" y="199">10</text></g><circle cx="225" cy="399" fill="red" r="10" stroke="black" /><g font-size="12"><text x="221" y="404">11</text></g><circle cx="317" cy="236" fill="green" r="10" stroke="black" /><g font-size="12"><text x="313" y="241">12</text></g><circle cx="126" cy="295" fill="red" r="10" stroke="black" /><g font-size="12"><text x="122" y="300">13</text></g><circle cx="474" cy="480" fill="white" r="10" stroke="black" /><g font-size="12"><text x="470" y="485">14</text></g></svg>