<?xml version="1.0" encoding="utf-8" ?>
<svg baseProfile="full" height="700" version="1.1" width="700" xmlns="http://www.w3.org/2000/svg" xmlns:ev="http://www.w3.org/2001/xml-events" xmlns:xlink="http://www.w3.org/1999/xlink"><defs /><line stroke="rgb(10%,10%,16%)" x1="550" x2="550" y1="552" y2="466" /><line stroke="rgb(10%,10%,16%)" x1="550" x2="576" y1="466" y2="440" /><line stroke="rgb(10%,10%,16%)" x1="550" x2="466" y1="552" y2="597" /><line stroke="rgb(10%,10%,16%)" x1="576" x2="586" y1="440" y2="377" /><line stroke="rgb(10%,10%,16%)" x1="550" x2="496" y1="466" y2="437" /><line stroke="rgb(10%,10%,16%)" x1="466" x2="422" y1="597" y2="539" /><line stroke="rgb(10%,10%,16%)" x1="550" x2="489" y1="552" y2="473" /><line stroke="rgb(10%,10%,16%)" x1="586" x2="585" y1="377" y2="334" /><line stroke="rgb(10%,10%,16%)" x1="576" x2="496" y1="440" y2="437" /><line stroke="rgb(10%,10%,16%)" x1="496" x2="489" y1="437" y2="473" /><line stroke="rgb(10%,10%,16%)" x1="550" x2="489" y1="466" y2="473" /><line stroke="rgb(10%,10%,16%)" x1="422" x2="418" y1="539" y2="515" /><line stroke="rgb(10%,10%,16%)" x1="466" x2="418" y1="597" y2="515" /><line stroke="rgb(10%,10%,16%)" x1="489" x2="470" y1="473" y2="487" /><line stroke="rgb(10%,10%,16%)" x1="550" x2="470" y1="552" y2="487" /><line stroke="rgb(10%,10%,16%)" x1="585" x2="541" y1="334" y2="312" /><line stroke="rgb(10%,10%,16%)" x1="586" x2="541" y1="377" y2="312" /><line stroke="rgb(10%,10%,16%)" x1="496" x2="470" y1="437" y2="487" /><line stroke="rgb(10%,10%,16%)" x1="576" x2="550" y1="440" y2="552" /><line stroke="rgb(10%,10%,16%)" x1="496" x2="446" y1="437" y2="484" /><line stroke="rgb(10%,10%,16%)" x1="418" x2="446" y1="515" y2="484" /><line stroke="rgb(10%,10%,16%)" x1="422" x2="324" y1="539" y2="476" /><line stroke="rgb(10%,10%,16%)" x1="418" x2="470" y1="515" y2="487" /><line stroke="rgb(10%,10%,16%)" x1="466" x2="470" y1="597" y2="487" /><line stroke="rgb(10%,10%,16%)" x1="470" x2="446" y1="487" y2="484" /><line stroke="rgb(10%,10%,16%)" x1="541" x2="468" y1="312" y2="307" /><line stroke="rgb(10%,10%,16%)" x1="585" x2="503" y1="334" y2="196" /><line stroke="rgb(10%,10%,16%)" x1="541" x2="503" y1="312" y2="196" /><line stroke="rgb(10%,10%,16%)" x1="586" x2="496" y1="377" y2="437" /><line stroke="rgb(10%,10%,16%)" x1="496" x2="377" y1="437" y2="401" /><line stroke="rgb(10%,10%,16%)" x1="446" x2="377" y1="484" y2="401" /><line stroke="rgb(10%,10%,16%)" x1="496" x2="541" y1="437" y2="312" /><line stroke="rgb(10%,10%,16%)" x1="446" x2="324" y1="484" y2="476" /><line stroke="rgb(10%,10%,16%)" x1="418" x2="324" y1="515" y2="476" /><line stroke="rgb(10%,10%,16%)" x1="324" x2="377" y1="476" y2="401" /><line stroke="rgb(10%,10%,16%)" x1="422" x2="243" y1="539" y2="585" /><line stroke="rgb(10%,10%,16%)" x1="466" x2="243" y1="597" y2="585" /><line stroke="rgb(10%,10%,16%)" x1="468" x2="503" y1="307" y2="196" /><line stroke="rgb(10%,10%,16%)" x1="541" x2="377" y1="312" y2="401" /><line stroke="rgb(10%,10%,16%)" x1="503" x2="468" y1="196" y2="170" /><line stroke="rgb(10%,10%,16%)" x1="503" x2="357" y1="196" y2="149" /><line stroke="rgb(10%,10%,16%)" x1="541" x2="290" y1="312" y2="321" /><line stroke="rgb(10%,10%,16%)" x1="377" x2="286" y1="401" y2="338" /><line stroke="rgb(10%,10%,16%)" x1="377" x2="290" y1="401" y2="321" /><line stroke="rgb(10%,10%,16%)" x1="324" x2="206" y1="476" y2="462" /><line stroke="rgb(10%,10%,16%)" x1="324" x2="243" y1="476" y2="585" /><line stroke="rgb(10%,10%,16%)" x1="377" x2="206" y1="401" y2="462" /><line stroke="rgb(10%,10%,16%)" x1="243" x2="206" y1="585" y2="462" /><line stroke="rgb(10%,10%,16%)" x1="243" x2="141" y1="585" y2="255" /><line stroke="rgb(10%,10%,16%)" x1="503" x2="339" y1="196" y2="172" /><line stroke="rgb(10%,10%,16%)" x1="468" x2="290" y1="307" y2="321" /><line stroke="rgb(10%,10%,16%)" x1="377" x2="141" y1="401" y2="255" /><line stroke="rgb(10%,10%,16%)" x1="468" x2="357" y1="170" y2="149" /><line stroke="rgb(10%,10%,16%)" x1="503" x2="267" y1="196" y2="147" /><line stroke="rgb(10%,10%,16%)" x1="357" x2="314" y1="149" y2="130" /><line stroke="rgb(10%,10%,16%)" x1="503" x2="290" y1="196" y2="321" /><line stroke="rgb(10%,10%,16%)" x1="290" x2="286" y1="321" y2="338" /><line stroke="rgb(10%,10%,16%)" x1="286" x2="141" y1="338" y2="255" /><line stroke="rgb(10%,10%,16%)" x1="290" x2="339" y1="321" y2="172" /><line stroke="rgb(10%,10%,16%)" x1="206" x2="141" y1="462" y2="255" /><line stroke="rgb(10%,10%,16%)" x1="141" x2="179" y1="255" y2="141" /><line stroke="rgb(10%,10%,16%)" x1="339" x2="267" y1="172" y2="147" /><line stroke="rgb(10%,10%,16%)" x1="503" x2="153" y1="196" y2="121" /><line stroke="rgb(10%,10%,16%)" x1="290" x2="141" y1="321" y2="255" /><line stroke="rgb(10%,10%,16%)" x1="141" x2="153" y1="255" y2="121" /><line stroke="rgb(10%,10%,16%)" x1="357" x2="251" y1="149" y2="108" /><line stroke="rgb(10%,10%,16%)" x1="468" x2="314" y1="170" y2="130" /><line stroke="rgb(10%,10%,16%)" x1="267" x2="179" y1="147" y2="141" /><line stroke="rgb(10%,10%,16%)" x1="314" x2="251" y1="130" y2="108" /><line stroke="rgb(10%,10%,16%)" x1="357" x2="153" y1="149" y2="121" /><line stroke="rgb(10%,10%,16%)" x1="290" x2="267" y1="321" y2="147" /><line stroke="rgb(10%,10%,16%)" x1="290" x2="179" y1="321" y2="141" /><line stroke="rgb(10%,10%,16%)" x1="179" x2="153" y1="141" y2="121" /><line stroke="rgb(10%,10%,16%)" x1="267" x2="153" y1="147" y2="121" /><line stroke="rgb(10%,10%,16%)" x1="153" x2="251" y1="121" y2="108" /><line stroke="rgb(10%,10%,16%)" x1="251" x2="468" y1="108" y2="170" /><circle cx="290" cy="321" fill="white" r="10" stroke="black" /><g font-size="12"><text x="286" y="326">0</text></g><circle cx="468" cy="307" fill="blue" r="10" stroke="black" /><g font-size="12"><text x="464" y="312">1</text></g><circle cx="468" cy="170" fill="white" r="10" stroke="black" /><g font-size="12"><text x="464" y="175">2</text></g><circle cx="286" cy="338" fill="blue" r="10" stroke="black" /><g font-size="12"><text x="282" y="343">3</text></g><circle cx="339" cy="172" fill="blue" r="10" stroke="black" /><g font-size="12"><text x="335" y="177">4</text></g><circle cx="243" cy="585" fill="white" r="10" stroke="black" /><g font-size="12"><text x="239" y="590">5</text></g><circle cx="550" cy="466" fill="white" r="10" stroke="black" /><g font-size="12"><text x="546" y="471">6</text></g><circle cx="267" cy="147" fill="red" r="10" stroke="black" /><g font-size="12"><text x="263" y="152">7</text></g><circle cx="466" cy="597" fill="red" r="10" stroke="black" /><g font-size="12"><text x="462" y="602">8</text></g><circle cx="586" cy="377" fill="white" r="10" stroke="black" /><g font-size="12"><text x="582" y="382">9</text></g><circle cx="153" cy="121" fill="white" r="10" stroke="black" /><g font-size="12"><text x="149" y="126">10</text></g><circle cx="489" cy="473" fill="red" r="10" stroke="black" /><g font-size="12"><text x="485" y="478">11</text></g><circle cx="496" cy="437" fill="blue" r="10" stroke="black" /><g font-size="12"><text x="492" y="442">12</text></g><circle cx="314" cy="130" fill="blue" r="10" stroke="black" /><g font-size="12"><text x="310" y="135">13</text></g><circle cx="446" cy="484" fill="white" r="10" stroke="black" /><g font-size="12"><text x="442" y="489">14</text></g><circle cx="251" cy="108" fill="green" r="10" stroke="black" /><g font-size="12"><text x="247" y="113">15</text></g><circle cx="141" cy="255" fill="red" r="10" stroke="black" /><g font-size="12"><text x="137" y="260">16</text></g><circle cx="357" cy="149" fill="red" r="10" stroke="black" /><g font-size="12"><text x="353" y="154">17</text></g><circle cx="470" cy="487" fill="green" r="10" stroke="black" /><g font-size="12"><text x="466" y="492">18</text></g><circle cx="503" cy="196" fill="green" r="10" stroke="black" /><g font-size="12"><text x="499" y="201">19</text></g><circle cx="541" cy="312" fill="red" r="10" stroke="black" /><g font-size="12"><text x="537" y="317">20</text></g><circle cx="422" cy="539" fill="green" r="10" stroke="black" /><g font-size="12"><text x="418" y="544">21</text></g><circle cx="324" cy="476" fill="red" r="10" stroke="black" /><g font-size="12"><text x="320" y="481">22</text></g><circle cx="179" cy="141" fill="blue" r="10" stroke="black" /><g font-size="12"><text x="175" y="146">23</text></g><circle cx="418" cy="515" fill="blue" r="10" stroke="black" /><g font-size="12"><text x="414" y="520">24</text></g><circle cx="550" cy="552" fill="blue" r="10" stroke="black" /><g font-size="12"><text x="546" y="557">25</text></g><circle cx="206" cy="462" fill="blue" r="10" stroke="black" /><g font-size="12"><text x="202" y="467">26</text></g><circle cx="377" cy="401" fill="green" r="10" stroke="black" /><g font-size="12"><text x="373" y="406">27</text></g><circle cx="576" cy="440" fill="red" r="10" stroke="black" /><g font-size="12"><text x="572" y="445">28</text></g><circle cx="585" cy="334" fill="blue" r="10" stroke="black" /><g font-size="12"><text x="581" y="339">29</text></g></svg>