<?xml version="1.0" encoding="utf-8" ?>
<svg baseProfile="full" height="700" version="1.1" width="700" xmlns="http://www.w3.org/2000/svg" xmlns:ev="http://www.w3.org/2001/xml-events" xmlns:xlink="http://www.w3.org/1999/xlink"><defs /><line stroke="rgb(10%,10%,16%)" x1="346" x2="425" y1="583" y2="541" /><line stroke="rgb(10%,10%,16%)" x1="425" x2="478" y1="541" y2="550" /><line stroke="rgb(10%,10%,16%)" x1="346" x2="478" y1="583" y2="550" /><line stroke="rgb(10%,10%,16%)" x1="478" x2="547" y1="550" y2="528" /><line stroke="rgb(10%,10%,16%)" x1="425" x2="547" y1="541" y2="528" /><line stroke="rgb(10%,10%,16%)" x1="346" x2="319" y1="583" y2="388" /><line stroke="rgb(10%,10%,16%)" x1="547" x2="583" y1="528" y2="423" /><line stroke="rgb(10%,10%,16%)" x1="547" x2="585" y1="528" y2="305" /><line stroke="rgb(10%,10%,16%)" x1="425" x2="319" y1="541" y2="388" /><line stroke="rgb(10%,10%,16%)" x1="319" x2="244" y1="388" y2="404" /><line stroke="rgb(10%,10%,16%)" x1="346" x2="142" y1="583" y2="599" /><line stroke="rgb(10%,10%,16%)" x1="583" x2="585" y1="423" y2="305" /><line stroke="rgb(10%,10%,16%)" x1="547" x2="319" y1="528" y2="388" /><line stroke="rgb(10%,10%,16%)" x1="585" x2="564" y1="305" y2="140" /><line stroke="rgb(10%,10%,16%)" x1="547" x2="324" y1="528" y2="305" /><line stroke="rgb(10%,10%,16%)" x1="319" x2="324" y1="388" y2="305" /><line stroke="rgb(10%,10%,16%)" x1="244" x2="324" y1="404" y2="305" /><line stroke="rgb(10%,10%,16%)" x1="319" x2="142" y1="388" y2="599" /><line stroke="rgb(10%,10%,16%)" x1="142" x2="244" y1="599" y2="404" /><line stroke="rgb(10%,10%,16%)" x1="585" x2="430" y1="305" y2="217" /><line stroke="rgb(10%,10%,16%)" x1="547" x2="430" y1="528" y2="217" /><line stroke="rgb(10%,10%,16%)" x1="564" x2="430" y1="140" y2="217" /><line stroke="rgb(10%,10%,16%)" x1="324" x2="372" y1="305" y2="195" /><line stroke="rgb(10%,10%,16%)" x1="547" x2="372" y1="528" y2="195" /><line stroke="rgb(10%,10%,16%)" x1="324" x2="367" y1="305" y2="131" /><line stroke="rgb(10%,10%,16%)" x1="324" x2="178" y1="305" y2="159" /><line stroke="rgb(10%,10%,16%)" x1="244" x2="178" y1="404" y2="159" /><line stroke="rgb(10%,10%,16%)" x1="142" x2="178" y1="599" y2="159" /><line stroke="rgb(10%,10%,16%)" x1="430" x2="372" y1="217" y2="195" /><line stroke="rgb(10%,10%,16%)" x1="430" x2="367" y1="217" y2="131" /><line stroke="rgb(10%,10%,16%)" x1="564" x2="367" y1="140" y2="131" /><line stroke="rgb(10%,10%,16%)" x1="372" x2="367" y1="195" y2="131" /><line stroke="rgb(10%,10%,16%)" x1="367" x2="178" y1="131" y2="159" /><circle cx="430" cy="217" fill="white" r="10" stroke="black" /><g font-size="12"><text x="426" y="222">0</text></g><circle cx="319" cy="388" fill="white" r="10" stroke="black" /><g font-size="12"><text x="315" y="393">1</text></g><circle cx="324" cy="305" fill="white" r="10" stroke="black" /><g font-size="12"><text x="320" y="310">2</text></g><circle cx="372" cy="195" fill="white" r="10" stroke="black" /><g font-size="12"><text x="368" y="200">3</text></g><circle cx="564" cy="140" fill="white" r="10" stroke="black" /><g font-size="12"><text x="560" y="145">4</text></g><circle cx="425" cy="541" fill="white" r="10" stroke="black" /><g font-size="12"><text x="421" y="546">5</text></g><circle cx="244" cy="404" fill="white" r="10" stroke="black" /><g font-size="12"><text x="240" y="409">6</text></g><circle cx="178" cy="159" fill="white" r="10" stroke="black" /><g font-size="12"><text x="174" y="164">7</text></g><circle cx="142" cy="599" fill="white" r="10" stroke="black" /><g font-size="12"><text x="138" y="604">8</text></g><circle cx="585" cy="305" fill="white" r="10" stroke="black" /><g font-size="12"><text x="581" y="310">9</text></g><circle cx="478" cy="550" fill="white" r="10" stroke="black" /><g font-size="12"><text x="474" y="555">10</text></g><circle cx="346" cy="583" fill="white" r="10" stroke="black" /><g font-size="12"><text x="342" y="588">11</text></g><circle cx="583" cy="423" fill="white" r="10" stroke="black" /><g font-size="12"><text x="579" y="428">12</text></g><circle cx="547" cy="528" fill="white" r="10" stroke="black" /><g font-size="12"><text x="543" y="533">13</text></g><circle cx="367" cy="131" fill="white" r="10" stroke="black" /><g font-size="12"><text x="363" y="136">14</text></g></svg>