<?xml version="1.0" encoding="utf-8" ?>
<svg baseProfile="full" height="700" version="1.1" width="700" xmlns="http://www.w3.org/2000/svg" xmlns:ev="http://www.w3.org/2001/xml-events" xmlns:xlink="http://www.w3.org/1999/xlink"><defs /><line stroke="rgb(10%,10%,16%)" x1="245" x2="194" y1="288" y2="215" /><line stroke="rgb(10%,10%,16%)" x1="194" x2="182" y1="215" y2="145" /><line stroke="rgb(10%,10%,16%)" x1="245" x2="147" y1="288" y2="279" /><line stroke="rgb(10%,10%,16%)" x1="182" x2="147" y1="145" y2="279" /><line stroke="rgb(10%,10%,16%)" x1="194" x2="147" y1="215" y2="279" /><line stroke="rgb(10%,10%,16%)" x1="147" x2="144" y1="279" y2="280" /><line stroke="rgb(10%,10%,16%)" x1="245" x2="144" y1="288" y2="280" /><line stroke="rgb(10%,10%,16%)" x1="182" x2="144" y1="145" y2="280" /><line stroke="rgb(10%,10%,16%)" x1="194" x2="316" y1="215" y2="188" /><line stroke="rgb(10%,10%,16%)" x1="144" x2="306" y1="280" y2="386" /><line stroke="rgb(10%,10%,16%)" x1="144" x2="328" y1="280" y2="364" /><line stroke="rgb(10%,10%,16%)" x1="245" x2="328" y1="288" y2="364" /><line stroke="rgb(10%,10%,16%)" x1="144" x2="326" y1="280" y2="401" /><line stroke="rgb(10%,10%,16%)" x1="182" x2="316" y1="145" y2="188" /><line stroke="rgb(10%,10%,16%)" x1="316" x2="400" y1="188" y2="218" /><line stroke="rgb(10%,10%,16%)" x1="194" x2="328" y1="215" y2="364" /><line stroke="rgb(10%,10%,16%)" x1="306" x2="326" y1="386" y2="401" /><line stroke="rgb(10%,10%,16%)" x1="144" x2="254" y1="280" y2="476" /><line stroke="rgb(10%,10%,16%)" x1="328" x2="306" y1="364" y2="386" /><line stroke="rgb(10%,10%,16%)" x1="144" x2="386" y1="280" y2="591" /><line stroke="rgb(10%,10%,16%)" x1="328" x2="326" y1="364" y2="401" /><line stroke="rgb(10%,10%,16%)" x1="326" x2="401" y1="401" y2="273" /><line stroke="rgb(10%,10%,16%)" x1="144" x2="477" y1="280" y2="508" /><line stroke="rgb(10%,10%,16%)" x1="316" x2="401" y1="188" y2="273" /><line stroke="rgb(10%,10%,16%)" x1="182" x2="580" y1="145" y2="212" /><line stroke="rgb(10%,10%,16%)" x1="400" x2="401" y1="218" y2="273" /><line stroke="rgb(10%,10%,16%)" x1="316" x2="328" y1="188" y2="364" /><line stroke="rgb(10%,10%,16%)" x1="328" x2="401" y1="364" y2="273" /><line stroke="rgb(10%,10%,16%)" x1="326" x2="477" y1="401" y2="508" /><line stroke="rgb(10%,10%,16%)" x1="254" x2="386" y1="476" y2="591" /><line stroke="rgb(10%,10%,16%)" x1="386" x2="477" y1="591" y2="508" /><line stroke="rgb(10%,10%,16%)" x1="326" x2="580" y1="401" y2="212" /><line stroke="rgb(10%,10%,16%)" x1="401" x2="580" y1="273" y2="212" /><line stroke="rgb(10%,10%,16%)" x1="477" x2="580" y1="508" y2="212" /><line stroke="rgb(10%,10%,16%)" x1="316" x2="580" y1="188" y2="212" /><line stroke="rgb(10%,10%,16%)" x1="580" x2="400" y1="212" y2="218" /><circle cx="254" cy="476" fill="white" r="10" stroke="black" /><g font-size="12"><text x="250" y="481">0</text></g><circle cx="326" cy="401" fill="white" r="10" stroke="black" /><g font-size="12"><text x="322" y="406">1</text></g><circle cx="580" cy="212" fill="white" r="10" stroke="black" /><g font-size="12"><text x="576" y="217">2</text></g><circle cx="147" cy="279" fill="white" r="10" stroke="black" /><g font-size="12"><text x="143" y="284">3</text></g><circle cx="477" cy="508" fill="white" r="10" stroke="black" /><g font-size="12"><text x="473" y="513">4</text></g><circle cx="182" cy="145" fill="white" r="10" stroke="black" /><g font-size="12"><text x="178" y="150">5</text></g><circle cx="316" cy="188" fill="white" r="10" stroke="black" /><g font-size="12"><text x="312" y="193">6</text></g><circle cx="245" cy="288" fill="white" r="10" stroke="black" /><g font-size="12"><text x="241" y="293">7</text></g><circle cx="144" cy="280" fill="white" r="10" stroke="black" /><g font-size="12"><text x="140" y="285">8</text></g><circle cx="194" cy="215" fill="white" r="10" stroke="black" /><g font-size="12"><text x="190" y="220">9</text></g><circle cx="401" cy="273" fill="white" r="10" stroke="black" /><g font-size="12"><text x="397" y="278">10</text></g><circle cx="400" cy="218" fill="white" r="10" stroke="black" /><g font-size="12"><text x="396" y="223">11</text></g><circle cx="386" cy="591" fill="white" r="10" stroke="black" /><g font-size="12"><text x="382" y="596">12</text></g><circle cx="328" cy="364" fill="white" r="10" stroke="black" /><g font-size="12"><text x="324" y="369">13</text></g><circle cx="306" cy="386" fill="white" r="10" stroke="black" /><g font-size="12"><text x="302" y="391">14</text></g></svg>