<?xml version="1.0" encoding="utf-8" ?>
<svg baseProfile="full" height="700" version="1.1" width="700" xmlns="http://www.w3.org/2000/svg" xmlns:ev="http://www.w3.org/2001/xml-events" xmlns:xlink="http://www.w3.org/1999/xlink"><defs /><line stroke="rgb(10%,10%,16%)" x1="333" x2="305" y1="495" y2="550" /><line stroke="rgb(10%,10%,16%)" x1="305" x2="332" y1="550" y2="598" /><line stroke="rgb(10%,10%,16%)" x1="333" x2="330" y1="495" y2="419" /><line stroke="rgb(10%,10%,16%)" x1="332" x2="401" y1="598" y2="581" /><line stroke="rgb(10%,10%,16%)" x1="305" x2="396" y1="550" y2="544" /><line stroke="rgb(10%,10%,16%)" x1="330" x2="246" y1="419" y2="430" /><line stroke="rgb(10%,10%,16%)" x1="333" x2="396" y1="495" y2="544" /><line stroke="rgb(10%,10%,16%)" x1="401" x2="396" y1="581" y2="544" /><line stroke="rgb(10%,10%,16%)" x1="332" x2="396" y1="598" y2="544" /><line stroke="rgb(10%,10%,16%)" x1="396" x2="496" y1="544" y2="486" /><line stroke="rgb(10%,10%,16%)" x1="305" x2="330" y1="550" y2="419" /><line stroke="rgb(10%,10%,16%)" x1="246" x2="305" y1="430" y2="550" /><line stroke="rgb(10%,10%,16%)" x1="330" x2="396" y1="419" y2="544" /><line stroke="rgb(10%,10%,16%)" x1="396" x2="511" y1="544" y2="474" /><line stroke="rgb(10%,10%,16%)" x1="396" x2="431" y1="544" y2="273" /><line stroke="rgb(10%,10%,16%)" x1="401" x2="496" y1="581" y2="486" /><line stroke="rgb(10%,10%,16%)" x1="396" x2="561" y1="544" y2="292" /><line stroke="rgb(10%,10%,16%)" x1="496" x2="511" y1="486" y2="474" /><line stroke="rgb(10%,10%,16%)" x1="396" x2="477" y1="544" y2="200" /><line stroke="rgb(10%,10%,16%)" x1="330" x2="431" y1="419" y2="273" /><line stroke="rgb(10%,10%,16%)" x1="246" x2="431" y1="430" y2="273" /><line stroke="rgb(10%,10%,16%)" x1="511" x2="401" y1="474" y2="581" /><line stroke="rgb(10%,10%,16%)" x1="431" x2="477" y1="273" y2="200" /><line stroke="rgb(10%,10%,16%)" x1="561" x2="477" y1="292" y2="200" /><line stroke="rgb(10%,10%,16%)" x1="511" x2="561" y1="474" y2="292" /><line stroke="rgb(10%,10%,16%)" x1="477" x2="322" y1="200" y2="113" /><line stroke="rgb(10%,10%,16%)" x1="431" x2="259" y1="273" y2="187" /><line stroke="rgb(10%,10%,16%)" x1="431" x2="322" y1="273" y2="113" /><line stroke="rgb(10%,10%,16%)" x1="246" x2="259" y1="430" y2="187" /><line stroke="rgb(10%,10%,16%)" x1="322" x2="259" y1="113" y2="187" /><line stroke="rgb(10%,10%,16%)" x1="259" x2="156" y1="187" y2="182" /><line stroke="rgb(10%,10%,16%)" x1="322" x2="156" y1="113" y2="182" /><line stroke="rgb(10%,10%,16%)" x1="246" x2="156" y1="430" y2="182" /><circle cx="246" cy="430" fill="white" r="10" stroke="black" /><g font-size="12"><text x="242" y="435">0</text></g><circle cx="330" cy="419" fill="white" r="10" stroke="black" /><g font-size="12"><text x="326" y="424">1</text></g><circle cx="333" cy="495" fill="white" r="10" stroke="black" /><g font-size="12"><text x="329" y="500">2</text></g><circle cx="431" cy="273" fill="white" r="10" stroke="black" /><g font-size="12"><text x="427" y="278">3</text></g><circle cx="156" cy="182" fill="white" r="10" stroke="black" /><g font-size="12"><text x="152" y="187">4</text></g><circle cx="332" cy="598" fill="white" r="10" stroke="black" /><g font-size="12"><text x="328" y="603">5</text></g><circle cx="396" cy="544" fill="white" r="10" stroke="black" /><g font-size="12"><text x="392" y="549">6</text></g><circle cx="259" cy="187" fill="white" r="10" stroke="black" /><g font-size="12"><text x="255" y="192">7</text></g><circle cx="496" cy="486" fill="white" r="10" stroke="black" /><g font-size="12"><text x="492" y="491">8</text></g><circle cx="477" cy="200" fill="white" r="10" stroke="black" /><g font-size="12"><text x="473" y="205">9</text></g><circle cx="561" cy="292" fill="white" r="10" stroke="black" /><g font-size="12"><text x="557" y="297">10</text></g><circle cx="511" cy="474" fill="white" r="10" stroke="black" /><g font-size="12"><text x="507" y="479">11</text></g><circle cx="401" cy="581" fill="white" r="10" stroke="black" /><g font-size="12"><text x="397" y="586">12</text></g><circle cx="322" cy="113" fill="white" r="10" stroke="black" /><g font-size="12"><text x="318" y="118">13</text></g><circle cx="305" cy="550" fill="white" r="10" stroke="black" /><g font-size="12"><text x="301" y="555">14</text></g></svg>