<?xml version="1.0" encoding="utf-8" ?>
<svg baseProfile="full" height="700" version="1.1" width="700" xmlns="http://www.w3.org/2000/svg" xmlns:ev="http://www.w3.org/2001/xml-events" xmlns:xlink="http://www.w3.org/1999/xlink"><defs /><line stroke="rgb(10%,10%,16%)" x1="100" x2="167" y1="297" y2="234" /><line stroke="rgb(10%,10%,16%)" x1="167" x2="313" y1="234" y2="328" /><line stroke="rgb(10%,10%,16%)" x1="100" x2="134" y1="297" y2="456" /><line stroke="rgb(10%,10%,16%)" x1="313" x2="366" y1="328" y2="360" /><line stroke="rgb(10%,10%,16%)" x1="167" x2="331" y1="234" y2="102" /><line stroke="rgb(10%,10%,16%)" x1="134" x2="133" y1="456" y2="469" /><line stroke="rgb(10%,10%,16%)" x1="100" x2="133" y1="297" y2="469" /><line stroke="rgb(10%,10%,16%)" x1="366" x2="336" y1="360" y2="461" /><line stroke="rgb(10%,10%,16%)" x1="313" x2="280" y1="328" y2="435" /><line stroke="rgb(10%,10%,16%)" x1="331" x2="313" y1="102" y2="328" /><line stroke="rgb(10%,10%,16%)" x1="167" x2="134" y1="234" y2="456" /><line stroke="rgb(10%,10%,16%)" x1="133" x2="160" y1="469" y2="523" /><line stroke="rgb(10%,10%,16%)" x1="134" x2="160" y1="456" y2="523" /><line stroke="rgb(10%,10%,16%)" x1="133" x2="111" y1="469" y2="539" /><line stroke="rgb(10%,10%,16%)" x1="100" x2="111" y1="297" y2="539" /><line stroke="rgb(10%,10%,16%)" x1="336" x2="280" y1="461" y2="435" /><line stroke="rgb(10%,10%,16%)" x1="366" x2="280" y1="360" y2="435" /><line stroke="rgb(10%,10%,16%)" x1="280" x2="134" y1="435" y2="456" /><line stroke="rgb(10%,10%,16%)" x1="313" x2="478" y1="328" y2="292" /><line stroke="rgb(10%,10%,16%)" x1="313" x2="524" y1="328" y2="349" /><line stroke="rgb(10%,10%,16%)" x1="331" x2="478" y1="102" y2="292" /><line stroke="rgb(10%,10%,16%)" x1="134" x2="336" y1="456" y2="461" /><line stroke="rgb(10%,10%,16%)" x1="167" x2="280" y1="234" y2="435" /><line stroke="rgb(10%,10%,16%)" x1="160" x2="111" y1="523" y2="539" /><line stroke="rgb(10%,10%,16%)" x1="160" x2="336" y1="523" y2="461" /><line stroke="rgb(10%,10%,16%)" x1="336" x2="524" y1="461" y2="349" /><line stroke="rgb(10%,10%,16%)" x1="366" x2="524" y1="360" y2="349" /><line stroke="rgb(10%,10%,16%)" x1="478" x2="535" y1="292" y2="247" /><line stroke="rgb(10%,10%,16%)" x1="524" x2="478" y1="349" y2="292" /><line stroke="rgb(10%,10%,16%)" x1="478" x2="553" y1="292" y2="256" /><line stroke="rgb(10%,10%,16%)" x1="331" x2="535" y1="102" y2="247" /><line stroke="rgb(10%,10%,16%)" x1="524" x2="553" y1="349" y2="256" /><line stroke="rgb(10%,10%,16%)" x1="535" x2="553" y1="247" y2="256" /><line stroke="rgb(10%,10%,16%)" x1="553" x2="331" y1="256" y2="102" /><circle cx="167" cy="234" fill="white" r="10" stroke="black" /><g font-size="12"><text x="163" y="239">0</text></g><circle cx="336" cy="461" fill="white" r="10" stroke="black" /><g font-size="12"><text x="332" y="466">1</text></g><circle cx="160" cy="523" fill="white" r="10" stroke="black" /><g font-size="12"><text x="156" y="528">2</text></g><circle cx="100" cy="297" fill="white" r="10" stroke="black" /><g font-size="12"><text x="96" y="302">3</text></g><circle cx="535" cy="247" fill="white" r="10" stroke="black" /><g font-size="12"><text x="531" y="252">4</text></g><circle cx="331" cy="102" fill="white" r="10" stroke="black" /><g font-size="12"><text x="327" y="107">5</text></g><circle cx="111" cy="539" fill="white" r="10" stroke="black" /><g font-size="12"><text x="107" y="544">6</text></g><circle cx="553" cy="256" fill="white" r="10" stroke="black" /><g font-size="12"><text x="549" y="261">7</text></g><circle cx="280" cy="435" fill="white" r="10" stroke="black" /><g font-size="12"><text x="276" y="440">8</text></g><circle cx="134" cy="456" fill="white" r="10" stroke="black" /><g font-size="12"><text x="130" y="461">9</text></g><circle cx="366" cy="360" fill="white" r="10" stroke="black" /><g font-size="12"><text x="362" y="365">10</text></g><circle cx="133" cy="469" fill="white" r="10" stroke="black" /><g font-size="12"><text x="129" y="474">11</text></g><circle cx="313" cy="328" fill="white" r="10" stroke="black" /><g font-size="12"><text x="309" y="333">12</text></g><circle cx="478" cy="292" fill="white" r="10" stroke="black" /><g font-size="12"><text x="474" y="297">13</text></g><circle cx="524" cy="349" fill="white" r="10" stroke="black" /><g font-size="12"><text x="520" y="354">14</text></g></svg>